<svg version="1.1" xmlns="http://www.w3.org/2000/svg" xmlns:xlink="http://www.w3.org/1999/xlink" viewBox="0 0 60 60" xml:space="preserve" data-animoptions="{'duration':'2.5', 'repeat':'0', 'repeatDelay':'0.7'}">
	<g class="lievo-main">
		<g class="lievo-common">
			<g data-animdata="
				{
					'steps':[
						{
							'duration':'2',
							'position':'4',
							'vars':{
								'rotation':'-720',
								'force3D':'true',
								'x':'-=80',
								'y':'-=40',
								'transformOrigin':'center center'
							}
						},
						{
							'duration':'0',
							'position':'6',
							'vars':{
								'rotation':'0',
								'opacity':'0',
								'x':'0',
								'y':'0'
							}
						},
						{
							'duration':'0',
							'vars':{
								'scale':'0.001',
								'transformOrigin':'center top'
							}
						},
						{
							'duration':'0',
							'vars':{
								'opacity':'1'
							}
						},
						{
							'duration':'3',
							'position':'8',
							'vars':{
								'scale':'1',
								'ease':'Back.easeOut'
							}
						}
					]
				}
			">
				<path class="lievo-savelinecap" fill="#D3623B" stroke="#C3522B" stroke-width="2" stroke-linecap="round" stroke-linejoin="round" stroke-miterlimit="10" d="M30,21.77C27.79,20.04,26.02,19,23,19c-2.19,0-4.15,0.54-5.83,1.49C13.33,22.67,11,27.01,11,32c0,2.18,0.35,4.53,0.97,6.84c0.56,2.1,1.33,4.16,2.27,6.04c0.89,1.79,1.92,3.42,3.04,4.73C19.04,51.69,21.02,53,23,53c1.47,0,2.98-0.46,4.29-1.24c1.67-1,3.75-1,5.42,0C34.01,52.54,35.53,53,37,53c2.08,0,4.17-1.45,6-3.72c1.55-1.92,2.93-4.43,3.97-7.15C48.23,38.83,49,35.22,49,32c0-4.45-1.85-8.38-4.97-10.72C42.12,19.84,39.73,19,37,19C33.98,19,32.21,20.04,30,21.77z" data-animdata="
					{
						'steps':[
							{
								'duration':'0',
								'position':'0',
								'vars':{
									'path':'M30,21.77C27.79,20.04,26.02,19,23,19c-2.19,0-4.15,0.54-5.83,1.49C13.33,22.67,11,27.01,11,32c0,2.18,0.35,4.53,0.97,6.84c0.56,2.1,1.33,4.16,2.27,6.04c0.89,1.79,1.92,3.42,3.04,4.73C19.04,51.69,21.02,53,23,53c1.47,0,2.98-0.46,4.29-1.24c1.67-1,3.75-1,5.42,0C34.01,52.54,35.53,53,37,53c2.08,0,4.17-1.45,6-3.72c1.55-1.92,2.93-4.43,3.97-7.15c-4.63-3.13-7.8-7.66-7.8-10.88c0-3.58,0.83-6.33,4.87-9.97C42.12,19.84,39.73,19,37,19C33.98,19,32.21,20.04,30,21.77z'
								}
							},
							{
								'duration':'0',
								'position':'1',
								'vars':{
									'path':'M30,21.77C27.79,20.04,26.02,19,23,19c-2.19,0-4.15,0.54-5.83,1.49C13.33,22.67,11,27.01,11,32c0,2.18,0.35,4.53,0.97,6.84c1.87-0.09,6.35-0.1,8.03,1.16c1.15,0.85,3.33,2.5,3.58,5.42c0.24,2.79,0.25,3.42-0.58,7.58c1.47,0,2.98-0.46,4.29-1.24c1.67-1,3.75-1,5.42,0C34.01,52.54,35.53,53,37,53c2.08,0,4.17-1.45,6-3.72c1.55-1.92,2.93-4.43,3.97-7.15c-4.63-3.13-7.8-7.66-7.8-10.88c0-3.58,0.83-6.33,4.87-9.97C42.12,19.84,39.73,19,37,19C33.98,19,32.21,20.04,30,21.77z'
								}
							},
							{
								'duration':'0',
								'position':'2',
								'vars':{
									'path':'M30,21.77C27.79,20.04,26.02,19,23,19c-2.19,0-4.15,0.54-5.83,1.49C13.33,22.67,11,27.01,11,32c0,2.18,0.35,4.53,0.97,6.84c1.87-0.09,6.35-0.1,8.03,1.16c1.15,0.85,3.33,2.5,3.58,5.42c0.24,2.79,0.25,3.42-0.58,7.58c1.47,0,2.98-0.46,4.29-1.24c1.67-1,3.75-1,5.42,0C34.01,52.54,35.53,53,37,53c-1.58-4.33-1.88-6.46-1.42-9.33c0.42-2.58,3.19-5.4,5.5-6.42c-2.1-2.86-2.92-3.86-2.92-7.08c0-3.58,1.83-5.25,5.87-8.89C42.12,19.84,39.73,19,37,19C33.98,19,32.21,20.04,30,21.77z'
								}
							},
							{
								'duration':'0',
								'position':'3',
								'vars':{
									'path':'M30,21.77C27.79,20.04,26.02,19,23,19c0.75,2.5,1.23,4.91,1.42,6.58c0.22,1.95,0.08,5.25-1.17,7.75c-0.89,1.78-0.92,3.25-3.92,4.67c2.06,0.23,4.01,3.16,4.63,4.56s0.37,1.61,0.18,3.93C24,48.36,23.83,48.83,23,53c1.47,0,2.98-0.46,4.29-1.24c1.67-1,3.75-1,5.42,0C34.01,52.54,35.53,53,37,53c-1.58-4.33-1.88-6.46-1.42-9.33c0.42-2.58,3.19-5.4,5.5-6.42c-2.1-2.86-2.92-3.86-2.92-7.08c0-3.58,1.83-5.25,5.87-8.89C42.12,19.84,39.73,19,37,19C33.98,19,32.21,20.04,30,21.77z'
								}
							},
							{
								'duration':'0',
								'position':'6',
								'vars':{
									'path':'M30,21.77C27.79,20.04,26.02,19,23,19c-2.19,0-4.15,0.54-5.83,1.49C13.33,22.67,11,27.01,11,32c0,2.18,0.35,4.53,0.97,6.84c0.56,2.1,1.33,4.16,2.27,6.04c0.89,1.79,1.92,3.42,3.04,4.73C19.04,51.69,21.02,53,23,53c1.47,0,2.98-0.46,4.29-1.24c1.67-1,3.75-1,5.42,0C34.01,52.54,35.53,53,37,53c2.08,0,4.17-1.45,6-3.72c1.55-1.92,2.93-4.43,3.97-7.15C48.23,38.83,49,35.22,49,32c0-4.45-1.85-8.38-4.97-10.72C42.12,19.84,39.73,19,37,19C33.98,19,32.21,20.04,30,21.77z'
								}
							}
						]
					}
				"/>
				<path class="lievo-altstroke" fill="none" stroke="#007C21" stroke-width="2" stroke-linecap="square" stroke-miterlimit="10" d="M39,9c-4,1-8,5-8.94,9"/>
				<path class="lievo-altstroke" fill="#1EBC61" stroke="#009C41" stroke-width="2" stroke-linecap="square" stroke-miterlimit="10" d="M21,7c0,0,5,1,7,4c1.66,2.49,2.06,7,2.06,7S25,17,23,14C21.53,11.79,21,7,21,7z"/>
			</g>
		</g>
	</g>
</svg>
