<svg version="1.1" xmlns="http://www.w3.org/2000/svg" xmlns:xlink="http://www.w3.org/1999/xlink" viewBox="0 0 60 60" xml:space="preserve" data-animoptions="{'duration':'0.8', 'repeat':'2', 'repeatDelay':'0'}">
	<g class="lievo-main">
		<g class="lievo-filledicon lievo-lineicon lievo-solidicon">
			<path fill="#F9B32F" stroke="#D87400" stroke-width="2" stroke-linecap="square" stroke-miterlimit="10" d="M53,30v4c0,0.55-0.45,1-1,1h-3v5c0,1.66-1.34,3-3,3H10c-1.66,0-3-1.34-3-3V20c0-1.66,1.34-3,3-3h36c1.66,0,3,1.34,3,3v5h3c0.55,0,1,0.45,1,1V30z"/>
			<path class="lievo-likestroke lievo-altstroke lievo-solidbg" fill="#B85400" stroke="none" d="M44,30l-22,7l5-9l-15,2l22-7l-5,9L44,30z" data-animdata="
				{
					'steps':[
						{
							'duration':'1',
							'vars':{
								'opacity':'0',
								'repeat':'1',
								'repeatDelay':'1',
								'yoyo':'true',
								'ease':'Power0.easeNone'
							},
							'position':'0'
						}
					]
				}
			"/>
		</g>
	</g>
</svg>