<svg version="1.1" xmlns="http://www.w3.org/2000/svg" xmlns:xlink="http://www.w3.org/1999/xlink" viewBox="0 0 60 60" xml:space="preserve" data-animoptions="{'duration':'2', 'repeat':'0', 'repeatDelay':'0.5'}">
	<g class="lievo-main">
		<g class="lievo-filledicon">
			<g data-animdata="
				{
					'steps':[
						{
							'duration':'0.5',
							'vars':{
								'scaleX':'1.1',
								'scaleY':'0',
								'transformOrigin':'bottom bottom'
							},
							'position':'1'
						},
						{
							'duration':'0',
							'vars':{
								'x':'-=60',
								'scaleX':'1',
								'scaleY':'1'
							},
							'position':'+=0'
						},
						{
							'duration':'0.5',
							'vars':{
								'x':'0'
							},
							'position':'3.5'
						}
					]
				}
			">
				<path class="lievo-savelinecap" fill="none" stroke="#B71C0C" stroke-width="2" stroke-linecap="round" stroke-miterlimit="10" d="M35.83,47H12c-1.66,0-3-1.34-3-3V23h40v10.83"/>
				<path fill="#E74C3C" stroke="#34495E" stroke-width="2" stroke-linecap="square" stroke-miterlimit="10" d="M45,33c5.52,0,10,4.48,10,10s-4.48,10-10,10s-10-4.48-10-10S39.48,33,45,33"/>
				<g data-animdata="
					{
						'steps':[
							{
								'duration':'0.3',
								'vars':{
									'scale':'0.62',
									'transformOrigin':'center center',
									'repeat':'1',
									'repeatDelay':'0.1',
									'yoyo':'true'
								},
								'position':'0'
							}
						]
					}
				">
					<line fill="none" stroke="#34495E" stroke-width="2" stroke-linecap="square" stroke-miterlimit="10" x1="42" y1="40" x2="48" y2="46"/>
					<line fill="none" stroke="#34495E" stroke-width="2" stroke-linecap="square" stroke-miterlimit="10" x1="42" y1="46" x2="48" y2="40"/>
				</g>
				
				<line fill="none" stroke="#B71C0C" stroke-width="2" stroke-linecap="square" stroke-miterlimit="10" x1="34" y1="29" x2="24" y2="29"/>
				
				<path fill="#E74C3C" stroke="#B71C0C" stroke-width="2" stroke-linecap="square" stroke-miterlimit="10" d="M30,11h18c1.66,0,3,1.34,3,3v9H7v-9c0-1.66,1.34-3,3-3H30"/>
			</g>

			<g data-animdata="
				{
					'steps':[
						{
							'duration':'1',
							'vars':{
								'y':'+=84',
								'repeat':'1',
								'repeatDelay':'0.5',
								'yoyo':'true'
							},
							'position':'0.5'
						}
					]
				}
			">
				<rect class="lievo-donotdraw" x="3" y="-37" fill="#E74C3C" stroke="#B71C0C" stroke-width="2" stroke-linecap="square" stroke-miterlimit="10" width="54" height="4"/>
				<rect class="lievo-donotdraw" x="28" y="-97" fill="#E74C3C" stroke="#B71C0C" stroke-width="2" stroke-linecap="square" stroke-miterlimit="10" width="4" height="60"/>
			</g>
		</g>

		<g class="lievo-lineicon">
			<g data-animdata="
				{
					'steps':[
						{
							'duration':'0.5',
							'vars':{
								'scaleX':'1.1',
								'scaleY':'0',
								'transformOrigin':'bottom bottom'
							},
							'position':'1'
						},
						{
							'duration':'0',
							'vars':{
								'x':'-=60',
								'scaleX':'1',
								'scaleY':'1'
							},
							'position':'+=0'
						},
						{
							'duration':'0.5',
							'vars':{
								'x':'0'
							},
							'position':'3.5'
						}
					]
				}
			">
				<path fill="none" stroke="#34495E" stroke-width="2" stroke-linecap="square" stroke-miterlimit="10" d="M31,47H12c-1.66,0-3-1.34-3-3V23h40v6"/>

				<g data-animdata="
					{
						'steps':[
							{
								'duration':'0.3',
								'vars':{
									'scale':'0.62',
									'transformOrigin':'center center',
									'repeat':'1',
									'repeatDelay':'0.1',
									'yoyo':'true'
								},
								'position':'0'
							}
						]
					}
				">
					<path fill="none" stroke="#34495E" stroke-width="2" stroke-linecap="square" stroke-miterlimit="10" d="M45,33c5.52,0,10,4.48,10,10s-4.48,10-10,10s-10-4.48-10-10S39.48,33,45,33"/>
					<line class="lievo-altstroke" fill="none" stroke="#34495E" stroke-width="2" stroke-linecap="square" stroke-miterlimit="10" x1="42" y1="40" x2="48" y2="46"/>
					<line class="lievo-altstroke" fill="none" stroke="#34495E" stroke-width="2" stroke-linecap="square" stroke-miterlimit="10" x1="42" y1="46" x2="48" y2="40"/>
				</g>
				
				<line fill="none" stroke="#34495E" stroke-width="2" stroke-linecap="square" stroke-miterlimit="10" x1="34" y1="29" x2="24" y2="29"/>

				<path fill="none" stroke="#34495E" stroke-width="2" stroke-linecap="square" stroke-miterlimit="10" d="M30,11h18c1.66,0,3,1.34,3,3v9H7v-9c0-1.66,1.34-3,3-3H30"/>
			</g>

			<g data-animdata="
				{
					'steps':[
						{
							'duration':'1',
							'vars':{
								'y':'+=84',
								'repeat':'1',
								'repeatDelay':'0.5',
								'yoyo':'true'
							},
							'position':'0.5'
						}
					]
				}
			">
				<rect class="lievo-donotdraw" x="28" y="-97" fill="none" stroke="#34495E" stroke-width="2" stroke-linecap="square" stroke-miterlimit="10" width="4" height="60"/>
				<rect class="lievo-donotdraw lievo-altstroke" x="3" y="-37" fill="none" stroke="#34495E" stroke-width="2" stroke-linecap="square" stroke-miterlimit="10" width="54" height="4"/>
			</g>
		</g>

		<g class="lievo-solidicon">
			<g data-animdata="
				{
					'steps':[
						{
							'duration':'0.5',
							'vars':{
								'scaleX':'1.1',
								'scaleY':'0',
								'transformOrigin':'bottom bottom'
							},
							'position':'1'
						},
						{
							'duration':'0',
							'vars':{
								'x':'-=60',
								'scaleX':'1',
								'scaleY':'1'
							},
							'position':'+=0'
						},
						{
							'duration':'0.5',
							'vars':{
								'x':'0'
							},
							'position':'3.5'
						}
					]
				}
			">
				<path fill="#34495E" stroke="#34495E" stroke-width="2" stroke-linecap="square" stroke-miterlimit="2" d="M49,31.68C47.75,31.24,46.4,31,45,31c-6.63,0-12,5.37-12,12c0,1.4,0.24,2.75,0.68,4H12c-1.66,0-3-1.34-3-3V25h40V31.68z"/>

				<g data-animdata="
					{
						'steps':[
							{
								'duration':'0.3',
								'vars':{
									'scale':'0.62',
									'transformOrigin':'center center',
									'repeat':'1',
									'repeatDelay':'0.1',
									'yoyo':'true'
								},
								'position':'0'
							}
						]
					}
				">
					<path fill="#34495E" stroke="#34495E" stroke-width="2" stroke-linecap="square" stroke-miterlimit="10" d="M45,35c4.42,0,8,3.58,8,8s-3.58,8-8,8s-8-3.58-8-8S40.58,35,45,35"/>
					<line class="lievo-solidbg" fill="none" stroke="#FFFFFF" stroke-width="2" stroke-linecap="square" stroke-miterlimit="10" x1="42" y1="40" x2="48" y2="46"/>
					<line class="lievo-solidbg" fill="none" stroke="#FFFFFF" stroke-width="2" stroke-linecap="square" stroke-miterlimit="10" x1="42" y1="46" x2="48" y2="40"/>
				</g>

				<line class="lievo-solidbg" fill="none" stroke="#FFFFFF" stroke-width="2" stroke-linecap="square" stroke-miterlimit="10" x1="34" y1="29" x2="24" y2="29"/>

				<path fill="#34495E" stroke="#34495E" stroke-width="2" stroke-linecap="square" stroke-miterlimit="10" d="M30,11h18c1.66,0,3,1.34,3,3v7H7v-7c0-1.66,1.34-3,3-3H30"/>
			</g>

			<g data-animdata="
				{
					'steps':[
						{
							'duration':'1',
							'vars':{
								'y':'+=84',
								'repeat':'1',
								'repeatDelay':'0.5',
								'yoyo':'true'
							},
							'position':'0.5'
						}
					]
				}
			">
				<rect class="lievo-donotdraw" x="3" y="-37" fill="#34495E" stroke="#34495E" stroke-width="2" stroke-linecap="square" stroke-miterlimit="10" width="54" height="4"/>
				<rect class="lievo-donotdraw" x="28" y="-97" fill="#34495E" stroke="#34495E" stroke-width="2" stroke-linecap="square" stroke-miterlimit="10" width="4" height="60"/>
			</g>
		</g>
	</g>
</svg>