<svg version="1.1" xmlns="http://www.w3.org/2000/svg" xmlns:xlink="http://www.w3.org/1999/xlink" viewBox="0 0 60 60" xml:space="preserve" data-animoptions="{'duration':'2.5', 'repeat':'0', 'repeatDelay':'0.7'}">
	<g class="lievo-main">
		<g class="lievo-filledicon lievo-lineicon">
			<defs>
				<clipPath id="livicon_briefcase_f_l">
					<polygon class="lievo-donotdraw lievo-nohovercolor lievo-nohoverstroke" points="53,17 49,21 12,21 7,17 7,-15 53,-15"/>
				</clipPath>
			</defs>
			<g data-animdata="
				{
					'steps':[
						{
							'duration':'1',
							'position':'0',
							'vars':{
								'y':'+=8',
								'repeat':'1',
								'repeatDelay':'4',
								'yoyo':'true'
							}
						}
					]
				}
			">
				<path fill="#AE7C5B" stroke="#7E4C2B" stroke-width="2" stroke-linecap="square" stroke-miterlimit="10" d="M51,47H9c-1.1,0-2-0.9-2-2V15c0-1.1,0.9-2,2-2h42c1.1,0,2,0.9,2,2v30C53,46.1,52.1,47,51,47z"/>
				
				<g data-animdata="
					{
						'steps':[
							{
								'duration':'1',
								'position':'0',
								'vars':{
									'scaleX':'1',
									'scaleY':'-1',
									'svgOrigin':'30 13',
									'repeat':'1',
									'repeatDelay':'4',
									'yoyo':'true'
								}
							}
						]
					}
				">
					<path fill="none" stroke="#6E3C1B" stroke-width="2" stroke-linecap="square" stroke-miterlimit="10" d="M25,13v-2c0-1.1,0.9-2,2-2h6c1.1,0,2,0.9,2,2v2" data-animdata="
						{
							'steps':[
								{
									'duration':'0',
									'position':'0.5',
									'vars':{
										'opacity':'0',
										'repeat':'1',
										'repeatDelay':'5',
										'yoyo':'true'
									}
								}
							]
						}
					"/>
					<path fill="#AE7C5B" stroke="#7E4C2B" stroke-width="2" stroke-linecap="square" stroke-miterlimit="10" d="M28,27H13c-3.31,0-6-2.69-6-6v-6c0-1.1,0.9-2,2-2h42c1.1,0,2,0.9,2,2v6c0,3.31-2.69,6-6,6H32"/>
					<rect class="lievo-altstroke" x="28" y="25" fill="#AE7C5B" stroke="#FFCF4B" stroke-width="2" stroke-linecap="square" stroke-miterlimit="10" width="4" height="4"/>
				</g>

				<g clip-path="url(#livicon_briefcase_f_l)" opacity="0" data-animdata="
					{
						'steps':[
							{
								'duration':'0.2',
								'position':'0.25',
								'vars':{
									'opacity':'1',
									'repeat':'1',
									'repeatDelay':'5.10',
									'yoyo':'true'
								}
							}
						]
					}
				">
					<rect class="lievo-donotdraw lievo-savefill lievo-nohovercolor" x="10" y="16" fill="#DADFE1" width="40" height="28" data-animdata="
						{
							'steps':[
								{
									'duration':'1',
									'position':'1.5',
									'vars':{
										'y':'-=60'
									}
								},
								{
									'duration':'0',
									'position':'6.75',
									'vars':{
										'y':'0'
									}
								}
							]
						}
					"/>
					<rect class="lievo-donotdraw lievo-savefill lievo-nohovercolor" x="10" y="16" fill="#DADFE1" width="40" height="28" data-animdata="
						{
							'steps':[
								{
									'duration':'1',
									'position':'2.5',
									'vars':{
										'y':'-=60'
									}
								},
								{
									'duration':'0',
									'position':'6.75',
									'vars':{
										'y':'0'
									}
								}
							]
						}
					"/>
					<rect class="lievo-donotdraw lievo-savefill lievo-nohovercolor" x="10" y="16" fill="#DADFE1" width="40" height="28" data-animdata="
						{
							'steps':[
								{
									'duration':'1',
									'position':'3.5',
									'vars':{
										'y':'-=60'
									}
								},
								{
									'duration':'0',
									'position':'6.75',
									'vars':{
										'y':'0'
									}
								}
							]
						}
					"/>
				</g>

				<polyline class="lievo-donotdraw lievo-savelinecap" fill="none" stroke="#7E4C2B" stroke-width="2" stroke-miterlimit="10" points="7,17 12,21 49,21 53,17" opacity="0" data-animdata="
					{
						'steps':[
							{
								'duration':'0',
								'position':'0.25',
								'vars':{
									'opacity':'1',
									'repeat':'1',
									'repeatDelay':'5.5',
									'yoyo':'true'
								}
							}
						]
					}
				"/>
			</g>
		</g>

		<g class="lievo-solidicon">
			<defs>
				<clipPath id="livicon_briefcase_s">
					<polygon class="lievo-donotdraw lievo-nohovercolor lievo-nohoverstroke" points="53,17 49,21 12,21 7,17 7,-15 53,-15"/>

				</clipPath>
				<clipPath id="livicon_briefcase_s_add">
					<path class="lievo-donotdraw lievo-nohovercolor lievo-nohoverstroke" d="M51,47H9c-1.1,0-2-0.9-2-2V15c0-1.1,0.9-2,2-2h42c1.1,0,2,0.9,2,2v30C53,46.1,52.1,47,51,47z"/>
				</clipPath>
			</defs>
			<g data-animdata="
				{
					'steps':[
						{
							'duration':'1',
							'position':'0',
							'vars':{
								'y':'+=8',
								'repeat':'1',
								'repeatDelay':'4',
								'yoyo':'true'
							}
						}
					]
				}
			">
				<path fill="#C66D55" stroke="#34495E" stroke-width="2" stroke-linecap="square" stroke-miterlimit="10" d="M51,47H9c-1.1,0-2-0.9-2-2V15c0-1.1,0.9-2,2-2h42c1.1,0,2,0.9,2,2v30C53,46.1,52.1,47,51,47z"/>
				
				<g data-animdata="
					{
						'steps':[
							{
								'duration':'1',
								'position':'0',
								'vars':{
									'scaleX':'1',
									'scaleY':'-1',
									'svgOrigin':'30 13',
									'repeat':'1',
									'repeatDelay':'4',
									'yoyo':'true'
								}
							}
						]
					}
				">
					<path fill="none" stroke="#34495E" stroke-width="2" stroke-linecap="square" stroke-miterlimit="10" d="M25,13v-2c0-1.1,0.9-2,2-2h6c1.1,0,2,0.9,2,2v2" data-animdata="
						{
							'steps':[
								{
									'duration':'0',
									'position':'0.5',
									'vars':{
										'opacity':'0',
										'repeat':'1',
										'repeatDelay':'5',
										'yoyo':'true'
									}
								}
							]
						}
					"/>
					<path fill="#C66D55" stroke="#34495E" stroke-width="2" stroke-linecap="square" stroke-miterlimit="10" d="M28,27H13c-3.31,0-6-2.69-6-6v-6c0-1.1,0.9-2,2-2h42c1.1,0,2,0.9,2,2v6c0,3.31-2.69,6-6,6H32"/>
					<path class="lievo-donotdraw lievo-solidbg" fill="none" stroke="#FFFFFF" stroke-width="2" stroke-linecap="square" stroke-miterlimit="10" d="M28,27H13c-1.46,0-2.82-0.39-4-1.07C7.79,25.23,4,22,4,22" data-animdata="
						{
							'steps':[
								{
									'duration':'0',
									'position':'0.5',
									'vars':{
										'opacity':'0',
										'repeat':'1',
										'repeatDelay':'5',
										'yoyo':'true'
									}
								}
							]
						}
					"/>
					<path class="lievo-donotdraw lievo-solidbg" fill="none" stroke="#FFFFFF" stroke-width="2" stroke-linecap="square" stroke-miterlimit="10" d="M32,27h15c1.46,0,2.82-0.39,4-1.07c1.21-0.7,5-3.93,5-3.93" data-animdata="
						{
							'steps':[
								{
									'duration':'0',
									'position':'0.5',
									'vars':{
										'opacity':'0',
										'repeat':'1',
										'repeatDelay':'5',
										'yoyo':'true'
									}
								}
							]
						}
					"/>
					<rect class="lievo-solidbg" x="28" y="25" fill="none" stroke="#34495E" stroke-width="2" stroke-linecap="square" stroke-miterlimit="10" width="4" height="4" data-animdata="
						{
							'steps':[
								{
									'duration':'0',
									'position':'0.5',
									'vars':{
										'opacity':'0',
										'repeat':'1',
										'repeatDelay':'5',
										'yoyo':'true'
									}
								}
							]
						}
					"/>
					<rect x="28" y="25" fill="none" stroke="#34495E" stroke-width="2" stroke-linecap="square" stroke-miterlimit="10" width="4" height="4" opacity="0" data-animdata="
						{
							'steps':[
								{
									'duration':'0',
									'position':'0.5',
									'vars':{
										'opacity':'1',
										'repeat':'1',
										'repeatDelay':'5',
										'yoyo':'true'
									}
								}
							]
						}
					"/>
				</g>

				<g clip-path="url(#livicon_briefcase_s)" opacity="0" data-animdata="
					{
						'steps':[
							{
								'duration':'0.2',
								'position':'0.25',
								'vars':{
									'opacity':'1',
									'repeat':'1',
									'repeatDelay':'5.10',
									'yoyo':'true'
								}
							}
						]
					}
				">
					<rect class="lievo-donotdraw lievo-savefill lievo-nohovercolor" x="10" y="16" fill="#DADFE1" width="40" height="28" data-animdata="
						{
							'steps':[
								{
									'duration':'1',
									'position':'1.5',
									'vars':{
										'y':'-=60'
									}
								},
								{
									'duration':'0',
									'position':'6.75',
									'vars':{
										'y':'0'
									}
								}
							]
						}
					"/>
					<rect class="lievo-donotdraw lievo-savefill lievo-nohovercolor" x="10" y="16" fill="#DADFE1" width="40" height="28" data-animdata="
						{
							'steps':[
								{
									'duration':'1',
									'position':'2.5',
									'vars':{
										'y':'-=60'
									}
								},
								{
									'duration':'0',
									'position':'6.75',
									'vars':{
										'y':'0'
									}
								}
							]
						}
					"/>
					<rect class="lievo-donotdraw lievo-savefill lievo-nohovercolor" x="10" y="16" fill="#DADFE1" width="40" height="28" data-animdata="
						{
							'steps':[
								{
									'duration':'1',
									'position':'3.5',
									'vars':{
										'y':'-=60'
									}
								},
								{
									'duration':'0',
									'position':'6.75',
									'vars':{
										'y':'0'
									}
								}
							]
						}
					"/>
				</g>

				<polyline clip-path="url(#livicon_briefcase_s_add)" class="lievo-donotdraw lievo-solidbg" fill="none" stroke="#34495E" stroke-width="2" stroke-linecap="square" stroke-miterlimit="10" points="7,17 12,21 49,21 53,17" opacity="0" data-animdata="
					{
						'steps':[
							{
								'duration':'0',
								'position':'0.25',
								'vars':{
									'opacity':'1',
									'repeat':'1',
									'repeatDelay':'5.5',
									'yoyo':'true'
								}
							}
						]
					}
				"/>

			</g>
		</g>
	</g>
</svg>