<svg version="1.1" xmlns="http://www.w3.org/2000/svg" xmlns:xlink="http://www.w3.org/1999/xlink" viewBox="0 0 60 60" xml:space="preserve" data-animoptions="{'duration':'2', 'repeat':'0', 'repeatDelay':'0.5'}">
	<g class="lievo-main">
		<g class="lievo-filledicon lievo-lineicon">
			<defs>
				<clipPath id="livicon_building_f_l">
					<rect class="lievo-donotdraw lievo-nohovercolor lievo-nohoverstroke" x="40" width="20" height="60"/>
				</clipPath>
			</defs>
			<g data-animdata="
				{
					'steps':[
						{
							'duration':'0',
							'position':'0',
							'vars':{
								'y':'-=70'
							}
						},
						{
							'duration':'1',
							'vars':{
								'y':'+=70',
								'ease':'Power2.easeOut'
							}
						}
					]
				}
			">
				<polyline fill="#FDE3A7" stroke="#CE9C7B" stroke-width="2" stroke-linecap="square" stroke-miterlimit="10" points="23,7 37,7 37,53 27,53 27,41 19,41 19,53 9,53 9,7 23,7"/>
				<polyline fill="#FCF4E3" stroke="#EF8B59" stroke-width="2" stroke-linecap="square" stroke-miterlimit="10" points="17,25 21,25 21,35 13,35 13,25 17,25" data-animdata="
					{
						'steps':[
							{
								'duration':'0',
								'position':'0',
								'vars':{
									'opacity':'0'
								}
							},
							{
								'duration':'0.5',
								'position':'1',
								'vars':{
									'opacity':'1'
								}
							}
						]
					}
				"/>
				<polyline fill="#FCF4E3" stroke="#EF8B59" stroke-width="2" stroke-linecap="square" stroke-miterlimit="10" points="29,25 33,25 33,35 25,35 25,25 29,25" data-animdata="
					{
						'steps':[
							{
								'duration':'0',
								'position':'0',
								'vars':{
									'opacity':'0'
								}
							},
							{
								'duration':'0.5',
								'position':'3',
								'vars':{
									'opacity':'1'
								}
							}
						]
					}
				"/>
				<polyline fill="#FCF4E3" stroke="#EF8B59" stroke-width="2" stroke-linecap="square" stroke-miterlimit="10" points="17,11 21,11 21,21 13,21 13,11 17,11" data-animdata="
					{
						'steps':[
							{
								'duration':'0',
								'position':'0',
								'vars':{
									'opacity':'0'
								}
							},
							{
								'duration':'0.5',
								'position':'2.5',
								'vars':{
									'opacity':'1'
								}
							}
						]
					}
				"/>
				<polyline fill="#FCF4E3" stroke="#EF8B59" stroke-width="2" stroke-linecap="square" stroke-miterlimit="10" points="29,11 33,11 33,21 25,21 25,11 29,11" data-animdata="
					{
						'steps':[
							{
								'duration':'0',
								'position':'0',
								'vars':{
									'opacity':'0'
								}
							},
							{
								'duration':'0.5',
								'position':'1.5',
								'vars':{
									'opacity':'1'
								}
							}
						]
					}
				"/>
			</g>
			<g clip-path="url(#livicon_building_f_l)">
				<g data-animdata="
					{
						'steps':[
							{
								'duration':'0',
								'position':'0',
								'vars':{
									'x':'-=24'
								}
							},
							{
								'duration':'1',
								'position':'1',
								'vars':{
									'x':'+=24',
									'ease':'Power2.easeOut'
								}
							}
						]
					}
				">
					<polyline class="lievo-altstroke" fill="#FDE3A7" stroke="#CE9C7B" stroke-width="2" stroke-linecap="square" stroke-miterlimit="10" points="40,11 51,11 51,53 43,53 43,43 37,43 37,11 40,11"/>
					<polyline class="lievo-altstroke" fill="#FCF4E3" stroke="#EF8B59" stroke-width="2" stroke-linecap="square" stroke-miterlimit="10" points="45,15 47,15 47,23 43,23 43,15 45,15" data-animdata="
						{
							'steps':[
								{
									'duration':'0',
									'position':'0',
									'vars':{
										'opacity':'0'
									}
								},
								{
									'duration':'0.5',
									'position':'3.5',
									'vars':{
										'opacity':'1'
									}
								}
							]
						}
					"/>
					<polyline class="lievo-altstroke" fill="#FCF4E3" stroke="#EF8B59" stroke-width="2" stroke-linecap="square" stroke-miterlimit="10" points="45,27 47,27 47,35 43,35 43,27 45,27" data-animdata="
						{
							'steps':[
								{
									'duration':'0',
									'position':'0',
									'vars':{
										'opacity':'0'
									}
								},
								{
									'duration':'0.5',
									'position':'2',
									'vars':{
										'opacity':'1'
									}
								}
							]
						}
					"/>
				</g>
			</g>
		</g>

		<g class="lievo-solidicon">
			<defs>
				<clipPath id="livicon_building_s">
					<rect class="lievo-donotdraw lievo-nohovercolor lievo-nohoverstroke" x="40" width="20" height="60"/>
				</clipPath>
			</defs>
			<g data-animdata="
				{
					'steps':[
						{
							'duration':'0',
							'position':'0',
							'vars':{
								'y':'-=70'
							}
						},
						{
							'duration':'1',
							'vars':{
								'y':'+=70',
								'ease':'Power2.easeOut'
							}
						}
					]
				}
			">
				<polyline fill="#34495E" stroke="#34495E" stroke-width="2" stroke-linecap="square" stroke-miterlimit="10" points="23,7 37,7 37,53 27,53 27,41 19,41 19,53 9,53 9,7 23,7"/>
				<polyline class="lievo-solidbg" fill="#FFFFFF" stroke="#FFFFFF" stroke-width="2" stroke-miterlimit="10" points="15,25 17,25 17,35 13,35 13,25 15,25" data-animdata="
					{
						'steps':[
							{
								'duration':'0',
								'position':'0',
								'vars':{
									'opacity':'0'
								}
							},
							{
								'duration':'0.375',
								'position':'1',
								'vars':{
									'opacity':'1'
								}
							}
						]
					}
				"/>
				<polyline class="lievo-solidbg" fill="#FFFFFF" stroke="#FFFFFF" stroke-width="2" stroke-miterlimit="10" points="23,11 25,11 25,21 21,21 21,11 23,11" data-animdata="
					{
						'steps':[
							{
								'duration':'0',
								'position':'0',
								'vars':{
									'opacity':'0'
								}
							},
							{
								'duration':'0.375',
								'position':'1.375',
								'vars':{
									'opacity':'1'
								}
							}
						]
					}
				"/>
				<polyline class="lievo-solidbg" fill="#FFFFFF" stroke="#FFFFFF" stroke-width="2" stroke-miterlimit="10" points="31,25 33,25 33,35 29,35 29,25 31,25" data-animdata="
					{
						'steps':[
							{
								'duration':'0',
								'position':'0',
								'vars':{
									'opacity':'0'
								}
							},
							{
								'duration':'0.375',
								'position':'1.75',
								'vars':{
									'opacity':'1'
								}
							}
						]
					}
				"/>
				<polyline class="lievo-solidbg" fill="#FFFFFF" stroke="#FFFFFF" stroke-width="2" stroke-miterlimit="10" points="15,11 17,11 17,21 13,21 13,11 15,11" data-animdata="
					{
						'steps':[
							{
								'duration':'0',
								'position':'0',
								'vars':{
									'opacity':'0'
								}
							},
							{
								'duration':'0.375',
								'position':'2.5',
								'vars':{
									'opacity':'1'
								}
							}
						]
					}
				"/>
				<polyline class="lievo-solidbg" fill="#FFFFFF" stroke="#FFFFFF" stroke-width="2" stroke-miterlimit="10" points="23,25 25,25 25,35 21,35 21,25 23,25" data-animdata="
					{
						'steps':[
							{
								'duration':'0',
								'position':'0',
								'vars':{
									'opacity':'0'
								}
							},
							{
								'duration':'0.375',
								'position':'2.875',
								'vars':{
									'opacity':'1'
								}
							}
						]
					}
				"/>
				<polyline class="lievo-solidbg" fill="#FFFFFF" stroke="#FFFFFF" stroke-width="2" stroke-miterlimit="10" points="31,11 33,11 33,21 29,21 29,11 31,11" data-animdata="
					{
						'steps':[
							{
								'duration':'0',
								'position':'0',
								'vars':{
									'opacity':'0'
								}
							},
							{
								'duration':'0.375',
								'position':'3.25',
								'vars':{
									'opacity':'1'
								}
							}
						]
					}
				"/>
			</g>
			<g clip-path="url(#livicon_building_s)">
				<g data-animdata="
					{
						'steps':[
							{
								'duration':'0',
								'position':'0',
								'vars':{
									'x':'-=24'
								}
							},
							{
								'duration':'1',
								'position':'1',
								'vars':{
									'x':'+=24',
									'ease':'Power2.easeOut'
								}
							}
						]
					}
				">
					<polyline fill="#34495E" stroke="#34495E" stroke-width="2" stroke-linecap="square" stroke-miterlimit="10" points="40,11 51,11 51,53 43,53 43,43 37,43 37,11 40,11"/>
					<polyline class="lievo-solidbg" fill="#FFFFFF" stroke="#FFFFFF" stroke-width="2" stroke-miterlimit="10" points="45.5,15 47,15 47,23 44,23 44,15 45.5,15" data-animdata="
						{
							'steps':[
								{
									'duration':'0',
									'position':'0',
									'vars':{
										'opacity':'0'
									}
								},
								{
									'duration':'0.375',
									'position':'2.125',
									'vars':{
										'opacity':'1'
									}
								}
							]
						}
					"/>
					<polyline class="lievo-solidbg" fill="#FFFFFF" stroke="#FFFFFF" stroke-width="2" stroke-miterlimit="10" points="45.5,27 47,27 47,35 44,35 44,27 45.5,27" data-animdata="
						{
							'steps':[
								{
									'duration':'0',
									'position':'0',
									'vars':{
										'opacity':'0'
									}
								},
								{
									'duration':'0.375',
									'position':'3.625',
									'vars':{
										'opacity':'1'
									}
								}
							]
						}
					"/>
				</g>
			</g>
		</g>
	</g>
</svg>