<svg version="1.1" xmlns="http://www.w3.org/2000/svg" xmlns:xlink="http://www.w3.org/1999/xlink" viewBox="0 0 60 60" xml:space="preserve" data-animoptions="{'duration':'1.6', 'repeat':'0', 'repeatDelay':'0.7'}">
	<g class="lievo-main">
		<g class="lievo-filledicon lievo-lineicon">
			<g data-animdata="
				{
					'steps':[
						{
							'duration':'1',
							'vars':{
								'x':'+=10',
								'y':'+=40',
								'rotation':'-=30',
								'transformOrigin':'right top',
								'ease':'Power1.easeOut'
							},
							'position':'0'
						},
						{
							'duration':'0',
							'vars':{
								'opacity':'0',
								'x':'0',
								'y':'0',
								'rotation':'0'
							}
						},
						{
							'duration':'1',
							'vars':{
								'opacity':'1'
							},
							'position':'4.5'
						}
					]
				}
			">
				<path fill="#ECF0F1" stroke="#C5D5D6" stroke-width="2" stroke-linecap="square" stroke-miterlimit="10" d="M49,51H11c-1.1,0-2-0.9-2-2V23h42v26C51,50.1,50.1,51,49,51z"/>
				<path class="lievo-likestroke lievo-altstroke" fill="#336E7B" d="M22.17,41.67c0.52,0.33,1.73,0.85,3,0.85c2.35,0,3.08-1.5,3.06-2.62c-0.02-1.9-1.73-2.71-3.5-2.71h-1.02v-1.37h1.02c1.33,0,3.02-0.69,3.02-2.29c0-1.08-0.69-2.04-2.38-2.04c-1.08,0-2.12,0.48-2.71,0.9l-0.48-1.33C22.9,30.52,24.27,30,25.73,30c2.67,0,3.88,1.58,3.88,3.23c0,1.4-0.83,2.58-2.5,3.19v0.04c1.67,0.33,3.02,1.58,3.02,3.48c0,2.17-1.69,4.06-4.94,4.06c-1.52,0-2.85-0.48-3.52-0.92L22.17,41.67z"/>
				<path class="lievo-likestroke lievo-altstroke" fill="#336E7B" d="M36.17,31.77h-0.04l-2.43,1.31l-0.37-1.44L36.38,30H38v14h-1.83V31.77z"/>
			</g>
			<g opacity="0" data-animdata="
				{
					'steps':[
						{
							'duration':'1',
							'vars':{
								'opacity':'1'
							},
							'position':'0'
						},
						{
							'duration':'1',
							'vars':{
								'x':'-=10',
								'y':'+=40',
								'rotation':'+=30',
								'transformOrigin':'left top',
								'ease':'Power1.easeOut'
							},
							'position':'+=0.5'
						}
					]
				}
			">
				<path class="lievo-donotdraw" fill="#ECF0F1" stroke="#C5D5D6" stroke-width="2" stroke-linecap="square" stroke-miterlimit="10" d="M49,51H11c-1.1,0-2-0.9-2-2V23h42v26C51,50.1,50.1,51,49,51z"/>
				<path class="lievo-donotdraw lievo-likestroke lievo-altstroke" fill="#336E7B" d="M30.17,31.77h-0.04l-2.43,1.31l-0.37-1.44L30.38,30H32v14h-1.83V31.77z"/>
			</g>
			<g opacity="0" data-animdata="
				{
					'steps':[
						{
							'duration':'1',
							'vars':{
								'opacity':'1'
							},
							'position':'1.5'
						},
						{
							'duration':'1',
							'vars':{
								'x':'+=10',
								'y':'+=40',
								'rotation':'-=30',
								'transformOrigin':'right top',
								'ease':'Power1.easeOut'
							},
							'position':'+=0.5'
						}
					]
				}
			">
				<path class="lievo-donotdraw" fill="#ECF0F1" stroke="#C5D5D6" stroke-width="2" stroke-linecap="square" stroke-miterlimit="10" d="M49,51H11c-1.1,0-2-0.9-2-2V23h42v26C51,50.1,50.1,51,49,51z"/>
				<path class="lievo-donotdraw lievo-likestroke lievo-altstroke" fill="#336E7B" d="M25.61,44v-1.14l1.46-1.42c3.52-3.34,5.1-5.12,5.13-7.2c0-1.4-0.68-2.69-2.73-2.69c-1.25,0-2.29,0.63-2.92,1.16l-0.59-1.31c0.95-0.81,2.31-1.4,3.9-1.4c2.97,0,4.21,2.03,4.21,4c0,2.54-1.84,4.6-4.74,7.39l-1.1,1.02v0.04h6.18V44H25.61z"/>
			</g>
			<g opacity="0" data-animdata="
				{
					'steps':[
						{
							'duration':'1',
							'vars':{
								'opacity':'1'
							},
							'position':'3'
						},
						{
							'duration':'1',
							'vars':{
								'opacity':'0'
							},
							'position':'+=0.5'
						}
					]
				}
			">
				<path class="lievo-donotdraw" fill="#ECF0F1" stroke="#C5D5D6" stroke-width="2" stroke-linecap="square" stroke-miterlimit="10" d="M49,51H11c-1.1,0-2-0.9-2-2V23h42v26C51,50.1,50.1,51,49,51z"/>
				<path class="lievo-donotdraw lievo-likestroke lievo-altstroke" fill="#336E7B" d="M26.27,41.67c0.52,0.33,1.73,0.85,3,0.85c2.35,0,3.08-1.5,3.06-2.62c-0.02-1.9-1.73-2.71-3.5-2.71h-1.02v-1.37h1.02c1.33,0,3.02-0.69,3.02-2.29c0-1.08-0.69-2.04-2.37-2.04c-1.08,0-2.12,0.48-2.71,0.9l-0.48-1.33C27,30.52,28.38,30,29.83,30c2.67,0,3.88,1.58,3.88,3.23c0,1.4-0.83,2.58-2.5,3.19v0.04c1.67,0.33,3.02,1.58,3.02,3.48c0,2.17-1.69,4.06-4.94,4.06c-1.52,0-2.85-0.48-3.52-0.92L26.27,41.67z"/>
			</g>
			<g>
				<polyline fill="none" stroke="#34495E" stroke-width="2" stroke-linecap="square" stroke-miterlimit="10" points="19,13 19,9 15,9 15,13"/>
				<polyline fill="none" stroke="#34495E" stroke-width="2" stroke-linecap="square" stroke-miterlimit="10" points="45,13 45,9 41,9 41,13"/>
				<path fill="#336E7B" stroke="#34495E" stroke-width="2" stroke-linecap="square" stroke-miterlimit="10" d="M49,13h-4v4h-4v-4H19v4h-4v-4h-4c-1.1,0-2,0.9-2,2v8h42v-8C51,13.9,50.1,13,49,13z"/>
			</g>
		</g>

		<g class="lievo-solidicon">
			<g>
				<polyline fill="none" stroke="#34495E" stroke-width="2" stroke-linecap="square" stroke-miterlimit="10" points="19,13 19,9 15,9 15,13"/>
				<polyline fill="none" stroke="#34495E" stroke-width="2" stroke-linecap="square" stroke-miterlimit="10" points="45,13 45,9 41,9 41,13"/>
				<path fill="#34495E" stroke="#34495E" stroke-width="2" stroke-linecap="square" stroke-miterlimit="10" d="M49,13h-4v4h-4v-4H19v4h-4v-4h-4c-1.1,0-2,0.9-2,2v6h42v-6C51,13.9,50.1,13,49,13z"/>
			</g>
			<g data-animdata="
				{
					'steps':[
						{
							'duration':'1',
							'vars':{
								'x':'+=10',
								'y':'+=40',
								'rotation':'-=30',
								'transformOrigin':'right top',
								'ease':'Power1.easeOut'
							},
							'position':'0'
						},
						{
							'duration':'0',
							'vars':{
								'opacity':'0',
								'x':'0',
								'y':'0',
								'rotation':'0'
							}
						},
						{
							'duration':'1',
							'vars':{
								'opacity':'1'
							},
							'position':'4.5'
						}
					]
				}
			">
				<path fill="#34495E" stroke="#34495E" stroke-width="2" stroke-linecap="square" stroke-miterlimit="10" d="M49,51H11c-1.1,0-2-0.9-2-2V25h42v24C51,50.1,50.1,51,49,51z"/>
				<path class="lievo-solidbg" fill="#FFFFFF" d="M22.17,41.67c0.52,0.33,1.73,0.85,3,0.85c2.35,0,3.08-1.5,3.06-2.62c-0.02-1.9-1.73-2.71-3.5-2.71h-1.02v-1.37h1.02c1.33,0,3.02-0.69,3.02-2.29c0-1.08-0.69-2.04-2.38-2.04c-1.08,0-2.12,0.48-2.71,0.9l-0.48-1.33C22.9,30.52,24.27,30,25.73,30c2.67,0,3.88,1.58,3.88,3.23c0,1.4-0.83,2.58-2.5,3.19v0.04c1.67,0.33,3.02,1.58,3.02,3.48c0,2.17-1.69,4.06-4.94,4.06c-1.52,0-2.85-0.48-3.52-0.92L22.17,41.67z"/>
				<path class="lievo-solidbg" fill="#FFFFFF" d="M36.17,31.77h-0.04l-2.43,1.31l-0.37-1.44L36.38,30H38v14h-1.83V31.77z"/>
			</g>
			<g opacity="0" data-animdata="
				{
					'steps':[
						{
							'duration':'1',
							'vars':{
								'opacity':'1'
							},
							'position':'0'
						},
						{
							'duration':'1',
							'vars':{
								'x':'-=10',
								'y':'+=40',
								'rotation':'+=30',
								'transformOrigin':'left top',
								'ease':'Power1.easeOut'
							},
							'position':'+=0.5'
						}
					]
				}
			">
				<path class="lievo-donotdraw" fill="#34495E" stroke="#34495E" stroke-width="2" stroke-linecap="square" stroke-miterlimit="10" d="M49,51H11c-1.1,0-2-0.9-2-2V25h42v24C51,50.1,50.1,51,49,51z"/>
				<path class="lievo-donotdraw lievo-solidbg" fill="#FFFFFF" d="M30.17,31.77h-0.04l-2.43,1.31l-0.37-1.44L30.38,30H32v14h-1.83V31.77z"/>
			</g>
			<g opacity="0" data-animdata="
				{
					'steps':[
						{
							'duration':'1',
							'vars':{
								'opacity':'1'
							},
							'position':'1.5'
						},
						{
							'duration':'1',
							'vars':{
								'x':'+=10',
								'y':'+=40',
								'rotation':'-=30',
								'transformOrigin':'right top',
								'ease':'Power1.easeOut'
							},
							'position':'+=0.5'
						}
					]
				}
			">
				<path class="lievo-donotdraw" fill="#34495E" stroke="#34495E" stroke-width="2" stroke-linecap="square" stroke-miterlimit="10" d="M49,51H11c-1.1,0-2-0.9-2-2V25h42v24C51,50.1,50.1,51,49,51z"/>
				<path class="lievo-donotdraw lievo-solidbg" fill="#FFFFFF" d="M25.61,44v-1.14l1.46-1.42c3.52-3.34,5.1-5.12,5.13-7.2c0-1.4-0.68-2.69-2.73-2.69c-1.25,0-2.29,0.63-2.92,1.16l-0.59-1.31c0.95-0.81,2.31-1.4,3.9-1.4c2.97,0,4.21,2.03,4.21,4c0,2.54-1.84,4.6-4.74,7.39l-1.1,1.02v0.04h6.18V44H25.61z"/>
			</g>
			<g opacity="0" data-animdata="
				{
					'steps':[
						{
							'duration':'1',
							'vars':{
								'opacity':'1'
							},
							'position':'3'
						},
						{
							'duration':'1',
							'vars':{
								'opacity':'0'
							},
							'position':'+=0.5'
						}
					]
				}
			">
				<path class="lievo-donotdraw" fill="#34495E" stroke="#34495E" stroke-width="2" stroke-linecap="square" stroke-miterlimit="10" d="M49,51H11c-1.1,0-2-0.9-2-2V25h42v24C51,50.1,50.1,51,49,51z"/>
				<path class="lievo-donotdraw lievo-solidbg" fill="#FFFFFF" d="M26.27,41.67c0.52,0.33,1.73,0.85,3,0.85c2.35,0,3.08-1.5,3.06-2.62c-0.02-1.9-1.73-2.71-3.5-2.71h-1.02v-1.37h1.02c1.33,0,3.02-0.69,3.02-2.29c0-1.08-0.69-2.04-2.37-2.04c-1.08,0-2.12,0.48-2.71,0.9l-0.48-1.33C27,30.52,28.38,30,29.83,30c2.67,0,3.88,1.58,3.88,3.23c0,1.4-0.83,2.58-2.5,3.19v0.04c1.67,0.33,3.02,1.58,3.02,3.48c0,2.17-1.69,4.06-4.94,4.06c-1.52,0-2.85-0.48-3.52-0.92L26.27,41.67z"/>
			</g>
		</g>
	</g>
</svg>