<svg version="1.1" xmlns="http://www.w3.org/2000/svg" xmlns:xlink="http://www.w3.org/1999/xlink" viewBox="0 0 60 60" xml:space="preserve" data-shift="y" data-animoptions="{'duration':'1', 'repeat':'0', 'repeatDelay':'0.5'}">
	<g class="lievo-main">
		<g class="lievo-filledicon">
			<polyline fill="#2C3E50" stroke="#2C3E50" stroke-width="2" stroke-linecap="square" stroke-linejoin="round" stroke-miterlimit="10" points="11,16 11,14 16,14 16,16" data-animdata="
				{
					'steps':[
						{
							'duration':'1',
							'position':'0',
							'vars':{
								'morphSVG':'11,16 11,16 16,16 16,16',
								'repeat':'1',
								'repeatDelay':'2',
								'yoyo':'true'
							}
						}
					]
				}
			"/>
			<path fill="#336E7B" stroke="#2C3E50" stroke-width="2" stroke-linecap="square" stroke-miterlimit="10" d="M35,12h-6c-4.05,0-1.95,4-6,4H9c-1.1,0-2,0.9-2,2v28c0,1.1,0.9,2,2,2h42c1.1,0,2-0.9,2-2V18c0-1.1-0.9-2-2-2h-4c-4.05,0-1.95-4-6-4H35z"/>
			<path fill="#B7E4F7" stroke="#2C3E50" stroke-width="2" stroke-linecap="square" stroke-miterlimit="10" d="M35,20c6.63,0,12,5.37,12,12c0,6.63-5.37,12-12,12c-6.63,0-12-5.37-12-12C23,25.37,28.37,20,35,20z"/>
			<path fill="none" stroke="#2C3E50" stroke-width="2" stroke-linecap="square" stroke-miterlimit="10" d="M35,24c4.42,0,8,3.58,8,8c0,4.42-3.58,8-8,8c-4.42,0-8-3.58-8-8C27,27.58,30.58,24,35,24z"/>
			<circle class="lievo-likestroke" fill="#F24D44" stroke="#F24D44" stroke-width="2" cx="48" cy="21" r="1"/>
			<line fill="none" stroke="#2C3E50" stroke-width="2" stroke-linecap="square" stroke-miterlimit="10" x1="19" y1="16" x2="19" y2="48"/>
		</g>

		<g class="lievo-lineicon">
			<path fill="none" stroke="#34495E" stroke-width="2" stroke-linecap="square" stroke-miterlimit="10" d="M35,12h-6c-4.05,0-1.95,4-6,4H9c-1.1,0-2,0.9-2,2v28c0,1.1,0.9,2,2,2h42c1.1,0,2-0.9,2-2V18c0-1.1-0.9-2-2-2h-4c-4.05,0-1.95-4-6-4H35z"/>
			<path fill="none" stroke="#E67E22" stroke-width="2" stroke-linecap="square" stroke-miterlimit="10" d="M35,20c6.63,0,12,5.37,12,12c0,6.63-5.37,12-12,12c-6.63,0-12-5.37-12-12C23,25.37,28.37,20,35,20z"/>
			<path class="lievo-altstroke" fill="none" stroke="#E67E22" stroke-width="2" stroke-linecap="square" stroke-miterlimit="10" d="M35,24c4.42,0,8,3.58,8,8c0,4.42-3.58,8-8,8c-4.42,0-8-3.58-8-8C27,27.58,30.58,24,35,24z"/>
			<polyline fill="none" stroke="#34495E" stroke-width="2" stroke-linecap="square" stroke-linejoin="round" stroke-miterlimit="10" points="11,16 11,14 16,14 16,16" data-animdata="
				{
					'steps':[
						{
							'duration':'1',
							'position':'0',
							'vars':{
								'morphSVG':'11,16 11,16 16,16 16,16',
								'repeat':'1',
								'repeatDelay':'2',
								'yoyo':'true'
							}
						}
					]
				}
			"/>
			<circle fill="none" stroke="#34495E" stroke-width="2" cx="48" cy="21" r="1"/>
			<line fill="none" stroke="#34495E" stroke-width="2" stroke-linecap="square" stroke-miterlimit="10" x1="19" y1="16" x2="19" y2="48"/>
		</g>

		<g class="lievo-solidicon">
			<path fill="#34495E" stroke="#34495E" stroke-width="2" stroke-linecap="square" stroke-miterlimit="10" d="M35,12h-6c-4.05,0-1.95,4-6,4H9c-1.1,0-2,0.9-2,2v28c0,1.1,0.9,2,2,2h42c1.1,0,2-0.9,2-2V18c0-1.1-0.9-2-2-2h-4c-4.05,0-1.95-4-6-4H35z"/>
			<path class="lievo-likestroke lievo-solidbg" fill="#FFFFFF" stroke="#FFFFFF" stroke-width="2" stroke-linecap="square" stroke-miterlimit="10" d="M35,21c6.07,0,11,4.93,11,11c0,6.07-4.93,11-11,11c-6.07,0-11-4.93-11-11C24,25.93,28.93,21,35,21z"/>
			<path fill="none" stroke="#34495E" stroke-width="2" stroke-linecap="square" stroke-miterlimit="10" d="M35,23c4.97,0,9,4.03,9,9c0,4.97-4.03,9-9,9c-4.97,0-9-4.03-9-9C26,27.03,30.03,23,35,23z"/>
			<polyline fill="#34495E" stroke="#34495E" stroke-width="2" stroke-linecap="square" stroke-linejoin="round" stroke-miterlimit="10" points="11,16 11,14 16,14 16,16" data-animdata="
				{
					'steps':[
						{
							'duration':'1',
							'position':'0',
							'vars':{
								'morphSVG':'11,16 11,16 16,16 16,16',
								'repeat':'1',
								'repeatDelay':'2',
								'yoyo':'true'
							}
						}
					]
				}
			"/>
			<circle class="lievo-likestroke lievo-solidbg" fill="#FFFFFF" stroke="#FFFFFF" stroke-width="2" cx="48" cy="21" r="1"/>
			<line class="lievo-solidbg" fill="none" stroke="#FFFFFF" stroke-linecap="square" stroke-miterlimit="10" x1="18.5" y1="15" x2="18.5" y2="49"/>
		</g>

		<g class="lievo-common" opacity="0" data-animdata="
			{
				'steps':[
					{
						'duration':'0',
						'position':'1',
						'vars':{
							'opacity':'1',
							'repeat':'1',
							'repeatDelay':'2.5',
							'yoyo':'true'
						}
					}
				]
			}
		">
			<defs>
				<clipPath id="livicon_camera">
					<path class="lievo-donotdraw" fill="none" stroke="none" d="M35,20c6.63,0,12,5.37,12,12c0,6.63-5.37,12-12,12c-6.63,0-12-5.37-12-12C23,25.37,28.37,20,35,20z"/>
				</clipPath>
			</defs>
			<g clip-path="url(#livicon_camera)">
				<rect class="lievo-likestroke lievo-donotdraw" x="42.36" y="19.19" transform="matrix(-0.5736 -0.8191 0.8191 -0.5736 61.7202 84.5139)" fill="#34495E" width="21" height="14" data-animdata="
					{
						'steps':[
							{
								'duration':'1',
								'position':'1',
								'vars':{
									'rotation':'+=65',
									'svgOrigin':'41.1 21.608',
									'repeat':'1',
									'repeatDelay':'0.5',
									'yoyo':'true'
								}
							}
						]
					}
				"/>
				<rect class="lievo-likestroke lievo-donotdraw" x="38.72" y="37.47" transform="matrix(0.4226 -0.9063 0.9063 0.4226 -11.8901 70.2854)" fill="#34495E" width="21" height="14" data-animdata="
					{
						'steps':[
							{
								'duration':'1',
								'position':'1',
								'vars':{
									'rotation':'+=65',
									'svgOrigin':'47.312 32',
									'repeat':'1',
									'repeatDelay':'0.5',
									'yoyo':'true'
								}
							}
						]
					}
				"/>
				<rect class="lievo-likestroke lievo-donotdraw" x="20.65" y="43.38" transform="matrix(0.9962 -0.0871 0.0871 0.9962 -4.272 2.9063)" fill="#34495E" width="21" height="14" data-animdata="
					{
						'steps':[
							{
								'duration':'1',
								'position':'1',
								'vars':{
									'rotation':'+=65',
									'svgOrigin':'41 42.492',
									'repeat':'1',
									'repeatDelay':'0.5',
									'yoyo':'true'
								}
							}
						]
					}
				"/>
				<rect class="lievo-likestroke lievo-donotdraw" x="6.74" y="30.91" transform="matrix(0.5736 0.8192 -0.8192 0.5736 38.4036 2.0397)" fill="#34495E" width="21" height="14" data-animdata="
					{
						'steps':[
							{
								'duration':'1',
								'position':'1',
								'vars':{
									'rotation':'+=65',
									'svgOrigin':'29 42.492',
									'repeat':'1',
									'repeatDelay':'0.5',
									'yoyo':'true'
								}
							}
						]
					}
				"/>
				<rect class="lievo-likestroke lievo-donotdraw" x="10.49" y="12.52" transform="matrix(-0.4227 0.9063 -0.9063 -0.4227 47.5618 8.7509)" fill="#34495E" width="21" height="14" data-animdata="
					{
						'steps':[
							{
								'duration':'1',
								'position':'1',
								'vars':{
									'rotation':'+=65',
									'svgOrigin':'22.9 32',
									'repeat':'1',
									'repeatDelay':'0.5',
									'yoyo':'true'
								}
							}
						]
					}
				"/>
				<rect class="lievo-likestroke lievo-donotdraw" x="28.35" y="6.62" transform="matrix(-0.9962 0.0872 -0.0872 -0.9962 78.7383 23.8002)" fill="#34495E" width="21" height="14" data-animdata="
					{
						'steps':[
							{
								'duration':'1',
								'position':'1',
								'vars':{
									'rotation':'+=65',
									'svgOrigin':'29 21.507',
									'repeat':'1',
									'repeatDelay':'0.5',
									'yoyo':'true'
								}
							}
						]
					}
				"/>
			</g>
		</g>
	</g>
</svg>