<svg version="1.1" xmlns="http://www.w3.org/2000/svg" xmlns:xlink="http://www.w3.org/1999/xlink" viewBox="0 0 60 60" xml:space="preserve" data-animoptions="{'duration':'0.8', 'repeat':'0', 'repeatDelay':'0.4'}">
	<g class="lievo-main">
		<g class="lievo-filledicon lievo-lineicon">
			<g data-animdata="
				{
					'steps':[
						{
							'duration':'2',
							'position':'0',
							'vars':{
								'y':'+=8',
								'ease':'Power1.easeIn'
							}
						},
						{
							'duration':'1',
							'position':'+=1',
							'vars':{
								'y':'0',
								'ease':'Power1.easeIn'
							}
						}
					]
				}
			">
				<g>
					<path fill="#34495E" stroke="#1C2A39" stroke-width="2" stroke-linecap="square" stroke-miterlimit="10" d="M53,47c0,1.1-0.9,2-2,2H9c-1.1,0-2-0.9-2-2V25h46V47z"/>
					<line class="lievo-altstroke" fill="none" stroke="#DADFE1" stroke-width="2" stroke-linecap="square" stroke-miterlimit="10" x1="13" y1="39" x2="47" y2="39"/>
					<line class="lievo-altstroke" fill="none" stroke="#DADFE1" stroke-width="2" stroke-linecap="square" stroke-miterlimit="10" x1="13" y1="33" x2="47" y2="33"/>
					<g>
						<rect x="7" y="19" fill="#ECF0F1" stroke="#1C2A39" stroke-width="2" stroke-linecap="square" stroke-miterlimit="10" width="46" height="6"/>
						<line class="lievo-savelinecap" fill="none" stroke="#1C2A39" stroke-width="2" stroke-linecap="round" stroke-miterlimit="10" x1="45" y1="19" x2="41" y2="25"/>
						<line class="lievo-savelinecap" fill="none" stroke="#1C2A39" stroke-width="2" stroke-linecap="round" stroke-miterlimit="10" x1="33" y1="19" x2="29" y2="25"/>
						<line class="lievo-savelinecap" fill="none" stroke="#1C2A39" stroke-width="2" stroke-linecap="round" stroke-miterlimit="10" x1="21" y1="19" x2="17" y2="25"/>
					</g>
				</g>
				<g data-animdata="
					{
						'steps':[
							{
								'duration':'2',
								'position':'0',
								'vars':{
									'rotation':'-26',
									'transformOrigin':'left bottom',
									'ease':'Power1.easeIn'
								}
							},
							{
								'duration':'1',
								'position':'+=1',
								'vars':{
									'rotation':'0',
									'ease':'Power1.easeIn'
								}
							}
						]
					}
				">
					<path fill="#ECF0F1" stroke="#1C2A39" stroke-width="2" stroke-linecap="square" stroke-miterlimit="10" d="M53,19H7v-4c0-1.1,0.9-2,2-2h42c1.1,0,2,0.9,2,2V19z"/>
					<line class="lievo-savelinecap" fill="none" stroke="#1C2A39" stroke-width="2" stroke-linecap="round" stroke-miterlimit="10" x1="17" y1="13" x2="21" y2="19"/>
					<line class="lievo-savelinecap" fill="none" stroke="#1C2A39" stroke-width="2" stroke-linecap="round" stroke-miterlimit="10" x1="29" y1="13" x2="33" y2="19"/>
					<line class="lievo-savelinecap" fill="none" stroke="#1C2A39" stroke-width="2" stroke-linecap="round" stroke-miterlimit="10" x1="41" y1="13" x2="45" y2="19"/>
				</g>
			</g>
		</g>

		<g class="lievo-solidicon">
			<g data-animdata="
				{
					'steps':[
						{
							'duration':'2',
							'position':'0',
							'vars':{
								'y':'+=8',
								'ease':'Power1.easeIn'
							}
						},
						{
							'duration':'1',
							'position':'+=1',
							'vars':{
								'y':'0',
								'ease':'Power1.easeIn'
							}
						}
					]
				}
			">
				<g>
					<path fill="#34495E" stroke="#34495E" stroke-width="2" stroke-linecap="square" stroke-miterlimit="10" d="M53,47c0,1.1-0.9,2-2,2H9c-1.1,0-2-0.9-2-2V25h46V47z"/>
					<line class="lievo-solidbg" fill="none" stroke="#FFFFFF" stroke-width="2" stroke-linecap="square" stroke-miterlimit="10" x1="13" y1="39" x2="47" y2="39"/>
					<line class="lievo-solidbg" fill="none" stroke="#FFFFFF" stroke-width="2" stroke-linecap="square" stroke-miterlimit="10" x1="13" y1="33" x2="47" y2="33"/>
					<g>
						<rect x="7" y="19" fill="#34495E" stroke="#34495E" stroke-width="2" stroke-linecap="square" stroke-miterlimit="10" width="46" height="6"/>
						<line class="lievo-savelinecap lievo-solidbg lievo-donotdraw" fill="none" stroke="#FFFFFF" stroke-width="2" stroke-linecap="round" stroke-miterlimit="10" x1="45" y1="19" x2="41" y2="25"/>
						<line class="lievo-savelinecap lievo-solidbg lievo-donotdraw" fill="none" stroke="#FFFFFF" stroke-width="2" stroke-linecap="round" stroke-miterlimit="10" x1="33" y1="19" x2="29" y2="25"/>
						<line class="lievo-savelinecap lievo-solidbg lievo-donotdraw" fill="none" stroke="#FFFFFF" stroke-width="2" stroke-linecap="round" stroke-miterlimit="10" x1="21" y1="19" x2="17" y2="25"/>
						<line class="lievo-savelinecap lievo-solidbg lievo-donotdraw" fill="none" stroke="#FFFFFF" stroke-width="2" stroke-linecap="square" stroke-miterlimit="10" x1="5" y1="25" x2="55" y2="25"/>
					</g>
				</g>
				<g data-animdata="
					{
						'steps':[
							{
								'duration':'2',
								'position':'0',
								'vars':{
									'rotation':'-26',
									'transformOrigin':'left bottom',
									'ease':'Power1.easeIn'
								}
							},
							{
								'duration':'1',
								'position':'+=1',
								'vars':{
									'rotation':'0',
									'ease':'Power1.easeIn'
								}
							}
						]
					}
				">
					<path fill="#34495E" stroke="#34495E" stroke-width="2" stroke-linecap="square" stroke-miterlimit="10" d="M53,19H7v-4c0-1.1,0.9-2,2-2h42c1.1,0,2,0.9,2,2V19z"/>
					<line class="lievo-savelinecap lievo-solidbg lievo-donotdraw" fill="none" stroke="#FFFFFF" stroke-width="2" stroke-linecap="round" stroke-miterlimit="10" x1="16" y1="11" x2="21" y2="19"/>
					<line class="lievo-savelinecap lievo-solidbg lievo-donotdraw" fill="none" stroke="#FFFFFF" stroke-width="2" stroke-linecap="round" stroke-miterlimit="10" x1="28" y1="11" x2="33" y2="19"/>
					<line class="lievo-savelinecap lievo-solidbg lievo-donotdraw" fill="none" stroke="#FFFFFF" stroke-width="2" stroke-linecap="round" stroke-miterlimit="10" x1="40" y1="11" x2="45" y2="19"/>
					<line class="lievo-savelinecap lievo-solidbg lievo-donotdraw" fill="none" stroke="#FFFFFF" stroke-width="2" stroke-linecap="square" stroke-miterlimit="10" x1="5" y1="19" x2="55" y2="19"/>
				</g>
			</g>
		</g>

		<g class="lievo-common">
			<polygon class="lievo-likestroke lievo-altstroke lievo-donotdraw" fill="#34495E" points="46,18.52 46.15,18.84 46.5,18.89 46.25,19.13 46.31,19.48 46,19.31 45.69,19.48 45.75,19.13 45.5,18.89 45.85,18.84" opacity="0" data-animdata="
				{
					'steps':[
						{
							'duration':'0',
							'position':'4',
							'vars':{
								'opacity':'1'
							}
						},
						{
							'duration':'1',
							'vars':{
								'scale':'40',
								'transformOrigin':'center center'
							}
						},
						{
							'duration':'0.5',
							'position':'4.5',
							'vars':{
								'opacity':'0'
							}
						},
						{
							'duration':'0',
							'vars':{
								'scale':'1'
							}
						}
					]
				}
			"/>
		</g>
	</g>
</svg>
