<svg version="1.1" xmlns="http://www.w3.org/2000/svg" xmlns:xlink="http://www.w3.org/1999/xlink" viewBox="0 0 60 60" xml:space="preserve" data-shift="xy" data-animoptions="{'duration':'2', 'repeat':'0', 'repeatDelay':'0.5'}">
	<g class="lievo-main">
		<g>
			<g class="lievo-common">
				<path fill="#ECF0F1" stroke="#34495E" stroke-width="2" stroke-linecap="square" stroke-miterlimit="10" d="M30,16C17.85,16,8,25.85,8,38c0,2.08,0.3,4.09,0.84,6h42.33c0.54-1.91,0.83-3.92,0.83-6C52,25.85,42.15,16,30,16z"/>
				<line class="lievo-solidbg" fill="none" stroke="#34495E" stroke-width="2" stroke-linecap="square" stroke-miterlimit="10" x1="12" y1="38" x2="14" y2="38"/>
				<line class="lievo-solidbg" fill="none" stroke="#34495E" stroke-width="2" stroke-linecap="square" stroke-miterlimit="10" x1="13.37" y1="31.11" x2="14.29" y2="31.5"/>
				<line class="lievo-solidbg" fill="none" stroke="#34495E" stroke-width="2" stroke-linecap="square" stroke-miterlimit="10" x1="17.27" y1="25.27" x2="18.69" y2="26.69"/>
				<line class="lievo-solidbg" fill="none" stroke="#34495E" stroke-width="2" stroke-linecap="square" stroke-miterlimit="10" x1="23.11" y1="21.37" x2="23.49" y2="22.29"/>
				<line class="lievo-solidbg" fill="none" stroke="#34495E" stroke-width="2" stroke-linecap="square" stroke-miterlimit="10" x1="30" y1="20" x2="30" y2="22"/>
				<line class="lievo-solidbg" fill="none" stroke="#34495E" stroke-width="2" stroke-linecap="square" stroke-miterlimit="10" x1="36.89" y1="21.37" x2="36.51" y2="22.29"/>
				<line class="lievo-solidbg" fill="none" stroke="#34495E" stroke-width="2" stroke-linecap="square" stroke-miterlimit="10" x1="42.73" y1="25.27" x2="41.31" y2="26.68"/>
				<line class="lievo-altstroke lievo-solidbg" fill="none" stroke="#C0392B" stroke-width="2" stroke-linecap="square" stroke-miterlimit="10" x1="46.63" y1="31.11" x2="45.71" y2="31.49"/>
				<line class="lievo-altstroke lievo-solidbg" fill="none" stroke="#C0392B" stroke-width="2" stroke-linecap="square" stroke-miterlimit="10" x1="48" y1="38" x2="46" y2="38"/>
				<path class="lievo-savelinecap lievo-solidbg" fill="none" stroke="#34495E" stroke-width="2" stroke-linecap="round" stroke-linejoin="round" stroke-miterlimit="10" d="
				M30.83,38.56c-0.31,0.46-0.93,0.58-1.39,0.27c-0.46-0.31-9.39-7.54-9.39-7.54s10.05,5.57,10.51,5.88C31.02,37.48,31.14,38.1,30.83,38.56z" data-animdata="
					{
						'steps':[
							{
								'duration':'4',
								'vars':{
									'rotation':'+=116',
									'svgOrigin':'30 38',
									'force3D':'true',
									'ease':'Power2.easeInOut'
								},
								'position':'0'
							},
							{
								'duration':'1',
								'position':'+=0',
								'vars':{
									'rotation':'-=10',
									'repeat':'3',
									'repeatDelay':'0.5',
									'yoyo':'true'
								}
							},
							{
								'duration':'6',
								'vars':{
									'rotation':'0',
									'ease':'Power2.easeInOut'
								}
							}
						]
					}
				"/>
			</g>
		</g>
	</g>
</svg>