<svg version="1.1" xmlns="http://www.w3.org/2000/svg" xmlns:xlink="http://www.w3.org/1999/xlink" viewBox="0 0 60 60" xml:space="preserve" data-animoptions="{'duration':'2', 'repeat':'0', 'repeatDelay':'0.5'}">
	<g class="lievo-main">
		<g class="lievo-filledicon">
			<polygon fill="#ECF0F1" stroke="#34495E" stroke-width="2" stroke-linecap="square" stroke-miterlimit="10" points="37,51 23,51 25,45 35,45"/>
			<line fill="none" stroke="#34495E" stroke-width="2" stroke-linecap="square" stroke-miterlimit="10" x1="21" y1="51" x2="39" y2="51"/>
			<path stroke="#34495E" stroke-width="0" fill="#ECF0F1" d="M51,45H9c-1.1,0-2-0.9-2-2V11c0-1.1,0.9-2,2-2h42c1.1,0,2,0.9,2,2v32C53,44.1,52.1,45,51,45z"/>
			<circle class="lievo-likestroke" fill="#34495E" cx="30" cy="41" r="2"/>
			<defs>
				<clipPath id="livicon_desktop_f">
					<path class="lievo-donotdraw lievo-nohovercolor lievo-nohoverstroke" d="M7,37V11c0-1.1,0.9-2,2-2h42c1.1,0,2,0.9,2,2v26H7z"/>
				</clipPath>
			</defs>
			<g clip-path="url(#livicon_desktop_f)">
				<rect fill="#336E7B" x="6" y="8" stroke="#34495E" stroke-width="0" stroke-linecap="square" stroke-miterlimit="10" width="48" height="30"/>
				<rect class="lievo-donotdraw lievo-likestroke" fill="#AEA8D3" x="6" y="8" width="48" height="30" opacity="0" data-animdata="
					{
						'steps':[
							{
								'duration':'0',
								'position':'4',
								'vars':{
									'opacity':'1',
									'scale':'0.001',
									'transformOrigin':'left bottom'
								}
							},
							{
								'duration':'2',
								'vars':{
									'scale':'1',
									'ease':'Power1.easeOut'
								}
							},
							{
								'duration':'1',
								'position':'+=2',
								'vars':{
									'opacity':'0'
								}
							}
						]
					}
				"/>
			</g>
			<line fill="none" stroke="#34495E" stroke-width="2" stroke-linecap="square" stroke-miterlimit="10" x1="7" y1="37" x2="53" y2="37"/>
			<path fill="none" stroke="#34495E" stroke-width="2" stroke-linecap="square" stroke-miterlimit="10" d="M51,45H9c-1.1,0-2-0.9-2-2V11c0-1.1,0.9-2,2-2h42c1.1,0,2,0.9,2,2v32C53,44.1,52.1,45,51,45z"/>
		</g>

		<g class="lievo-lineicon">
			<polygon fill="none" stroke="#34495E" stroke-width="2" stroke-linecap="square" stroke-miterlimit="10" points="37,51 23,51 25,45 35,45"/>
			<line fill="none" stroke="#34495E" stroke-width="2" stroke-linecap="square" stroke-miterlimit="10" x1="21" y1="51" x2="39" y2="51"/>
			<circle class="lievo-likestroke lievo-altstroke" fill="#34495E" cx="30" cy="41" r="2"/>
			<defs>
				<clipPath id="livicon_desktop_l">
					<path class="lievo-donotdraw lievo-nohovercolor lievo-nohoverstroke" d="M7,37V11c0-1.1,0.9-2,2-2h42c1.1,0,2,0.9,2,2v26H7z"/>
				</clipPath>
			</defs>
			<g clip-path="url(#livicon_desktop_l)">
				<g opacity="0" data-animdata="
					{
						'steps':[
							{
								'duration':'0',
								'position':'4',
								'vars':{
									'opacity':'1',
									'scale':'0.001',
									'transformOrigin':'left bottom'
								}
							},
							{
								'duration':'2',
								'vars':{
									'scale':'1',
									'ease':'Power1.easeOut'
								}
							},
							{
								'duration':'1',
								'position':'+=2',
								'vars':{
									'opacity':'0'
								}
							}
						]
					}
				">
					<rect class="lievo-donotdraw lievo-likestroke lievo-altstroke" x="6" y="8" opacity="0.5" fill="#34495E" width="48" height="30"/>
				</g>
			</g>
			<line fill="none" stroke="#34495E" stroke-width="2" stroke-linecap="square" stroke-miterlimit="10" x1="7" y1="37" x2="53" y2="37"/>
			<path fill="none" stroke="#34495E" stroke-width="2" stroke-linecap="square" stroke-miterlimit="10" d="M51,45H9c-1.1,0-2-0.9-2-2V11c0-1.1,0.9-2,2-2h42c1.1,0,2,0.9,2,2v32C53,44.1,52.1,45,51,45z"/>
		</g>

		<g class="lievo-solidicon">
			<polygon fill="#34495E" stroke="#34495E" stroke-width="2" stroke-linecap="square" stroke-miterlimit="10" points="37,51 23,51 25,45 35,45"/>
			<line fill="#34495E" stroke="#34495E" stroke-width="2" stroke-linecap="square" stroke-miterlimit="10" x1="21" y1="51" x2="39" y2="51"/>
			<path fill="#34495E" stroke="#34495E" stroke-width="2" stroke-linecap="square" stroke-miterlimit="10" d="M51,45H9c-1.1,0-2-0.9-2-2V11c0-1.1,0.9-2,2-2h42c1.1,0,2,0.9,2,2v32C53,44.1,52.1,45,51,45z"/>
			<circle class="lievo-solidbg" fill="#FFFFFF" cx="30" cy="42" r="2"/>
			<defs>
				<clipPath id="livicon_desktop_s">
					<path class="lievo-donotdraw lievo-nohovercolor lievo-nohoverstroke" d="M51,38H9V11h42V38z"/>
				</clipPath>
			</defs>
			<g clip-path="url(#livicon_desktop_s)">
				<rect class="lievo-solidbg" x="6" y="8" fill="#FFFFFF" width="48" height="33"/>
				<g opacity="0" data-animdata="
					{
						'steps':[
							{
								'duration':'0',
								'position':'4',
								'vars':{
									'opacity':'1',
									'scale':'0.001',
									'transformOrigin':'left bottom'
								}
							},
							{
								'duration':'2',
								'vars':{
									'scale':'1',
									'ease':'Power1.easeOut'
								}
							},
							{
								'duration':'1',
								'position':'+=2',
								'vars':{
									'opacity':'0'
								}
							}
						]
					}
				">
					<rect x="6" y="8" fill="#34495E" width="48" height="33" opacity="0.5"/>
				</g>
			</g>
		</g>

		<g class="lievo-common" opacity="0" data-animdata="
			{
				'steps':[
					{
						'duration':'1',
						'position':'0',
						'vars':{
							'opacity':'1',
							'repeat':'1',
							'repeatDelay':'3',
							'yoyo':'true'
						}
					}
				]
			}
		">
			<rect class="lievo-donotdraw lievo-likestroke" x="10" y="12" fill="#82CEF9" width="4" height="4"/>
			<rect class="lievo-donotdraw lievo-likestroke" x="10" y="18" fill="#9DD898" width="4" height="4"/>
			<rect class="lievo-donotdraw lievo-likestroke" x="10" y="24" fill="#F9E5A0" width="4" height="4"/>
			<rect class="lievo-donotdraw lievo-likestroke lievo-altstroke" x="10" y="30" fill="#AEA8D3" width="4" height="4" data-animdata="
				{
					'steps':[
						{
							'duration':'0.5',
							'position':'2',
							'vars':{
								'scale':'0.5',
								'transformOrigin':'center center',
								'repeat':'1',
								'repeatDelay':'0',
								'yoyo':'true'
							}
						}
					]
				}
			"/>
		</g>
	</g>
</svg>