<svg version="1.1" xmlns="http://www.w3.org/2000/svg" xmlns:xlink="http://www.w3.org/1999/xlink" viewBox="0 0 60 60" xml:space="preserve" data-animoptions="{'duration':'1.5', 'repeat':'0', 'repeatDelay':'0.4'}">
	<g class="lievo-main">
		<g class="lievo-filledicon lievo-lineicon" data-animdata="
			{
				'steps':[
					{
						'duration':'1',
						'position':'0',
						'vars':{
							'rotation':'-=3',
							'svgOrigin':'30 7'
						}
					},
					{
						'duration':'2',
						'vars':{
							'rotation':'+=6',
							'repeat':'4',
							'repeatDelay':'0',
							'yoyo':'true'
						}
					},
					{
						'duration':'1',
						'vars':{
							'rotation':'0'
						}
					},
					{
						'duration':'8',
						'vars':{
							'y':'+=70'
						}
					},
					{
						'duration':'0',
						'vars':{
							'opacity':'0'
						}
					},
					{
						'duration':'0',
						'vars':{
							'scale':'0.001',
							'transformOrigin':'center top',
							'opacity':'1',
							'y':'0'
						}
					},
					{
						'duration':'14',
						'position':'+=4',
						'vars':{
							'scale':'1',
							'transformOrigin':'center top',
							'ease':'Power2.easeOut'
						}
					}
				]
			}
		">
			<path fill="#a7ebfd" stroke="#39D5FF" stroke-width="2" stroke-linecap="square" stroke-miterlimit="10" d="M30,53c-8.28,0-15-6.72-15-15c0-9,13-23,14.68-30.5c0.12-0.54,0.51-0.54,0.63,0C32,15,45,29,45,38C45,46.28,38.28,53,30,53z"/>
			<path class="lievo-altstroke lievo-savelinecap" fill="none" stroke="#ebf9fd" stroke-width="2" stroke-linecap="round" stroke-linejoin="round" stroke-miterlimit="10" d="M27.68,47.04c-3.33-0.76-5.96-3.37-6.75-6.69"/>
		</g>
		<g class="lievo-solidicon" data-animdata="
			{
				'steps':[
					{
						'duration':'1',
						'position':'0',
						'vars':{
							'rotation':'-=3',
							'svgOrigin':'30 7'
						}
					},
					{
						'duration':'2',
						'vars':{
							'rotation':'+=6',
							'repeat':'4',
							'repeatDelay':'0',
							'yoyo':'true'
						}
					},
					{
						'duration':'1',
						'vars':{
							'rotation':'0'
						}
					},
					{
						'duration':'8',
						'vars':{
							'y':'+=70'
						}
					},
					{
						'duration':'0',
						'vars':{
							'opacity':'0'
						}
					},
					{
						'duration':'0',
						'vars':{
							'scale':'0.001',
							'transformOrigin':'center top',
							'opacity':'1',
							'y':'0'
						}
					},
					{
						'duration':'14',
						'position':'+=4',
						'vars':{
							'scale':'1',
							'transformOrigin':'center top',
							'ease':'Power2.easeOut'
						}
					}
				]
			}
		">
			<path fill="#34495E" stroke="#34495E" stroke-width="2" stroke-linecap="square" stroke-miterlimit="10" d="M30,53c-8.28,0-15-6.72-15-15c0-9,13-23,14.68-30.5c0.12-0.54,0.51-0.54,0.63,0C32,15,45,29,45,38C45,46.28,38.28,53,30,53z"/>
			<path class="lievo-solidbg lievo-savelinecap" fill="none" stroke="#FFFFFF" stroke-width="3" stroke-linecap="round" stroke-linejoin="round" stroke-miterlimit="10" d="M27.68,47.04c-3.33-0.76-5.96-3.37-6.75-6.69"/>
		</g>
	</g>
</svg>