<svg version="1.1" xmlns="http://www.w3.org/2000/svg" xmlns:xlink="http://www.w3.org/1999/xlink" viewBox="0 0 60 60" xml:space="preserve" data-shift="" data-animoptions="{'duration':'1', 'repeat':'0', 'repeatDelay':'0.5'}">
	<g class="lievo-main">
		<g class="lievo-filledicon lievo-lineicon ">
			<g data-animdata="
				{
					'steps':[
						{
							'duration':'0.5',
							'vars':{
								'x':'+=4',
								'ease':'none'
							},
							'position':'2'
						},
						{
							'duration':'1',
							'vars':{
								'x':'-=8',
								'repeat':'3',
								'repeatDelay':'0',
								'yoyo':'true',
								'ease':'none'
							}
						},
						{
							'duration':'0.5',
							'vars':{
								'x':'0',
								'ease':'none'
							}
						}
					]
				}
			">
				<path class="lievo-savelinecap" fill="#f0c7b1" stroke="#daa488" stroke-width="2" stroke-linecap="round" stroke-linejoin="round" d="M11,31v-3.5c0.73-0.1,1.28-0.17,1.82-0.41c1.69-0.76,3.89-4.75,7.61-6.69c5.22-2.72,7.46-12.4,10.17-9.68c1.46,1.46,1.71,7.91-4.7,14.03C25.8,24.83,25.87,25,26,25c2,0,23,0,23,0c5.52,0,5.21,5.89,0,6H35.2c-0.48,0.01-0.2-0.04-0.2,0c0.01,0.24,4.45,0.6,3.72,3.63c-0.77,3.17-4.6,1.72-4.65,1.95c-0.02,0.1,3.43,0.38,2.44,3.63c-0.58,1.92-3.13,1.61-3.21,1.8c-0.05,0.12,2.07,1.06,1,2.89c-1.4,2.41-8.3,2.2-13.96,2.09c-2.96-0.06-5-1.51-9.33-2.19V31z" data-animdata="
					{
						'steps':[
							{
								'duration':'0',
								'vars':{
									'path':'M11,31v-3.5c0.73-0.1,1.28-0.17,1.82-0.41c1.69-0.76,3.89-4.75,7.61-6.69c5.22-2.72,7.46-12.4,10.17-9.68c1.46,1.46,1.71,7.91-4.7,14.03C25.8,24.83,25.87,25,26,25c2,0,10,0,10,0c5.52,0,5.21,5.89,0,6h-0.8c-0.48,0.01-0.2-0.04-0.2,0c0.01,0.24,4.45,0.6,3.72,3.63c-0.77,3.17-4.6,1.72-4.65,1.95c-0.02,0.1,3.43,0.38,2.44,3.63c-0.58,1.92-3.13,1.61-3.21,1.8c-0.05,0.12,2.07,1.06,1,2.89c-1.4,2.41-8.3,2.2-13.96,2.09c-2.96-0.06-5-1.51-9.33-2.19V31z'
								},
								'position':'0'
							},
							{
								'duration':'1',
								'vars':{
									'path':'M11,31v-3.5c0.73-0.1,1.28-0.17,1.82-0.41c1.69-0.76,3.89-4.75,7.61-6.69c5.22-2.72,7.46-12.4,10.17-9.68c1.46,1.46,1.71,7.91-4.7,14.03C25.8,24.83,25.87,25,26,25c2,0,23,0,23,0c5.52,0,5.21,5.89,0,6H35.2c-0.48,0.01-0.2-0.04-0.2,0c0.01,0.24,4.45,0.6,3.72,3.63c-0.77,3.17-4.6,1.72-4.65,1.95c-0.02,0.1,3.43,0.38,2.44,3.63c-0.58,1.92-3.13,1.61-3.21,1.8c-0.05,0.12,2.07,1.06,1,2.89c-1.4,2.41-8.3,2.2-13.96,2.09c-2.96-0.06-5-1.51-9.33-2.19V31z'
								},
								'position':'+=0.7'
							}
						]
					}
				"/>
				<rect class="lievo-altstroke" fill="#336E7B" stroke="#34495E" stroke-width="2" stroke-linecap="square" stroke-miterlimit="10"  x="7" y="25" width="4" height="22"/>
			</g>
		</g>

		<g class="lievo-solidicon">
			<g data-animdata="
				{
					'steps':[
						{
							'duration':'0.5',
							'vars':{
								'x':'+=4',
								'ease':'none'
							},
							'position':'2'
						},
						{
							'duration':'1',
							'vars':{
								'x':'-=8',
								'repeat':'3',
								'repeatDelay':'0',
								'yoyo':'true',
								'ease':'none'
							}
						},
						{
							'duration':'0.5',
							'vars':{
								'x':'0',
								'ease':'none'
							}
						}
					]
				}
			">
				<path class="lievo-savelinecap" fill="#E9E7D0" stroke="#34495E" stroke-width="2" stroke-linecap="round" stroke-linejoin="round" d="M14,30.08V27c1.69-0.76,3.71-4.66,7.43-6.6c5.22-2.72,7.46-12.4,10.17-9.68c1.46,1.46,1.71,7.91-4.7,14.03C26.8,24.83,26.87,25,27,25c2,0,22,0,22,0c5.52,0,5.21,5.89,0,6H35.2c-0.48,0.01-0.2-0.04-0.2,0c0.01,0.24,4.45,0.6,3.72,3.63c-0.77,3.17-4.6,1.72-4.65,1.95c-0.02,0.1,3.43,0.38,2.44,3.63c-0.58,1.92-3.13,1.61-3.21,1.8c-0.05,0.12,2.07,1.06,1,2.89c-1.4,2.41-7.3,2.2-12.96,2.09c-2.41-0.05-4.4-1.26-7.33-1.99V30.08z" data-animdata="
					{
						'steps':[
							{
								'duration':'0',
								'vars':{
									'path':'M14,30.08V27c1.69-0.76,3.71-4.66,7.43-6.6c5.22-2.72,7.46-12.4,10.17-9.68c1.46,1.46,1.71,7.91-4.7,14.03C26.8,24.83,26.87,25,27,25c2,0,9,0,9,0c5.52,0,5.21,5.89,0,6h-0.8c-0.48,0.01-0.2-0.04-0.2,0c0.01,0.24,4.45,0.6,3.72,3.63c-0.77,3.17-4.6,1.72-4.65,1.95c-0.02,0.1,3.43,0.38,2.44,3.63c-0.58,1.92-3.13,1.61-3.21,1.8c-0.05,0.12,2.07,1.06,1,2.89c-1.4,2.41-7.3,2.2-12.96,2.09c-2.41-0.05-4.4-1.26-7.33-1.99V30.08z'
								},
								'position':'0'
							},
							{
								'duration':'1',
								'vars':{
									'path':'M14,30.08V27c1.69-0.76,3.71-4.66,7.43-6.6c5.22-2.72,7.46-12.4,10.17-9.68c1.46,1.46,1.71,7.91-4.7,14.03C26.8,24.83,26.87,25,27,25c2,0,22,0,22,0c5.52,0,5.21,5.89,0,6H35.2c-0.48,0.01-0.2-0.04-0.2,0c0.01,0.24,4.45,0.6,3.72,3.63c-0.77,3.17-4.6,1.72-4.65,1.95c-0.02,0.1,3.43,0.38,2.44,3.63c-0.58,1.92-3.13,1.61-3.21,1.8c-0.05,0.12,2.07,1.06,1,2.89c-1.4,2.41-7.3,2.2-12.96,2.09c-2.41-0.05-4.4-1.26-7.33-1.99V30.08z'
								},
								'position':'+=0.7'
							}
						]
					}
				"/>
				<rect fill="#34495E" stroke="#34495E" stroke-width="2" stroke-linecap="square" stroke-miterlimit="10"  x="7" y="25" width="4" height="22"/>
			</g>
		</g>
	</g>
</svg>