<svg version="1.1" xmlns="http://www.w3.org/2000/svg" xmlns:xlink="http://www.w3.org/1999/xlink" viewBox="0 0 60 60" xml:space="preserve" data-animoptions="{'duration':'0.5', 'repeat':'1', 'repeatDelay':'0'}">
	<g class="lievo-main">
		<g class="lievo-common">
			<defs>
				<clipPath id="livicon_handcuffs_left">
					<path class="lievo-donotdraw lievo-nohovercolor lievo-nohoverstroke" d="M15,48h16V17h-4l-3.17,9.3C17.95,23.15,9,24.31,9,31c0,3.31,2.68,6,6,6c1.1,0,2,0.9,2,2s-0.9,2-2,2V48z"/>
				</clipPath>
				<clipPath id="livicon_handcuffs_right">
					<path class="lievo-donotdraw lievo-nohovercolor lievo-nohoverstroke" d="M45,48H29V17h4l3.17,9.3C42.05,23.15,51,24.31,51,31c0,3.31-2.68,6-6,6c-1.1,0-2,0.9-2,2s0.9,2,2,2V48z"/>
				</clipPath>
			</defs>

			<path class="lievo-savelinecap lievo-altstroke" fill="none" stroke="#2C3E50" stroke-width="2" stroke-linecap="round" stroke-miterlimit="10" d="M23,18c4.27-5.33,9.73-5.33,14,0" data-animdata="
				{
					'steps':[
						{
							'duration':'2',
							'position':'0',
							'vars':{
								'morphSVG':{
									'shape':'M24.96,18.95C28,12,32,12,35.04,18.95',
								'ease':'Power2.easeIn'
								}
							}
						},
						{
							'duration':'2',
							'position':'+=1',
							'vars':{
								'morphSVG':{
									'shape':'M23,18c4.27-5.33,9.73-5.33,14,0',
								'ease':'Power1.easeOut'
								}
							}
						}
					]
				}
			"/>

			<g data-animdata="
				{
					'steps':[
						{
							'duration':'2',
							'position':'0',
							'vars':{
								'rotation':'-9',
								'svgOrigin':'30 6',
								'force3D':'true',
								'ease':'Power2.easeIn'
							}
						},
						{
							'duration':'2',
							'position':'+=1',
							'vars':{
								'rotation':'0',
								'ease':'Power1.easeOut'
							}
						}
					]
				}
			">
				<g clip-path="url(#livicon_handcuffs_left)">
					<path fill="#306B75" stroke="#283A49" stroke-width="2" stroke-linecap="square" stroke-miterlimit="10" d="M21,20h-6v5c3.32,0,6,2.69,6,6c0,3.31-2.68,6-6,6v4c5.53,0,10-4.48,10-10c0-1.7-0.42-3.3-1.17-4.7L21,20z"/>
				</g>
				<path fill="#336E7B" stroke="#2C3E50" stroke-width="2" stroke-linecap="square" stroke-miterlimit="10" d="M19,16l7,4l-2.17,6.3C17.95,23.15,9,24.31,9,31c0,3.31,2.68,6,6,6c1.1,0,2,0.9,2,2s-0.9,2-2,2C9.47,41,5,36.52,5,31c0-5.52,4.47-10,10-10L19,16z"/>
			</g>

			<g data-animdata="
				{
					'steps':[
						{
							'duration':'2',
							'position':'0',
							'vars':{
								'rotation':'9',
								'svgOrigin':'30 6',
								'force3D':'true',
								'ease':'Power2.easeIn'
							}
						},
						{
							'duration':'2',
							'position':'+=1',
							'vars':{
								'rotation':'0',
								'ease':'Power1.easeOut'
							}
						}
					]
				}
			">
				<g clip-path="url(#livicon_handcuffs_right)">
					<path fill="#306B75" stroke="#283A49" stroke-width="2" stroke-linecap="square" stroke-miterlimit="10" d="M39,20h6v5c-3.32,0-6,2.69-6,6c0,3.31,2.68,6,6,6v4c-5.53,0-10-4.48-10-10c0-1.7,0.42-3.3,1.17-4.7L39,20z"/>
				</g>
				<path fill="#336E7B" stroke="#2C3E50" stroke-width="2" stroke-linecap="square" stroke-miterlimit="10" d="M41,16l-7,4l2.17,6.3C42.05,23.15,51,24.31,51,31c0,3.31-2.68,6-6,6c-1.1,0-2,0.9-2,2s0.9,2,2,2c5.53,0,10-4.48,10-10c0-5.52-4.47-10-10-10L41,16z"/>
			</g>
			
			<g>
				<line class="lievo-donotdraw lievo-altstroke" fill="none" stroke="#2C3E50" stroke-width="2" stroke-linecap="square" stroke-miterlimit="10" x1="30" y1="43" x2="30" y2="51" opacity="0" data-animdata="
					{
						'steps':[
							{
								'duration':'0',
								'position':'2',
								'vars':{
									'opacity':'1',
									'drawSVG':'0% 0%'
								}
							},
							{
								'duration':'1',
								'position':'+=0',
								'vars':{
									'drawSVG':'0% 100%'
								}
							},
							{
								'duration':'1',
								'position':'+=0',
								'vars':{
									'drawSVG':'100% 100%'
								}
							},
							{
								'duration':'0',
								'vars':{
									'opacity':'0',
									'drawSVG':'0% 0%'
								}
							}
						]
					}
				"/>
				<line class="lievo-donotdraw lievo-altstroke" fill="none" stroke="#2C3E50" stroke-width="2" stroke-linecap="square" stroke-miterlimit="10" x1="33" y1="43" x2="37" y2="51" opacity="0" data-animdata="
					{
						'steps':[
							{
								'duration':'0',
								'position':'2',
								'vars':{
									'opacity':'1',
									'drawSVG':'0% 0%'
								}
							},
							{
								'duration':'1',
								'position':'+=0',
								'vars':{
									'drawSVG':'0% 100%'
								}
							},
							{
								'duration':'1',
								'position':'+=0',
								'vars':{
									'drawSVG':'100% 100%'
								}
							},
							{
								'duration':'0',
								'vars':{
									'opacity':'0',
									'drawSVG':'0% 0%'
								}
							}
						]
					}
				"/>
				<line class="lievo-donotdraw lievo-altstroke" fill="none" stroke="#2C3E50" stroke-width="2" stroke-linecap="square" stroke-miterlimit="10" x1="27" y1="43" x2="23" y2="51" opacity="0" data-animdata="
					{
						'steps':[
							{
								'duration':'0',
								'position':'2',
								'vars':{
									'opacity':'1',
									'drawSVG':'0% 0%'
								}
							},
							{
								'duration':'1',
								'position':'+=0',
								'vars':{
									'drawSVG':'0% 100%'
								}
							},
							{
								'duration':'1',
								'position':'+=0',
								'vars':{
									'drawSVG':'100% 100%'
								}
							},
							{
								'duration':'0',
								'vars':{
									'opacity':'0',
									'drawSVG':'0% 0%'
								}
							}
						]
					}
				"/>
			</g>
		</g>
	</g>
</svg> 