<svg version="1.1" xmlns="http://www.w3.org/2000/svg" xmlns:xlink="http://www.w3.org/1999/xlink" viewBox="0 0 60 60" xml:space="preserve" data-animoptions="{'duration':'1.5', 'repeat':'0', 'repeatDelay':'0.5'}">
	<g class="lievo-main">
		<g class="lievo-filledicon">
			<rect x="26" y="36" fill="#CE9C7B" stroke="#AE7C5B" stroke-width="2" stroke-linecap="square" stroke-miterlimit="10" width="8" height="15" data-animdata="
				{
					'steps':[
						{
							'duration':'1',
							'position':'0',
							'vars':{
								'scaleX':'0.001',
								'transformOrigin':'left center',
								'repeat':'1',
								'repeatDelay':'2',
								'yoyo':'true',
								'ease':'Power1.easeIn'
							}
						}
					]
				}
			"/>
			<path fill="#FDE3A7" stroke="#D4A281" stroke-width="2" stroke-linecap="square" stroke-miterlimit="10" d="M30,14l17,15v22H37V33H23v18H13V29L30,14z"/>
			<polyline class="lievo-savelinecap" fill="#D73C2C" stroke="#B71C0C" stroke-width="2" stroke-miterlimit="10" points="41,19.1 41,13 45,13 45,22.66"/>
			<polyline fill="none" stroke="#B71C0C" stroke-width="2" stroke-linecap="square" stroke-miterlimit="10" points="9,28 30,9.3 51,28"/>
		</g>

		<g class="lievo-lineicon">
			<rect x="26" y="36" fill="none" stroke="#34495E" stroke-width="2" stroke-linecap="square" stroke-miterlimit="10" width="8" height="15" data-animdata="
				{
					'steps':[
						{
							'duration':'1',
							'position':'0',
							'vars':{
								'scaleX':'0.001',
								'transformOrigin':'left center',
								'repeat':'1',
								'repeatDelay':'2',
								'yoyo':'true',
								'ease':'Power1.easeIn'
							}
						}
					]
				}
			"/>
			<polyline fill="none" stroke="#34495E" stroke-width="2" stroke-linecap="square" stroke-miterlimit="10" points="47,29 47,51 37,51 37,33 23,33 23,51 13,51 13,29"/>
			<polyline class="lievo-altstroke" fill="none" stroke="#34495E" stroke-width="2" stroke-linecap="square" stroke-miterlimit="10" points="41,14.6 41,13 45,13 45,18"/>
			<polyline fill="none" stroke="#34495E" stroke-width="2" stroke-linecap="square" stroke-miterlimit="10" points="9,28 30,9.3 51,28"/>
		</g>

		<g class="lievo-solidicon">
			<rect x="26" y="36" fill="#34495E" stroke="#34495E" stroke-width="2" stroke-linecap="square" stroke-miterlimit="10" width="8" height="15" data-animdata="
				{
					'steps':[
						{
							'duration':'1',
							'position':'0',
							'vars':{
								'scaleX':'0.001',
								'transformOrigin':'left center',
								'repeat':'1',
								'repeatDelay':'2',
								'yoyo':'true',
								'ease':'Power1.easeIn'
							}
						}
					]
				}
			"/>
			<path fill="#34495E" stroke="#34495E" stroke-width="2" stroke-linecap="square" stroke-miterlimit="10" d="M30,14l17,15v22H37V33H23v18H13V29L30,14z"/>
			<polyline class="lievo-savelinecap" fill="#34495E" stroke="#34495E" stroke-width="2" stroke-miterlimit="10" points="41,18.6 41,13 45,13 45,22.16"/>
			<polyline fill="none" stroke="#34495E" stroke-width="3" stroke-linecap="square" stroke-miterlimit="10" points="9,27.5 30,8.8 51,27.5"/>
		</g>
	</g>
</svg>