<svg version="1.1" xmlns="http://www.w3.org/2000/svg" xmlns:xlink="http://www.w3.org/1999/xlink" viewBox="0 0 60 60" xml:space="preserve" data-shift="" data-animoptions="{'duration':'1.4', 'repeat':'0', 'repeatDelay':'0.7'}">
	<g class="lievo-main">
		<g class="lievo-common">
			<g>
				<defs>
					<clipPath id="livicon_image_all">
						<path class="lievo-donotdraw lievo-nohovercolor lievo-savefill" d="M53,47c0,1.1-0.9,2-2,2H9c-1.1,0-2-0.9-2-2V13c0-1.1,0.9-2,2-2h42c1.1,0,2,0.9,2,2V47z"/>
					</clipPath>
					<clipPath id="livicon_image_small">
						<polygon class="lievo-donotdraw lievo-nohovercolor lievo-savefill" points="21,23 47,49 53,49 53,23"/>
					</clipPath>
					<clipPath id="livicon_image_sun">
						<polygon class="lievo-donotdraw lievo-nohovercolor lievo-savefill" points="21,23 37,39 45,31 53,39 53,11 21,11"/>
					</clipPath>
				</defs>
				<g clip-path="url(#livicon_image_all)">
					<g clip-path="url(#livicon_image_small)">
						<path fill="#1EBC61" stroke="#009C41" stroke-width="2" stroke-linecap="square" stroke-miterlimit="10" d="M45,31l8,8v8c0,1.1-0.9,2-2,2H37V39L45,31z" data-animdata="
							{
								'steps':[
									{
										'duration':'0',
										'vars':{
											'y':'+=20'
										},
										'position':'0'
									},
									{
										'duration':'1',
										'vars':{
											'y':'-=20',
											'ease':'Power1.easeOut'
										},
										'position':'0.7'
									}
								]
							}
						"/>
					</g>
					<path fill="#2ECC71" stroke="#0EAC51" stroke-width="2" stroke-linecap="square" stroke-miterlimit="10" d="M21,23L7,37v10c0,1.1,0.9,2,2,2h38L21,23z" data-animdata="
						{
							'steps':[
								{
									'duration':'0',
									'vars':{
										'y':'+=28'
									},
									'position':'0'
								},
								{
									'duration':'1',
									'vars':{
										'y':'-=28',
										'ease':'Power1.easeOut'
									}
								}
							]
						}
					"/>
					<g clip-path="url(#livicon_image_sun)">
						<circle class="lievo-altstroke" fill="#FFCF4B" stroke="#F9B32F" stroke-width="2" stroke-miterlimit="10" cx="38" cy="22" r="5" data-animdata="
							{
								'steps':[
									{
										'duration':'0',
										'vars':{
											'y':'+=24',
											'x':'-=6'
										},
										'position':'0'
									},
									{
										'duration':'1',
										'vars':{
											'y':'-=24',
											'x':'+=6',
											'ease':'Power1.easeOut'
										},
										'position':'1.4'
									}
								]
							}
						"/>
					</g>
				</g>
			</g>
			<path fill="none" stroke="#657576" stroke-width="2" stroke-linecap="square" stroke-miterlimit="10" d="M30,11h21c1.1,0,2,0.9,2,2v34c0,1.1-0.9,2-2,2H9c-1.1,0-2-0.9-2-2V13c0-1.1,0.9-2,2-2H30z"/>
		</g>
	</g>
</svg>