<svg version="1.1" xmlns="http://www.w3.org/2000/svg" xmlns:xlink="http://www.w3.org/1999/xlink" viewBox="0 0 60 60" xml:space="preserve" data-animoptions="{'duration':'1.5', 'repeat':'0', 'repeatDelay':'0.7'}">
	<g class="lievo-main">
		<g class="lievo-common" opacity="0" data-animdata="
			{
				'steps':[
					{
						'duration':'1',
						'position':'0',
						'vars':{
							'opacity':'1',
							'repeat':'1',
							'repeatDelay':'6',
							'yoyo':'true'
						}
					}
				]
			}
		">
			<path class="lievo-donotdraw lievo-altstroke" fill="#D3623B" stroke="#B3421B" stroke-width="2" stroke-linecap="square" stroke-miterlimit="10" d="M53,55H33c-1.1,0-2-0.9-2-2v-2c0-1.1,0.9-2,2-2h20c1.1,0,2,0.9,2,2v2C55,54.1,54.1,55,53,55z"/>
			<polygon class="lievo-savelinecap lievo-likestroke lievo-altstroke lievo-donotdraw" fill="#B3421B" stroke="#B3421B" stroke-width="2" stroke-linecap="square" stroke-miterlimit="10" points="41.56,48.67 39.35,48.41 41.11,48.03 41.03,47.34 42.97,47.76 45.12,47.59 44.56,48.25 45.98,48.83 43.69,48.81 42.41,49.34" opacity="0" data-animdata="
				{
					'steps':[
						{
							'duration':'0',
							'position':'5',
							'vars':{
								'opacity':'1'
							}
						},
						{
							'duration':'0.5',
							'vars':{
								'opacity':'0',
								'scale':'4',
								'transformOrigin':'center center'
							}
						},
						{
							'duration':'0.5',
							'vars':{
								'scale':'1'
							}
						}
					]
				}
			"/>
		</g>

		<g class="lievo-filledicon">
			<g data-animdata="
				{
					'steps':[
						{
							'duration':'1',
							'position':'4',
							'vars':{
								'y':'-=4',
								'ease':'Power1.easeOut'
							}
						},
						{
							'duration':'2',
							'position':'+=3',
							'vars':{
								'y':'0',
								'ease':'Power1.easeOut'
							}
						}
					]
				}
			">
				<g data-animdata="
					{
						'steps':[
							{
								'duration':'4',
								'position':'0',
								'vars':{
									'rotation':'-=50',
									'svgOrigin':'23 37',
									'ease':'Power1.easeOut'
								}
							},
							{
								'duration':'1',
								'vars':{
									'rotation':'+=95',
									'ease':'Power1.easeIn'
								}
							},
							{
								'duration':'2',
								'position':'+=3',
								'vars':{
									'rotation':'0',
									'ease':'Power1.easeOut'
								}
							}
						]
					}
				">
					<path class="lievo-savelinecap" fill="#EAB897" stroke="#D4A281" stroke-width="2" stroke-miterlimit="10" d="M35.44,27.38L15.32,50.33c-0.75,0.86-2.02,0.9-2.82,0.09L9.58,47.5c-0.81-0.81-0.76-2.07,0.09-2.82l22.94-20.12"/>
					<polyline fill="#D3623B" stroke="#B3421B" stroke-width="2" stroke-linecap="square" stroke-miterlimit="10" points="41.1,18.9 46.76,24.56 39.69,31.63 28.37,20.31 35.44,13.24 41.1,18.9"/>
					<path fill="#D3623B" stroke="#B3421B" stroke-width="2" stroke-linecap="square" stroke-miterlimit="10" d="M36.02,8.17L36.86,9c0.78,0.78,0.78,2.05,0,2.83l-9.9,9.9c-0.78,0.78-2.05,0.78-2.83,0l-1.41-1.41c-0.78-0.78-0.78-2.05,0-2.83l9.9-9.9c0.78-0.78,2.05-0.78,2.83,0L36.02,8.17z"/>
					<path fill="#D3623B" stroke="#B3421B" stroke-width="2" stroke-linecap="square" stroke-miterlimit="10" d="M51.71,23.85l0.7,0.7c0.78,0.78,0.78,2.05,0,2.83l-9.9,9.9c-0.78,0.78-2.05,0.78-2.83,0l-1.41-1.41c-0.78-0.78-0.78-2.05,0-2.83l9.9-9.9c0.78-0.78,2.05-0.78,2.83,0L51.71,23.85z"/>
				</g>
			</g>
		</g>

		<g class="lievo-lineicon">
			<g data-animdata="
				{
					'steps':[
						{
							'duration':'1',
							'position':'4',
							'vars':{
								'y':'-=4',
								'ease':'Power1.easeOut'
							}
						},
						{
							'duration':'2',
							'position':'+=3',
							'vars':{
								'y':'0',
								'ease':'Power1.easeOut'
							}
						}
					]
				}
			">
				<g data-animdata="
					{
						'steps':[
							{
								'duration':'4',
								'position':'0',
								'vars':{
									'rotation':'-=50',
									'svgOrigin':'23 37',
									'ease':'Power1.easeOut'
								}
							},
							{
								'duration':'1',
								'vars':{
									'rotation':'+=95',
									'ease':'Power1.easeIn'
								}
							},
							{
								'duration':'2',
								'position':'+=3',
								'vars':{
									'rotation':'0',
									'ease':'Power1.easeOut'
								}
							}
						]
					}
				">
					<path class="lievo-savelinecap lievo-altstroke" fill="none" stroke="#34495E" stroke-width="2" stroke-miterlimit="10" d="M35.44,27.38L15.32,50.33c-0.75,0.86-2.02,0.9-2.82,0.09L9.58,47.5c-0.81-0.81-0.76-2.07,0.09-2.82l22.94-20.12"/>
					<line class="lievo-savelinecap" fill="none" stroke="#34495E" stroke-width="2" stroke-linecap="square" stroke-miterlimit="10" x1="39.69" y1="31.63" x2="28.37" y2="20.31"/>
					<line class="lievo-savelinecap" fill="none" stroke="#34495E" stroke-width="2" stroke-linecap="square" stroke-miterlimit="10" x1="35.44" y1="13.24" x2="46.76" y2="24.56"/>
					<path fill="none" stroke="#34495E" stroke-width="2" stroke-linecap="square" stroke-miterlimit="10" d="M36.08,8.23L36.86,9c0.78,0.78,0.78,2.05,0,2.83l-9.9,9.9c-0.78,0.78-2.05,0.78-2.83,0l-1.41-1.41c-0.78-0.78-0.78-2.05,0-2.83l9.9-9.9c0.78-0.78,2.05-0.78,2.83,0L36.08,8.23z"/>
					<path fill="none" stroke="#34495E" stroke-width="2" stroke-linecap="square" stroke-miterlimit="10" d="M51.68,23.82l0.74,0.74c0.78,0.78,0.78,2.05,0,2.83l-9.9,9.9c-0.78,0.78-2.05,0.78-2.83,0l-1.41-1.41c-0.78-0.78-0.78-2.05,0-2.83l9.9-9.9c0.78-0.78,2.05-0.78,2.83,0L51.68,23.82z"/>
				</g>
			</g>
		</g>

		<g class="lievo-solidicon">
			<g data-animdata="
				{
					'steps':[
						{
							'duration':'1',
							'position':'4',
							'vars':{
								'y':'-=4',
								'ease':'Power1.easeOut'
							}
						},
						{
							'duration':'2',
							'position':'+=3',
							'vars':{
								'y':'0',
								'ease':'Power1.easeOut'
							}
						}
					]
				}
			">
				<g data-animdata="
					{
						'steps':[
							{
								'duration':'4',
								'position':'0',
								'vars':{
									'rotation':'-=50',
									'svgOrigin':'23 37',
									'ease':'Power1.easeOut'
								}
							},
							{
								'duration':'1',
								'vars':{
									'rotation':'+=95',
									'ease':'Power1.easeIn'
								}
							},
							{
								'duration':'2',
								'position':'+=3',
								'vars':{
									'rotation':'0',
									'ease':'Power1.easeOut'
								}
							}
						]
					}
				">
					<path class="lievo-savelinecap" fill="#34495E" stroke="#34495E" stroke-width="2" stroke-miterlimit="10" d="M35.44,27.38L15.32,50.33c-0.75,0.86-2.02,0.9-2.82,0.09L9.58,47.5c-0.81-0.81-0.76-2.07,0.09-2.82l22.94-20.12"/>
					<polyline fill="#34495E" stroke="#34495E" stroke-width="2" stroke-linecap="square" stroke-miterlimit="10" points="40.97,18.77 44.64,22.44 37.57,29.51 30.49,22.44 37.57,15.36 40.97,18.77"/>
					<path fill="#34495E" stroke="#34495E" stroke-width="2" stroke-linecap="square" stroke-miterlimit="10" d="M36.05,8.19L36.86,9c0.78,0.78,0.78,2.05,0,2.83l-9.9,9.9c-0.78,0.78-2.05,0.78-2.83,0l-1.41-1.41c-0.78-0.78-0.78-2.05,0-2.83l9.9-9.9c0.78-0.78,2.05-0.78,2.83,0L36.05,8.19z"/>
					<path fill="#34495E" stroke="#34495E" stroke-width="2" stroke-linecap="square" stroke-miterlimit="10" d="M51.62,23.76l0.8,0.8c0.78,0.78,0.78,2.05,0,2.83l-9.9,9.9c-0.78,0.78-2.05,0.78-2.83,0l-1.41-1.41c-0.78-0.78-0.78-2.05,0-2.83l9.9-9.9c0.78-0.78,2.05-0.78,2.83,0L51.62,23.76z"/>
				</g>
			</g>
		</g>
	</g>
</svg>