<svg version="1.1" xmlns="http://www.w3.org/2000/svg" xmlns:xlink="http://www.w3.org/1999/xlink" viewBox="0 0 60 60" xml:space="preserve" data-animoptions="{'duration':'3', 'repeat':'0', 'repeatDelay':'0'}">
	<g class="lievo-main">
		<g class="lievo-common">
			<path fill="#BE90D4" stroke="#AB69C6" stroke-width="2" stroke-linecap="square" stroke-miterlimit="10" d="M30,10c0.57,0,1.15-0.1,1.69-0.31l3.72-1.39c2.38-0.89,5.05,0.22,6.1,2.53l1.65,3.61c0.48,1.06,1.33,1.91,2.39,2.39l3.61,1.65c2.31,1.06,3.42,3.72,2.53,6.1l-1.39,3.72c-0.41,1.09-0.41,2.29,0,3.39l1.39,3.72c0.89,2.38-0.21,5.05-2.53,6.1l-3.61,1.65c-1.06,0.48-1.91,1.33-2.39,2.39l-1.65,3.61c-1.06,2.31-3.72,3.42-6.1,2.53l-3.72-1.39c-1.09-0.41-2.29-0.41-3.39,0l-3.72,1.39c-2.38,0.89-5.05-0.21-6.1-2.53l-1.65-3.61c-0.48-1.06-1.33-1.91-2.39-2.39l-3.61-1.65c-2.31-1.06-3.42-3.72-2.53-6.1l1.39-3.72c0.41-1.09,0.41-2.29,0-3.39l-1.39-3.72c-0.89-2.38,0.22-5.05,2.53-6.1l3.61-1.65c1.06-0.48,1.91-1.33,2.39-2.39l1.65-3.61c1.06-2.31,3.72-3.42,6.1-2.53l3.72,1.39C28.85,9.9,29.43,10,30,10z" data-animdata="
				{
					'steps':[
						{
							'duration':'1',
							'position':'0',
							'vars':{
								'rotation':'360',
								'svgOrigin':'30 30',
								'force3D':'true',
								'ease':'none'
							}
						}
					]
				}
			"/>
			<path class="lievo-altstroke lievo-solidbg" fill="#FDE3A7" stroke="#F9CE62" stroke-width="2" stroke-linecap="square" stroke-miterlimit="10" d="M30,16.36c0.39,0,0.78-0.07,1.15-0.21l2.54-0.94c1.62-0.61,3.44,0.15,4.16,1.72l1.13,2.46c0.33,0.72,0.91,1.3,1.63,1.63l2.46,1.12c1.58,0.72,2.33,2.54,1.72,4.16l-0.94,2.53c-0.28,0.74-0.28,1.56,0,2.31l0.94,2.53c0.61,1.62-0.15,3.44-1.72,4.16l-2.46,1.12c-0.72,0.33-1.3,0.91-1.63,1.63l-1.13,2.46c-0.72,1.58-2.54,2.33-4.16,1.72l-2.54-0.94c-0.74-0.28-1.56-0.28-2.31,0l-2.53,0.94c-1.62,0.61-3.44-0.15-4.16-1.72l-1.12-2.46c-0.33-0.72-0.91-1.3-1.63-1.63l-2.46-1.12c-1.58-0.72-2.33-2.54-1.72-4.16l0.94-2.53c0.28-0.74,0.28-1.56,0-2.31l-0.94-2.54c-0.61-1.62,0.15-3.44,1.72-4.16l2.46-1.12c0.72-0.33,1.3-0.91,1.63-1.63l1.12-2.46c0.72-1.58,2.54-2.33,4.16-1.72l2.53,0.94C29.22,16.29,29.61,16.36,30,16.36z" data-animdata="
				{
					'steps':[
						{
							'duration':'1',
							'position':'0',
							'vars':{
								'rotation':'-360',
								'svgOrigin':'30 30',
								'force3D':'true',
								'ease':'none'
							}
						}
					]
				}
			"/>
		</g>
	</g>
</svg>
