<svg version="1.1" xmlns="http://www.w3.org/2000/svg" xmlns:xlink="http://www.w3.org/1999/xlink" viewBox="0 0 60 60" xml:space="preserve" data-animoptions="{'duration':'2', 'repeat':'0', 'repeatDelay':'0'}">
	<g class="lievo-main">
		<g class="lievo-filledicon">
			<defs>
				<mask id="livicon_loader_16">
					<path class="lievo-savefill lievo-savestroke lievo-donotdraw" fill="none" stroke="#fff" stroke-width="2" stroke-linecap="square" stroke-miterlimit="10" d="M7,30c0-5.52,4.48-10,10-10c7,0,13,10,13,10s6,10,13,10c5.52,0,10-4.48,10-10c0-5.52-4.48-10-10-10c-7,0-13,10-13,10s-6,10-13,10C11.48,40,7,35.52,7,30z"/>
				</mask>
			</defs>
			<g mask="url(#livicon_loader_16)">
				<rect class="lievo-donotdraw" fill="#ECF0F1" width="60" height="60"/>
			</g>
			<path class="lievo-savelinecap" fill="none" stroke="#34495E" stroke-width="2" stroke-linecap="round" stroke-linejoin="round" stroke-miterlimit="10" d="M7,30c0-5.52,4.48-10,10-10c7,0,13,10,13,10s6,10,13,10c5.52,0,10-4.48,10-10c0-5.52-4.48-10-10-10c-7,0-13,10-13,10s-6,10-13,10C11.48,40,7,35.52,7,30" data-animdata="
				{
					'steps':[
						{
							'duration':'0',
							'position':'0',
							'vars':{
								'drawSVG':'90% 100%'
							}
						},
						{
							'duration':'0.2',
							'vars':{
								'drawSVG':'100% 100%'
							}
						}
					]
				}
			"/>
			<path class="lievo-savelinecap" fill="none" stroke="#34495E" stroke-width="2" stroke-linecap="round" stroke-linejoin="round" stroke-miterlimit="10" d="M7,30c0-5.52,4.48-10,10-10c7,0,13,10,13,10s6,10,13,10c5.52,0,10-4.48,10-10c0-5.52-4.48-10-10-10c-7,0-13,10-13,10s-6,10-13,10C11.48,40,7,35.52,7,30" data-animdata="
				{
					'steps':[
						{
							'duration':'0',
							'position':'0',
							'vars':{
								'drawSVG':'0% 0%'
							}
						},
						{
							'duration':'0.2',
							'vars':{
								'drawSVG':'0% 10%'
							}
						},
						{
							'duration':'1.8',
							'vars':{
								'drawSVG':'90% 100%'
							}
						}
					]
				}
			"/>
		</g>

		<g class="lievo-lineicon">
			<path opacity="0.2" fill="none" stroke="#34495E" stroke-width="2" stroke-linecap="square" stroke-miterlimit="10" d="M7,30c0-5.52,4.48-10,10-10c7,0,13,10,13,10s6,10,13,10c5.52,0,10-4.48,10-10c0-5.52-4.48-10-10-10c-7,0-13,10-13,10s-6,10-13,10C11.48,40,7,35.52,7,30z"/>
			<path class="lievo-savelinecap lievo-altstroke" fill="none" stroke="#34495E" stroke-width="2" stroke-linecap="round" stroke-linejoin="round" stroke-miterlimit="10" d="M7,30c0-5.52,4.48-10,10-10c7,0,13,10,13,10s6,10,13,10c5.52,0,10-4.48,10-10c0-5.52-4.48-10-10-10c-7,0-13,10-13,10s-6,10-13,10C11.48,40,7,35.52,7,30" data-animdata="
				{
					'steps':[
						{
							'duration':'0',
							'position':'0',
							'vars':{
								'drawSVG':'90% 100%'
							}
						},
						{
							'duration':'0.2',
							'vars':{
								'drawSVG':'100% 100%'
							}
						}
					]
				}
			"/>
			<path class="lievo-savelinecap lievo-altstroke" fill="none" stroke="#34495E" stroke-width="2" stroke-linecap="round" stroke-linejoin="round" stroke-miterlimit="10" d="M7,30c0-5.52,4.48-10,10-10c7,0,13,10,13,10s6,10,13,10c5.52,0,10-4.48,10-10c0-5.52-4.48-10-10-10c-7,0-13,10-13,10s-6,10-13,10C11.48,40,7,35.52,7,30" data-animdata="
				{
					'steps':[
						{
							'duration':'0',
							'position':'0',
							'vars':{
								'drawSVG':'0% 0%'
							}
						},
						{
							'duration':'0.2',
							'vars':{
								'drawSVG':'0% 10%'
							}
						},
						{
							'duration':'1.8',
							'vars':{
								'drawSVG':'90% 100%'
							}
						}
					]
				}
			"/>
		</g>

		<g class="lievo-solidicon">
			<path opacity="0.2" fill="none" stroke="#34495E" stroke-width="3" stroke-linecap="square" stroke-miterlimit="10" d="M7,30c0-5.52,4.48-10,10-10c7,0,13,10,13,10s6,10,13,10c5.52,0,10-4.48,10-10c0-5.52-4.48-10-10-10c-7,0-13,10-13,10s-6,10-13,10C11.48,40,7,35.52,7,30z"/>
			<path class="lievo-savelinecap" fill="none" stroke="#34495E" stroke-width="3" stroke-linecap="round" stroke-linejoin="round" stroke-miterlimit="10" d="M7,30c0-5.52,4.48-10,10-10c7,0,13,10,13,10s6,10,13,10c5.52,0,10-4.48,10-10c0-5.52-4.48-10-10-10c-7,0-13,10-13,10s-6,10-13,10C11.48,40,7,35.52,7,30" data-animdata="
				{
					'steps':[
						{
							'duration':'0',
							'position':'0',
							'vars':{
								'drawSVG':'90% 100%'
							}
						},
						{
							'duration':'0.2',
							'vars':{
								'drawSVG':'100% 100%'
							}
						}
					]
				}
			"/>
			<path class="lievo-savelinecap" fill="none" stroke="#34495E" stroke-width="3" stroke-linecap="round" stroke-linejoin="round" stroke-miterlimit="10" d="M7,30c0-5.52,4.48-10,10-10c7,0,13,10,13,10s6,10,13,10c5.52,0,10-4.48,10-10c0-5.52-4.48-10-10-10c-7,0-13,10-13,10s-6,10-13,10C11.48,40,7,35.52,7,30" data-animdata="
				{
					'steps':[
						{
							'duration':'0',
							'position':'0',
							'vars':{
								'drawSVG':'0% 0%'
							}
						},
						{
							'duration':'0.2',
							'vars':{
								'drawSVG':'0% 10%'
							}
						},
						{
							'duration':'1.8',
							'vars':{
								'drawSVG':'90% 100%'
							}
						}
					]
				}
			"/>
		</g>
	</g>
</svg>
