<svg version="1.1" xmlns="http://www.w3.org/2000/svg" xmlns:xlink="http://www.w3.org/1999/xlink" viewBox="0 0 60 60" xml:space="preserve" data-shift="xy" data-animoptions="{'duration':'0.4'}">
	<g class="lievo-main">
		<g class="lievo-morphstartstate">
			<g class="lievo-filledicon">
				<circle transform="rotate(-90, 30, 30)" fill="#ECF0F1" stroke="#34495E" stroke-width="2" stroke-linecap="square" stroke-miterlimit="10" cx="30" cy="30" r="16"/>
			</g>

			<g class="lievo-solidicon">
				<circle transform="rotate(-90, 30, 30)" fill="none" stroke="#34495E" stroke-width="3" stroke-linecap="square" stroke-miterlimit="10" cx="30" cy="30" r="15.5"/>
			</g>

			<g class="lievo-common">
				<defs>
					<clipPath id="livicon_morph_radio_4">
						<circle class="lievo-donotdraw lievo-nohovercolor lievo-nohoverstroke" cx="30" cy="30" r="16"/>
					</clipPath>
				</defs>
				<g clip-path="url(#livicon_morph_radio_4)">
					<polyline class="lievo-altstroke" fill="none" stroke="#34495E" stroke-width="6" stroke-linecap="square" stroke-miterlimit="10" points="12.68,26.1 24.25,14.53 29.68,13.35 13.22,29.81 13.47,33.8 33.76,13.51 36.88,14.63 14.92,36.59 16.21,39.54 39.54,16.21 41.92,18.08 18.04,41.96 20.29,43.96 43.91,20.33 45.45,23.03 23.03,45.45 26.16,46.57 46.53,26.2 46.94,30.03 29.94,47.03 35.21,46 46,35.21" opacity="0" data-animdata="
						{
							'steps':[
								{
									'duration':'0',
									'position':'0',
									'vars':{
										'drawSVG':'0%',
										'opacity':'1'
									}
								},
								{
									'duration':'1',
									'vars':{
										'drawSVG':'100%',
										'ease':'Power1.easeIn'
									}
								}
							]
						}
					"/>
				</g>
			</g>

			<g class="lievo-lineicon">
				<circle class="lievo-altstroke" transform="rotate(-90, 30, 30)" fill="none" stroke="#34495E" stroke-width="2" stroke-linecap="square" stroke-miterlimit="10" cx="30" cy="30" r="16"/>
			</g>
		</g>

		<g class="lievo-morphendstate">
			<g class="lievo-filledicon">
				<circle transform="rotate(-90, 30, 30)" fill="#ECF0F1" stroke="#34495E" stroke-width="2" stroke-linecap="square" stroke-miterlimit="10" cx="30" cy="30" r="16"/>
			</g>

			<g class="lievo-solidicon">
				<circle transform="rotate(-90, 30, 30)" fill="none" stroke="#34495E" stroke-width="3" stroke-linecap="square" stroke-miterlimit="10" cx="30" cy="30" r="15.5"/>
			</g>

			<g class="lievo-common">
				<defs>
					<clipPath id="livicon_morph_radio_4">
						<circle class="lievo-donotdraw lievo-nohovercolor lievo-nohoverstroke" cx="30" cy="30" r="16"/>
					</clipPath>
				</defs>
				<g clip-path="url(#livicon_morph_radio_4)">
					<polyline class="lievo-altstroke" fill="none" stroke="#34495E" stroke-width="6" stroke-linecap="square" stroke-miterlimit="10" points="12.68,26.1 24.25,14.53 29.68,13.35 13.22,29.81 13.47,33.8 33.76,13.51 36.88,14.63 14.92,36.59 16.21,39.54 39.54,16.21 41.92,18.08 18.04,41.96 20.29,43.96 43.91,20.33 45.45,23.03 23.03,45.45 26.16,46.57 46.53,26.2 46.94,30.03 29.94,47.03 35.21,46 46,35.21" opacity="1" data-animdata="
						{
							'steps':[
								{
								'duration':'1',
								'position':'0',
								'vars':{
									'drawSVG':'0%',
									'ease':'Power1.easeOut'
								}
							},
							{
								'duration':'0',
								'vars':{
									'opacity':'0'
								}
							}
							]
						}
					"/>
				</g>
			</g>

			<g class="lievo-lineicon">
				<circle class="lievo-altstroke" transform="rotate(-90, 30, 30)" fill="none" stroke="#34495E" stroke-width="2" stroke-linecap="square" stroke-miterlimit="10" cx="30" cy="30" r="16"/>
			</g>
		</g>
	</g>
</svg>