<svg version="1.1" xmlns="http://www.w3.org/2000/svg" xmlns:xlink="http://www.w3.org/1999/xlink" viewBox="0 0 60 60" xml:space="preserve" data-animoptions="{'duration':'0.2'}">
	<g class="lievo-main">
		<g class="lievo-morphstartstate">
			<g class="lievo-filledicon">
				<defs>
					<clipPath id="livicon_tablet_phone_s">
						<path class="lievo-donotdraw lievo-nohovercolor lievo-nohoverstroke" d="M49,49H11v-2.1V8.1V6h38v2.1v38.8V49z" data-animdata="
							{
								'steps':[
									{
										'duration':'1',
										'position':'0',
										'vars':{
											'path':'M43,48H17v-2.05V9.05V7h26v2.05v36.9V48z'
										}
									}
								]
							}
						"/>
					</clipPath>
				</defs>
				
				<path fill="#ECF0F1" stroke="#34495E" stroke-width="0" d="M47,53H13c-1.1,0-2-0.9-2-2V9c0-1.1,0.9-2,2-2h34c1.1,0,2,0.9,2,2v42C49,52.1,48.1,53,47,53z" data-animdata="
					{
						'steps':[
							{
								'duration':'1',
								'position':'0',
								'vars':{
									'path':'M41,53H19c-1.1,0-2-0.9-2-2V9c0-1.1,0.9-2,2-2h22c1.1,0,2,0.9,2,2v42C43,52.1,42.1,53,41,53z'
								}
							}
						]
					}
				"/>
				
				<circle class="lievo-likestroke" fill="#34495E" cx="30" cy="49" r="2"/>
				
				<g clip-path="url(#livicon_tablet_phone_s)">
					<rect class="lievo-morphimage" x="14" y="10" fill="#336E7B" stroke="#34495E" stroke-width="2" stroke-linecap="square" stroke-miterlimit="10" width="32" height="35" data-animdata="
						{
							'steps':[
								{
									'duration':'1',
									'position':'0',
									'vars':{
										'attr':{'x':'15','y':'13','width':'30','height':'32'}
									}
								}
							]
						}
					"/>
				</g>
				
				<path fill="none" stroke="#34495E" stroke-width="2" stroke-linecap="square" stroke-miterlimit="10" d="M47,53H13c-1.1,0-2-0.9-2-2V9c0-1.1,0.9-2,2-2h34c1.1,0,2,0.9,2,2v42C49,52.1,48.1,53,47,53z" data-animdata="
					{
						'steps':[
							{
								'duration':'1',
								'position':'0',
								'vars':{
									'path':'M41,53H19c-1.1,0-2-0.9-2-2V9c0-1.1,0.9-2,2-2h22c1.1,0,2,0.9,2,2v42C43,52.1,42.1,53,41,53z'
								}
							}
						]
					}
				"/>
				<line fill="none" stroke="#34495E" stroke-width="2" stroke-linecap="square" stroke-miterlimit="10" x1="25" y1="10" x2="35" y2="10" opacity="0" transform="matrix(1, 0, 0, 0.001, 0, 9.99)" data-animdata="
					{
						'steps':[
							{
								'duration':'0',
								'position':'0',
								'vars':{
									'opacity':'1'
								}
							},
							{
								'duration':'1',
								'vars':{
									'scaleY':'1',
									'transformOrigin':'center top'
								}
							}
						]
					}
				"/>
			</g>

			<g class="lievo-lineicon">
				<defs>
					<clipPath id="livicon_tablet_phone_s">
						<path class="lievo-donotdraw lievo-nohovercolor lievo-nohoverstroke" d="M49,49H11v-2.1V8.1V6h38v2.1v38.8V49z" data-animdata="
							{
								'steps':[
									{
										'duration':'1',
										'position':'0',
										'vars':{
											'path':'M43,48H17v-2.05V9.05V7h26v2.05v36.9V48z'
										}
									}
								]
							}
						"/>
					</clipPath>
				</defs>
				
				<g clip-path="url(#livicon_tablet_phone_s)">
					<rect class="lievo-morphimage" x="14" y="10" fill="#336E7B" stroke="#34495E" stroke-width="2" stroke-linecap="square" stroke-miterlimit="10" width="32" height="35" data-animdata="
						{
							'steps':[
								{
									'duration':'1',
									'position':'0',
									'vars':{
										'attr':{'x':'15','y':'13','width':'30','height':'32'}
									}
								}
							]
						}
					"/>
				</g>

				<path fill="none" stroke="#34495E" stroke-width="2" d="M47,53H13c-1.1,0-2-0.9-2-2V9c0-1.1,0.9-2,2-2h34c1.1,0,2,0.9,2,2v42C49,52.1,48.1,53,47,53z" data-animdata="
					{
						'steps':[
							{
								'duration':'1',
								'position':'0',
								'vars':{
									'path':'M41,53H19c-1.1,0-2-0.9-2-2V9c0-1.1,0.9-2,2-2h22c1.1,0,2,0.9,2,2v42C43,52.1,42.1,53,41,53z'
								}
							}
						]
					}
				"/>
				
				<circle class="lievo-likestroke lievo-altstroke" fill="#34495E" cx="30" cy="49" r="2"/>
				
				<line fill="none" stroke="#34495E" stroke-width="2" stroke-linecap="square" stroke-miterlimit="10" x1="25" y1="10" x2="35" y2="10" opacity="0" transform="matrix(1, 0, 0, 0.001, 0, 9.99)" data-animdata="
					{
						'steps':[
							{
								'duration':'0',
								'position':'0',
								'vars':{
									'opacity':'1'
								}
							},
							{
								'duration':'1',
								'vars':{
									'scaleY':'1',
									'transformOrigin':'center top'
								}
							}
						]
					}
				"/>
			</g>

			<g class="lievo-solidicon">
				<defs>
					<clipPath id="livicon_tablet_phone_s">
						<path class="lievo-donotdraw lievo-nohovercolor lievo-nohoverstroke" d="M47,46H13V9h34V46z" data-animdata="
							{
								'steps':[
									{
										'duration':'1',
										'position':'0',
										'vars':{
											'path':'M42,46H18V12h24V46z'
										}
									}
								]
							}
						"/>
					</clipPath>
				</defs>

				<path fill="#34495E" stroke="#34495E" stroke-width="2" stroke-linecap="square" stroke-miterlimit="10" d="M47,53H13c-1.1,0-2-0.9-2-2V9c0-1.1,0.9-2,2-2h34c1.1,0,2,0.9,2,2v42C49,52.1,48.1,53,47,53z" data-animdata="
					{
						'steps':[
							{
								'duration':'1',
								'position':'0',
								'vars':{
									'path':'M41,53H19c-1.1,0-2-0.9-2-2V9c0-1.1,0.9-2,2-2h22c1.1,0,2,0.9,2,2v42C43,52.1,42.1,53,41,53z'
								}
							}
						]
					}
				"/>
				
				<circle class="lievo-solidbg" fill="#FFFFFF" cx="30" cy="50" r="2"/>
				
				<g clip-path="url(#livicon_tablet_phone_s)">
					<rect class="lievo-morphimage lievo-solidbg" x="10" y="6" fill="#FFFFFF" stroke="#34495E" stroke-width="2" stroke-linecap="square" stroke-miterlimit="10" width="40" height="43" data-animdata="
						{
							'steps':[
								{
									'duration':'1',
									'position':'0',
									'vars':{
										'attr':{'x':'16','y':'6','width':'28','height':'43'}
									}
								}
							]
						}
					"/>
				</g>

				<line class="lievo-solidbg" fill="none" stroke="#34495E" stroke-width="2" stroke-linecap="square" stroke-miterlimit="10" x1="25" y1="9" x2="35" y2="9" opacity="0" transform="matrix(1, 0, 0, 0.001, 0, 8.991)" data-animdata="
					{
						'steps':[
							{
								'duration':'0',
								'position':'0',
								'vars':{
									'opacity':'1'
								}
							},
							{
								'duration':'1',
								'vars':{
									'scaleY':'1',
									'transformOrigin':'center top'
								}
							}
						]
					}
				"/>
			</g>
		</g>

		<g class="lievo-morphendstate">
			<g class="lievo-filledicon">
				<defs>
					<clipPath id="livicon_tablet_phone_e">
						<path class="lievo-donotdraw lievo-nohovercolor lievo-nohoverstroke" d="M43,48H17v-2.05V9.05V7h26v2.05v36.9V48z" data-animdata="
							{
								'steps':[
									{
										'duration':'1',
										'position':'0',
										'vars':{
											'path':'M49,49H11v-2.1V8.1V6h38v2.1v38.8V49z'
										}
									}
								]
							}
						"/>
					</clipPath>
				</defs>
				
				<path fill="#ECF0F1" stroke="#34495E" stroke-width="0" d="M41,53H19c-1.1,0-2-0.9-2-2V9c0-1.1,0.9-2,2-2h22c1.1,0,2,0.9,2,2v42C43,52.1,42.1,53,41,53z" data-animdata="
					{
						'steps':[
							{
								'duration':'1',
								'position':'0',
								'vars':{
									'path':'M47,53H13c-1.1,0-2-0.9-2-2V9c0-1.1,0.9-2,2-2h34c1.1,0,2,0.9,2,2v42C49,52.1,48.1,53,47,53z'
								}
							}
						]
					}
				"/>
				
				<circle class="lievo-likestroke" fill="#34495E" cx="30" cy="49" r="2"/>
				
				<g clip-path="url(#livicon_tablet_phone_e)">
					<rect class="lievo-morphimage" x="15" y="13" fill="#336E7B" stroke="#34495E" stroke-width="2" stroke-linecap="square" stroke-miterlimit="10" width="30" height="32" data-animdata="
						{
							'steps':[
								{
									'duration':'1',
									'position':'0',
									'vars':{
										'attr':{'x':'14','y':'10','width':'32','height':'35'}
									}
								}
							]
						}
					"/>
				</g>
				
				<path fill="none" stroke="#34495E" stroke-width="2" stroke-linecap="square" stroke-miterlimit="10" d="M41,53H19c-1.1,0-2-0.9-2-2V9c0-1.1,0.9-2,2-2h22c1.1,0,2,0.9,2,2v42C43,52.1,42.1,53,41,53z" data-animdata="
					{
						'steps':[
							{
								'duration':'1',
								'position':'0',
								'vars':{
									'path':'M47,53H13c-1.1,0-2-0.9-2-2V9c0-1.1,0.9-2,2-2h34c1.1,0,2,0.9,2,2v42C49,52.1,48.1,53,47,53z'
								}
							}
						]
					}
				"/>
				<line fill="none" stroke="#34495E" stroke-width="2" stroke-linecap="square" stroke-miterlimit="10" x1="25" y1="10" x2="35" y2="10" opacity="1" data-animdata="
					{
						'steps':[
							{
								'duration':'1',
								'position':'0',
								'vars':{
									'scaleY':'0.001',
									'transformOrigin':'center top'
								}
							}
						]
					}
				"/>
			</g>

			<g class="lievo-lineicon">
				<defs>
					<clipPath id="livicon_tablet_phone_e">
						<path class="lievo-donotdraw lievo-nohovercolor lievo-nohoverstroke" d="M43,48H17v-2.05V9.05V7h26v2.05v36.9V48z" data-animdata="
							{
								'steps':[
									{
										'duration':'1',
										'position':'0',
										'vars':{
											'path':'M49,49H11v-2.1V8.1V6h38v2.1v38.8V49z'
										}
									}
								]
							}
						"/>
					</clipPath>
				</defs>
				
				<g clip-path="url(#livicon_tablet_phone_e)">
					<rect class="lievo-morphimage" x="15" y="13" fill="#336E7B" stroke="#34495E" stroke-width="2" stroke-linecap="square" stroke-miterlimit="10" width="30" height="32" data-animdata="
						{
							'steps':[
								{
									'duration':'1',
									'position':'0',
									'vars':{
										'attr':{'x':'14','y':'10','width':'32','height':'35'}
									}
								}
							]
						}
					"/>
				</g>
				
				<path fill="none" stroke="#34495E" stroke-width="2" d="M41,53H19c-1.1,0-2-0.9-2-2V9c0-1.1,0.9-2,2-2h22c1.1,0,2,0.9,2,2v42C43,52.1,42.1,53,41,53z" data-animdata="
					{
						'steps':[
							{
								'duration':'1',
								'position':'0',
								'vars':{
									'path':'M47,53H13c-1.1,0-2-0.9-2-2V9c0-1.1,0.9-2,2-2h34c1.1,0,2,0.9,2,2v42C49,52.1,48.1,53,47,53z'
								}
							}
						]
					}
				"/>
				
				<circle class="lievo-likestroke lievo-altstroke" fill="#34495E" cx="30" cy="49" r="2"/>
				
				<line fill="none" stroke="#34495E" stroke-width="2" stroke-linecap="square" stroke-miterlimit="10" x1="25" y1="10" x2="35" y2="10" opacity="1" data-animdata="
					{
						'steps':[
							{
								'duration':'1',
								'position':'0',
								'vars':{
									'scaleY':'0.001',
									'transformOrigin':'center top'
								}
							}
						]
					}
				"/>
			</g>

			<g class="lievo-solidicon">
				<defs>
					<clipPath id="livicon_tablet_phone_e">
						<path class="lievo-donotdraw lievo-nohovercolor lievo-nohoverstroke" d="M42,46H18V12h24V46z" data-animdata="
							{
								'steps':[
									{
										'duration':'1',
										'position':'0',
										'vars':{
											'path':'M47,46H13V9h34V46z'
										}
									}
								]
							}
						"/>
					</clipPath>
				</defs>

				<path fill="#34495E" stroke="#34495E" stroke-width="2" stroke-linecap="square" stroke-miterlimit="10" d="M41,53H19c-1.1,0-2-0.9-2-2V9c0-1.1,0.9-2,2-2h22c1.1,0,2,0.9,2,2v42C43,52.1,42.1,53,41,53z" data-animdata="
					{
						'steps':[
							{
								'duration':'1',
								'position':'0',
								'vars':{
									'path':'M47,53H13c-1.1,0-2-0.9-2-2V9c0-1.1,0.9-2,2-2h34c1.1,0,2,0.9,2,2v42C49,52.1,48.1,53,47,53z'
								}
							}
						]
					}
				"/>
				
				<circle class="lievo-solidbg" fill="#FFFFFF" cx="30" cy="50" r="2"/>
				
				<g clip-path="url(#livicon_tablet_phone_e)">
					<rect class="lievo-morphimage lievo-solidbg" x="16" y="6" fill="#FFFFFF" stroke="#34495E" stroke-width="2" stroke-linecap="square" stroke-miterlimit="10" width="28" height="43" data-animdata="
						{
							'steps':[
								{
									'duration':'1',
									'position':'0',
									'vars':{
										'attr':{'x':'10','y':'6','width':'40','height':'43'}
									}
								}
							]
						}
					"/>
				</g>

				<line class="lievo-solidbg" fill="none" stroke="#34495E" stroke-width="2" stroke-linecap="square" stroke-miterlimit="10" x1="25" y1="9" x2="35" y2="9" opacity="1" data-animdata="
					{
						'steps':[
							{
								'duration':'1',
								'position':'0',
								'vars':{
									'scaleY':'0.001',
									'transformOrigin':'center top'
								}
							}
						]
					}
				"/>
			</g>
		</g>
	</g>
</svg>