<svg version="1.1" xmlns="http://www.w3.org/2000/svg" xmlns:xlink="http://www.w3.org/1999/xlink" viewBox="0 0 60 60" xml:space="preserve" data-animoptions="{'duration':'0.2'}">
	<g class="lievo-main">
		<g class="lievo-morphstartstate">
			<g class="lievo-common">
				<path class="lievo-morphimage lievo-altstroke" fill="#29C5FF" stroke="#1297E0" stroke-width="2" stroke-linecap="square" stroke-miterlimit="10" d="M30,5c0.28,0,0.55,0,0.83,0.01C44.25,5.45,55,16.47,55,30c0,0.28,0,0.57-0.01,0.85C54.55,43.96,44.01,54.52,30.9,54.98C30.6,55,30.3,55,30,55C16.42,55,5.37,44.17,5.01,30.68C5,30.45,5,30.23,5,30C5,16.54,15.63,5.57,28.96,5.02C29.3,5.01,29.65,5,30,5z" data-animdata="
					{
						'steps':[
							{
								'duration':'1',
								'position':'0',
								'vars':{
									'morphSVG':{
										'shape':'M30,5h13c6.63,0,12,5.37,12,12v26c0,6.63-5.37,12-12,12H17c-6.63,0-12-5.37-12-12V17c0-6.63,5.37-12,12-12H30z',
										'shapeIndex':'0'
									}
								}
							}
						]
					}
				"/>
			</g>
		</g>

		<g class="lievo-morphendstate">
			<g class="lievo-common">
				<path class="lievo-morphimage lievo-altstroke" fill="#29C5FF" stroke="#1297E0" stroke-width="2" stroke-linecap="square" stroke-miterlimit="10" d="M30,5h13c6.63,0,12,5.37,12,12v26c0,6.63-5.37,12-12,12H17c-6.63,0-12-5.37-12-12V17c0-6.63,5.37-12,12-12H30z" data-animdata="
					{
						'steps':[
							{
								'duration':'1',
								'position':'0',
								'vars':{
									'morphSVG':{
										'shape':'M30,5c0.28,0,0.55,0,0.83,0.01C44.25,5.45,55,16.47,55,30c0,0.28,0,0.57-0.01,0.85C54.55,43.96,44.01,54.52,30.9,54.98C30.6,55,30.3,55,30,55C16.42,55,5.37,44.17,5.01,30.68C5,30.45,5,30.23,5,30C5,16.54,15.63,5.57,28.96,5.02C29.3,5.01,29.65,5,30,5z',
										'shapeIndex':'0'
									}
								}
							}
						]
					}
				"/>
			</g>
		</g>
	</g>
</svg>