<svg version="1.1" xmlns="http://www.w3.org/2000/svg" xmlns:xlink="http://www.w3.org/1999/xlink" viewBox="0 0 60 60" xml:space="preserve" data-animoptions="{'duration':'0.4'}">
	<g class="lievo-main">
		<g class="lievo-morphstartstate">
			<g class="lievo-common">
				<polyline fill="#ECF0F1" stroke="#34495E" stroke-width="2" stroke-linecap="square" stroke-miterlimit="10" points="30,15 45,15 45,45 15,45 15,15 30,15"/>
				<path class="lievo-altstroke lievo-solidbg" fill="none" stroke="#34495E" stroke-width="2" stroke-linecap="square" stroke-miterlimit="10" d="M19,19c0,0,23,0,23,1c0,3-24,2-24,3s22,2,22,3s-22,2-22,3s24,0,24,1s-26,3-23,4c2.85,0.95,23,1,22,2c-0.71,0.71-26,3-23,3c1.75,0,20,0,22,1s-19,2-19,2" opacity="0" data-animdata="
					{
						'steps':[
							{
								'duration':'0',
								'position':'0',
								'vars':{
									'drawSVG':'0%',
									'opacity':'1'
								}
							},
							{
								'duration':'1',
								'vars':{
									'drawSVG':'100%',
									'ease':'Power1.easeIn'
								}
							}
						]
					}
				"/>
			</g>
		</g>

		<g class="lievo-morphendstate">
			<g class="lievo-common">
				<polyline fill="#ECF0F1" stroke="#34495E" stroke-width="2" stroke-linecap="square" stroke-miterlimit="10" points="30,15 45,15 45,45 15,45 15,15 30,15"/>
				<path class="lievo-altstroke lievo-solidbg" fill="none" stroke="#34495E" stroke-width="2" stroke-linecap="square" stroke-miterlimit="10" d="M19,19c0,0,23,0,23,1c0,3-24,2-24,3s22,2,22,3s-22,2-22,3s24,0,24,1s-26,3-23,4c2.85,0.95,23,1,22,2c-0.71,0.71-26,3-23,3c1.75,0,20,0,22,1s-19,2-19,2" opacity="1" data-animdata="
					{
						'steps':[
							{
								'duration':'1',
								'position':'0',
								'vars':{
									'drawSVG':'0%',
									'ease':'Power1.easeOut'
								}
							},
							{
								'duration':'0',
								'vars':{
									'opacity':'0'
								}
							}
						]
					}
				"/>
			</g>
		</g>
	</g>
</svg>