<svg version="1.1" xmlns="http://www.w3.org/2000/svg" xmlns:xlink="http://www.w3.org/1999/xlink" viewBox="0 0 60 60" xml:space="preserve" data-animoptions="{'duration':'0.4'}">
	<g class="lievo-main">
		<g class="lievo-morphstartstate">
			<g class="lievo-filledicon lievo-lineicon">
				<path class="lievo-altstroke" fill="#FF7C6C" stroke="#F75C4C" stroke-width="2" stroke-linecap="square" stroke-miterlimit="10" d="M42,11L42,11c-1.66,0-3,1.34-3,3v5h8v-6c0-3.31-2.69-6-6-6H23c-3.31,0-6,2.69-6,6v18l11-9l11,9V19" data-animdata="
					{
						'steps':[
							{
								'duration':'1',
								'position':'0',
								'vars':{
									'path':'M42,11L42,11c-1.66,0-3,1.34-3,3v5h8v-6c0-3.31-2.69-6-6-6H23c-3.31,0-6,2.69-6,6v40l11-9l11,9V19',
									'ease':'Back.easeOut.config(3)'
								}
							}
						]
					}
				"/>
			</g>

			<g class="lievo-solidicon">
				<path fill="#34495E" stroke="#34495E" stroke-width="2" stroke-miterlimit="10" d="M41,14c0-0.55,0.45-1,1-1h1V9h-1c-2.76,0-5,2.24-5,5v17l-11-9l-11,9V13c0-3.31,2.69-6,6-6h20c3.31,0,6,2.69,6,6v6h-6V14z" data-animdata="
					{
						'steps':[
							{
								'duration':'1',
								'position':'0',
								'vars':{
									'path':'M41,14c0-0.55,0.45-1,1-1h1V9h-1c-2.76,0-5,2.24-5,5v39l-11-9l-11,9V13c0-3.31,2.69-6,6-6h20c3.31,0,6,2.69,6,6v6h-6V14z',
									'ease':'Back.easeOut.config(3)'
								}
							}
						]
					}
				"/>
			</g>
		</g>

		<g class="lievo-morphendstate">
			<g class="lievo-filledicon lievo-lineicon">
				<path class="lievo-altstroke" fill="#FF7C6C" stroke="#F75C4C" stroke-width="2" stroke-linecap="square" stroke-miterlimit="10" d="M42,11L42,11c-1.66,0-3,1.34-3,3v5h8v-6c0-3.31-2.69-6-6-6H23c-3.31,0-6,2.69-6,6v40l11-9l11,9V19" data-animdata="
					{
						'steps':[
							{
								'duration':'1',
								'position':'0',
								'vars':{
									'path':'M42,11L42,11c-1.66,0-3,1.34-3,3v5h8v-6c0-3.31-2.69-6-6-6H23c-3.31,0-6,2.69-6,6v18l11-9l11,9V19',
									'ease':'Back.easeIn.config(3)'
								}
							}
						]
					}
				"/>
			</g>

			<g class="lievo-solidicon">
				<path fill="#34495E" stroke="#34495E" stroke-width="2" stroke-miterlimit="10" d="M41,14c0-0.55,0.45-1,1-1h1V9h-1c-2.76,0-5,2.24-5,5v39l-11-9l-11,9V13c0-3.31,2.69-6,6-6h20c3.31,0,6,2.69,6,6v6h-6V14z" data-animdata="
					{
						'steps':[
							{
								'duration':'1',
								'position':'0',
								'vars':{
									'path':'M41,14c0-0.55,0.45-1,1-1h1V9h-1c-2.76,0-5,2.24-5,5v17l-11-9l-11,9V13c0-3.31,2.69-6,6-6h20c3.31,0,6,2.69,6,6v6h-6V14z',
									'ease':'Back.easeIn.config(3)'
								}
							}
						]
					}
				"/>
			</g>
		</g>
	</g>
</svg>