<svg version="1.1" xmlns="http://www.w3.org/2000/svg" xmlns:xlink="http://www.w3.org/1999/xlink" viewBox="0 0 60 60" xml:space="preserve" data-animoptions="{'duration':'0.1'}">
	<g class="lievo-main">
		<g class="lievo-morphstartstate">
			<g class="lievo-filledicon">
				<path fill="#f9f9f9" stroke="#E0E0E0" stroke-width="2" stroke-linecap="round" stroke-linejoin="round" stroke-miterlimit="10" d="M35,43v-2c0-4.58,6-8.92,6-15c0-6.07-4.92-11-11-11c-6.07,0-11,4.93-11,11c0,6.08,6,10.42,6,15v2"/>
			
				<path class="lievo-likestroke" fill="#7C8A99" stroke="#7C8A99" stroke-width="2" stroke-linecap="round" stroke-linejoin="round" stroke-miterlimit="10" d="M30,43h5v4c0,2.21-2,3-3,4h-4c-1-1-3-1.79-3-4v-4H30"/>
				
				<path class="lievo-savelinecap" fill="none" stroke="#FFCF4B" stroke-width="2" stroke-linecap="round" stroke-linejoin="round" stroke-miterlimit="10" d="M30,37l-5-12l3,2l2-2l2,2l3-2L30,37" opacity="0.6" data-animdata="
					{
						'steps':[
							{
								'duration':'1',
								'position':'0',
								'vars':{
									'opacity':'1'
								}
							}
						]
					}
				"/>
			</g>

			<g class="lievo-lineicon">
				<path fill="none" stroke="#34495E" stroke-width="2" stroke-linecap="square" stroke-miterlimit="10" d="M30,45h5v2c0,2.21-2,3-3,4h-4c-1-1-3-1.79-3-4v-2H30"/>
			
				<path fill="none" stroke="#34495E" stroke-width="2" stroke-linecap="square" stroke-linejoin="round" stroke-miterlimit="10" d="M25,41c0-4.58-6-8.92-6-15c0-6.07,4.93-11,11-11c6.08,0,11,4.93,11,11c0,6.08-6,10.42-6,15"/>
			
				<path class="lievo-savelinecap lievo-altstroke" fill="none" stroke="#34495E" stroke-width="2" stroke-linecap="round" stroke-linejoin="round" stroke-miterlimit="10" d="M30,37l-5-12l3,2l2-2l2,2l3-2L30,37" opacity="0.6" data-animdata="
					{
						'steps':[
							{
								'duration':'1',
								'position':'0',
								'vars':{
									'opacity':'1'
								}
							}
						]
					}
				"/>
			</g>

			<g class="lievo-solidicon">
				<path fill="none" stroke="#34495E" stroke-width="2" stroke-linecap="round" stroke-linejoin="round" stroke-miterlimit="10" d="M35,43v-2c0-4.58,6-8.92,6-15c0-6.07-4.92-11-11-11c-6.07,0-11,4.93-11,11c0,6.08,6,10.42,6,15v2"/>
			
				<path fill="#34495E" stroke="#34495E" stroke-width="2" stroke-linecap="round" stroke-linejoin="round" stroke-miterlimit="10" d="M30,43h5v4c0,2.21-2,3-3,4h-4c-1-1-3-1.79-3-4v-4H30"/>
			
				<path class="lievo-savelinecap" fill="none" stroke="#34495E" stroke-width="2" stroke-linecap="round" stroke-linejoin="round" stroke-miterlimit="10" d="M30,37l-5-12l3,2l2-2l2,2l3-2L30,37" opacity="0.6" data-animdata="
					{
						'steps':[
							{
								'duration':'1',
								'position':'0',
								'vars':{
									'opacity':'1'
								}
							}
						]
					}
				"/>
			</g>
			
			<g class="lievo-common" opacity="0" data-animdata="
				{
					'steps':[
						{
							'duration':'0',
							'position':'0',
							'vars':{
								'opacity':'1',
								'scale':'0.8',
								'svgOrigin':'30 26'
							}
						},
						{
							'duration':'1',
							'vars':{
								'scale':'1'
							}
						}
					]
				}
			">
				<line class="lievo-altstroke" fill="none" stroke="#FFCF4B" stroke-width="2" stroke-linecap="round" stroke-linejoin="round" stroke-miterlimit="10" x1="17.37" y1="37.38" x2="14.39" y2="40.05" data-animdata="
					{
						'steps':[
							{
								'duration':'0',
								'position':'0',
								'vars':{
									'drawSVG':'0% 0%'
								}
							},
							{
								'duration':'1',
								'vars':{
									'drawSVG':'0% 100%'
								}
							}
						]
					}
				"/>
			
				<line class="lievo-altstroke" fill="none" stroke="#FFCF4B" stroke-width="2" stroke-linecap="round" stroke-linejoin="round" stroke-miterlimit="10" x1="13.21" y1="28.66" x2="9.26" y2="29.28" data-animdata="
					{
						'steps':[
							{
								'duration':'0',
								'position':'0',
								'vars':{
									'drawSVG':'0% 0%'
								}
							},
							{
								'duration':'1',
								'vars':{
									'drawSVG':'0% 100%'
								}
							}
						]
					}
				"/>
			
				<line class="lievo-altstroke" fill="none" stroke="#FFCF4B" stroke-width="2" stroke-linecap="round" stroke-linejoin="round" stroke-miterlimit="10" x1="14.47" y1="19.08" x2="10.82" y2="17.46" data-animdata="
					{
						'steps':[
							{
								'duration':'0',
								'position':'0',
								'vars':{
									'drawSVG':'0% 0%'
								}
							},
							{
								'duration':'1',
								'vars':{
									'drawSVG':'0% 100%'
								}
							}
						]
					}
				"/>
			
				<line class="lievo-altstroke" fill="none" stroke="#FFCF4B" stroke-width="2" stroke-linecap="round" stroke-linejoin="round" stroke-miterlimit="10" x1="20.74" y1="11.74" x2="18.56" y2="8.39" data-animdata="
					{
						'steps':[
							{
								'duration':'0',
								'position':'0',
								'vars':{
									'drawSVG':'0% 0%'
								}
							},
							{
								'duration':'1',
								'vars':{
									'drawSVG':'0% 100%'
								}
							}
						]
					}
				"/>
			
				<line class="lievo-altstroke" fill="none" stroke="#FFCF4B" stroke-width="2" stroke-linecap="round" stroke-linejoin="round" stroke-miterlimit="10" x1="30" y1="9" x2="30" y2="5" data-animdata="
					{
						'steps':[
							{
								'duration':'0',
								'position':'0',
								'vars':{
									'drawSVG':'0% 0%'
								}
							},
							{
								'duration':'1',
								'vars':{
									'drawSVG':'0% 100%'
								}
							}
						]
					}
				"/>
			
				<line class="lievo-altstroke" fill="none" stroke="#FFCF4B" stroke-width="2" stroke-linecap="round" stroke-linejoin="round" stroke-miterlimit="10" x1="39.26" y1="11.74" x2="41.44" y2="8.39" data-animdata="
					{
						'steps':[
							{
								'duration':'0',
								'position':'0',
								'vars':{
									'drawSVG':'0% 0%'
								}
							},
							{
								'duration':'1',
								'vars':{
									'drawSVG':'0% 100%'
								}
							}
						]
					}
				"/>
			
				<line class="lievo-altstroke" fill="none" stroke="#FFCF4B" stroke-width="2" stroke-linecap="round" stroke-linejoin="round" stroke-miterlimit="10" x1="45.53" y1="19.08" x2="49.18" y2="17.46" data-animdata="
					{
						'steps':[
							{
								'duration':'0',
								'position':'0',
								'vars':{
									'drawSVG':'0% 0%'
								}
							},
							{
								'duration':'1',
								'vars':{
									'drawSVG':'0% 100%'
								}
							}
						]
					}
				"/>
			
				<line class="lievo-altstroke" fill="none" stroke="#FFCF4B" stroke-width="2" stroke-linecap="round" stroke-linejoin="round" stroke-miterlimit="10" x1="46.79" y1="28.66" x2="50.74" y2="29.29" data-animdata="
					{
						'steps':[
							{
								'duration':'0',
								'position':'0',
								'vars':{
									'drawSVG':'0% 0%'
								}
							},
							{
								'duration':'1',
								'vars':{
									'drawSVG':'0% 100%'
								}
							}
						]
					}
				"/>
			
				<line class="lievo-altstroke" fill="none" stroke="#FFCF4B" stroke-width="2" stroke-linecap="round" stroke-linejoin="round" stroke-miterlimit="10" x1="42.63" y1="37.37" x2="45.61" y2="40.05" data-animdata="
					{
						'steps':[
							{
								'duration':'0',
								'position':'0',
								'vars':{
									'drawSVG':'0% 0%'
								}
							},
							{
								'duration':'1',
								'vars':{
									'drawSVG':'0% 100%'
								}
							}
						]
					}
				"/>
			</g>
		</g>

		<g class="lievo-morphendstate">
			<g class="lievo-filledicon">
				<path fill="#f9f9f9" stroke="#E0E0E0" stroke-width="2" stroke-linecap="round" stroke-linejoin="round" stroke-miterlimit="10" d="M35,43v-2c0-4.58,6-8.92,6-15c0-6.07-4.92-11-11-11c-6.07,0-11,4.93-11,11c0,6.08,6,10.42,6,15v2"/>
			
				<path class="lievo-likestroke" fill="#7C8A99" stroke="#7C8A99" stroke-width="2" stroke-linecap="round" stroke-linejoin="round" stroke-miterlimit="10" d="M30,43h5v4c0,2.21-2,3-3,4h-4c-1-1-3-1.79-3-4v-4H30"/>
				
				<path class="lievo-savelinecap" fill="none" stroke="#FFCF4B" stroke-width="2" stroke-linecap="round" stroke-linejoin="round" stroke-miterlimit="10" d="M30,37l-5-12l3,2l2-2l2,2l3-2L30,37" opacity="1" data-animdata="
					{
						'steps':[
							{
								'duration':'1',
								'position':'0',
								'vars':{
									'opacity':'0.6'
								}
							}
						]
					}
				"/>
			</g>

			<g class="lievo-lineicon">
				<path fill="none" stroke="#34495E" stroke-width="2" stroke-linecap="square" stroke-miterlimit="10" d="M30,45h5v2c0,2.21-2,3-3,4h-4c-1-1-3-1.79-3-4v-2H30"/>
			
				<path fill="none" stroke="#34495E" stroke-width="2" stroke-linecap="square" stroke-linejoin="round" stroke-miterlimit="10" d="M25,41c0-4.58-6-8.92-6-15c0-6.07,4.93-11,11-11c6.08,0,11,4.93,11,11c0,6.08-6,10.42-6,15"/>
			
				<path class="lievo-savelinecap lievo-altstroke" fill="none" stroke="#34495E" stroke-width="2" stroke-linecap="round" stroke-linejoin="round" stroke-miterlimit="10" d="M30,37l-5-12l3,2l2-2l2,2l3-2L30,37" opacity="1" data-animdata="
					{
						'steps':[
							{
								'duration':'1',
								'position':'0',
								'vars':{
									'opacity':'0.6'
								}
							}
						]
					}
				"/>
			</g>

			<g class="lievo-solidicon">
				<path fill="none" stroke="#34495E" stroke-width="2" stroke-linecap="round" stroke-linejoin="round" stroke-miterlimit="10" d="M35,43v-2c0-4.58,6-8.92,6-15c0-6.07-4.92-11-11-11c-6.07,0-11,4.93-11,11c0,6.08,6,10.42,6,15v2"/>
			
				<path fill="#34495E" stroke="#34495E" stroke-width="2" stroke-linecap="round" stroke-linejoin="round" stroke-miterlimit="10" d="M30,43h5v4c0,2.21-2,3-3,4h-4c-1-1-3-1.79-3-4v-4H30"/>
			
				<path class="lievo-savelinecap" fill="none" stroke="#34495E" stroke-width="2" stroke-linecap="round" stroke-linejoin="round" stroke-miterlimit="10" d="M30,37l-5-12l3,2l2-2l2,2l3-2L30,37" opacity="1" data-animdata="
					{
						'steps':[
							{
								'duration':'1',
								'position':'0',
								'vars':{
									'opacity':'0.6'
								}
							}
						]
					}
				"/>
			</g>
			
			<g class="lievo-common" opacity="1" data-animdata="
				{
					'steps':[
						{
							'duration':'1',
							'position':'0',
							'vars':{
								'opacity':'0',
								'scale':'0.8',
								'svgOrigin':'30 26'
							}
						}
					]
				}
			">
				<line class="lievo-altstroke" fill="none" stroke="#FFCF4B" stroke-width="2" stroke-linecap="round" stroke-linejoin="round" stroke-miterlimit="10" x1="17.37" y1="37.38" x2="14.39" y2="40.05" data-animdata="
					{
						'steps':[
							{
								'duration':'0',
								'position':'0',
								'vars':{
									'drawSVG':'0% 100%'
								}
							},
							{
								'duration':'1',
								'vars':{
									'drawSVG':'0% 0%'
								}
							}
						]
					}
				"/>
			
				<line class="lievo-altstroke" fill="none" stroke="#FFCF4B" stroke-width="2" stroke-linecap="round" stroke-linejoin="round" stroke-miterlimit="10" x1="13.21" y1="28.66" x2="9.26" y2="29.28" data-animdata="
					{
						'steps':[
							{
								'duration':'0',
								'position':'0',
								'vars':{
									'drawSVG':'0% 100%'
								}
							},
							{
								'duration':'1',
								'vars':{
									'drawSVG':'0% 0%'
								}
							}
						]
					}
				"/>
			
				<line class="lievo-altstroke" fill="none" stroke="#FFCF4B" stroke-width="2" stroke-linecap="round" stroke-linejoin="round" stroke-miterlimit="10" x1="14.47" y1="19.08" x2="10.82" y2="17.46" data-animdata="
					{
						'steps':[
							{
								'duration':'0',
								'position':'0',
								'vars':{
									'drawSVG':'0% 100%'
								}
							},
							{
								'duration':'1',
								'vars':{
									'drawSVG':'0% 0%'
								}
							}
						]
					}
				"/>
			
				<line class="lievo-altstroke" fill="none" stroke="#FFCF4B" stroke-width="2" stroke-linecap="round" stroke-linejoin="round" stroke-miterlimit="10" x1="20.74" y1="11.74" x2="18.56" y2="8.39" data-animdata="
					{
						'steps':[
							{
								'duration':'0',
								'position':'0',
								'vars':{
									'drawSVG':'0% 100%'
								}
							},
							{
								'duration':'1',
								'vars':{
									'drawSVG':'0% 0%'
								}
							}
						]
					}
				"/>
			
				<line class="lievo-altstroke" fill="none" stroke="#FFCF4B" stroke-width="2" stroke-linecap="round" stroke-linejoin="round" stroke-miterlimit="10" x1="30" y1="9" x2="30" y2="5" data-animdata="
					{
						'steps':[
							{
								'duration':'0',
								'position':'0',
								'vars':{
									'drawSVG':'0% 100%'
								}
							},
							{
								'duration':'1',
								'vars':{
									'drawSVG':'0% 0%'
								}
							}
						]
					}
				"/>
			
				<line class="lievo-altstroke" fill="none" stroke="#FFCF4B" stroke-width="2" stroke-linecap="round" stroke-linejoin="round" stroke-miterlimit="10" x1="39.26" y1="11.74" x2="41.44" y2="8.39" data-animdata="
					{
						'steps':[
							{
								'duration':'0',
								'position':'0',
								'vars':{
									'drawSVG':'0% 100%'
								}
							},
							{
								'duration':'1',
								'vars':{
									'drawSVG':'0% 0%'
								}
							}
						]
					}
				"/>
			
				<line class="lievo-altstroke" fill="none" stroke="#FFCF4B" stroke-width="2" stroke-linecap="round" stroke-linejoin="round" stroke-miterlimit="10" x1="45.53" y1="19.08" x2="49.18" y2="17.46" data-animdata="
					{
						'steps':[
							{
								'duration':'0',
								'position':'0',
								'vars':{
									'drawSVG':'0% 100%'
								}
							},
							{
								'duration':'1',
								'vars':{
									'drawSVG':'0% 0%'
								}
							}
						]
					}
				"/>
			
				<line class="lievo-altstroke" fill="none" stroke="#FFCF4B" stroke-width="2" stroke-linecap="round" stroke-linejoin="round" stroke-miterlimit="10" x1="46.79" y1="28.66" x2="50.74" y2="29.29" data-animdata="
					{
						'steps':[
							{
								'duration':'0',
								'position':'0',
								'vars':{
									'drawSVG':'0% 100%'
								}
							},
							{
								'duration':'1',
								'vars':{
									'drawSVG':'0% 0%'
								}
							}
						]
					}
				"/>
			
				<line class="lievo-altstroke" fill="none" stroke="#FFCF4B" stroke-width="2" stroke-linecap="round" stroke-linejoin="round" stroke-miterlimit="10" x1="42.63" y1="37.37" x2="45.61" y2="40.05" data-animdata="
					{
						'steps':[
							{
								'duration':'0',
								'position':'0',
								'vars':{
									'drawSVG':'0% 100%'
								}
							},
							{
								'duration':'1',
								'vars':{
									'drawSVG':'0% 0%'
								}
							}
						]
					}
				"/>
			</g>
		</g>
	</g>
</svg>