<svg version="1.1" xmlns="http://www.w3.org/2000/svg" xmlns:xlink="http://www.w3.org/1999/xlink" viewBox="0 0 60 60" xml:space="preserve" data-animoptions="{'duration':'0.3'}">
	<g class="lievo-main">
		<g class="lievo-morphstartstate">
			<g class="lievo-common">
				<line fill="none" stroke="#34495E" stroke-width="2" stroke-linecap="square" stroke-miterlimit="10" x1="36.31" y1="36.31" x2="52" y2="52"/>
				<path fill="#82CEF9" stroke="#34495E" stroke-width="2" stroke-miterlimit="10" d="M13.69,13.69C16.58,10.79,20.58,9,25,9c8.83,0,16,7.16,16,16c0,8.83-7.17,16-16,16c-8.84,0-16-7.17-16-16C9,20.58,10.79,16.58,13.69,13.69z"/>
				<defs>
					<clipPath id="livicon_morph_zoom_s">
						<path class="lievo-donotdraw lievo-nohovercolor lievo-nohoverstroke" d="M13.69,13.79c2.9-2.9,6.9-4.69,11.31-4.69c8.83,0,16,7.16,16,16c0,8.83-7.17,16-16,16c-8.84,0-16-7.17-16-16C9,20.68,10.79,16.68,13.69,13.79z"/>
					</clipPath>
				</defs>
				<g clip-path="url(#livicon_morph_zoom_s)">
					<g transform="matrix(0.001, 0, 0, 0.001, 24.975, 24.975)" data-animdata="
						{
							'steps':[
								{
									'duration':'1',
									'position':'0',
									'vars':{
										'scale':'1',
										'transformOrigin':'center center'
									}
								}
							]
						}
					">
						<line class="lievo-altstroke lievo-solidbg lievo-donotdraw" fill="none" stroke="#34495E" stroke-width="2" stroke-linecap="square" stroke-miterlimit="10" x1="17" y1="25" x2="33" y2="25"/>
					</g>
					<g data-animdata="
						{
							'steps':[
								{
									'duration':'1',
									'position':'0',
									'vars':{
										'scale':'4',
										'opacity':'0',
										'transformOrigin':'center center'
									}
								}
							]
						}
					">
						<line class="lievo-altstroke lievo-solidbg" fill="none" stroke="#34495E" stroke-width="2" stroke-linecap="square" stroke-miterlimit="10" x1="17" y1="25" x2="33" y2="25"/>
						<line class="lievo-altstroke lievo-solidbg" fill="none" stroke="#34495E" stroke-width="2" stroke-linecap="square" stroke-miterlimit="10" x1="25" y1="17" x2="25" y2="33"/>
					</g>
				</g>
			</g>
		</g>

		<g class="lievo-morphendstate">
			<g class="lievo-common">
				<line fill="none" stroke="#34495E" stroke-width="2" stroke-linecap="square" stroke-miterlimit="10" x1="36.31" y1="36.31" x2="52" y2="52"/>
				<path fill="#82CEF9" stroke="#34495E" stroke-width="2" stroke-miterlimit="10" d="M13.69,13.69C16.58,10.79,20.58,9,25,9c8.83,0,16,7.16,16,16c0,8.83-7.17,16-16,16c-8.84,0-16-7.17-16-16C9,20.58,10.79,16.58,13.69,13.69z"/>
				<defs>
					<clipPath id="livicon_morph_zoom_e">
						<path class="lievo-donotdraw lievo-nohovercolor lievo-nohoverstroke" d="M13.69,13.79c2.9-2.9,6.9-4.69,11.31-4.69c8.83,0,16,7.16,16,16c0,8.83-7.17,16-16,16c-8.84,0-16-7.17-16-16C9,20.68,10.79,16.68,13.69,13.79z"/>
					</clipPath>
				</defs>
				<g clip-path="url(#livicon_morph_zoom_e)">
					<g data-animdata="
						{
							'steps':[
								{
									'duration':'1',
									'position':'0',
									'vars':{
										'scale':'0.001',
										'transformOrigin':'center center'
									}
								}
							]
						}
					">
						<line class="lievo-altstroke lievo-solidbg" fill="none" stroke="#34495E" stroke-width="2" stroke-linecap="square" stroke-miterlimit="10" x1="17" y1="25" x2="33" y2="25"/>
					</g>
					<g transform="matrix(4, 0, 0, 4, -75, -75)" opacity="0" data-animdata="
						{
							'steps':[
								{
									'duration':'1',
									'position':'0',
									'vars':{
										'scale':'1',
										'opacity':'1',
										'transformOrigin':'center center'
									}
								}
							]
						}
					">
						<line class="lievo-altstroke lievo-solidbg lievo-donotdraw" fill="none" stroke="#34495E" stroke-width="2" stroke-linecap="square" stroke-miterlimit="10" x1="17" y1="25" x2="33" y2="25"/>
						<line class="lievo-altstroke lievo-solidbg lievo-donotdraw" fill="none" stroke="#34495E" stroke-width="2" stroke-linecap="square" stroke-miterlimit="10" x1="25" y1="17" x2="25" y2="33"/>
					</g>
				</g>
			</g>
		</g>
	</g>
</svg>