<svg version="1.1" xmlns="http://www.w3.org/2000/svg" xmlns:xlink="http://www.w3.org/1999/xlink" viewBox="0 0 60 60" xml:space="preserve" data-animoptions="{'duration':'0.2'}">
	<g class="lievo-main">
		<g class="lievo-morphstartstate">
			<g class="lievo-filledicon">
				<path fill="#fff78c" stroke="#deb94a" stroke-width="2" stroke-linecap="square" stroke-miterlimit="2" d="M28,15h-3l-1.55-3.11C23.2,11.4,22.55,11,22,11h-8c-0.55,0-1.2,0.4-1.45,0.89L11,15H9c-1.1,0-2,0.9-2,2c0,6.64,0,27.61,0,29c0,1.66,1.34,3,3,3h37V17c0-1.1-0.9-2-2-2H28z" data-animdata="
					{
						'steps':[
							{
								'duration':'1',
								'position':'0',
								'vars':{
									'morphSVG':{'shape':'M24,19h-3l-2.4-3.2C18.27,15.36,17.55,15,17,15H9c-0.55,0-1.11,0.43-1.24,0.97L7,19H5c-1.1,0-1.88,0.89-1.74,1.98C4.09,27.31,6.65,44.68,7,46c0.42,1.6,1.34,3,3,3h37l-3.75-28.02C43.11,19.89,42.1,19,41,19H24z','shapeIndex':'auto'},
									'ease':'Power3.easeInOut'
								}
							}
						]
					}
				"/>
				<path fill="#fff78c" stroke="#deb94a" stroke-width="2" stroke-linecap="square" stroke-miterlimit="2" d="M33,21h18c1.1,0,2,0.9,2,2v23c0,1.66-1.34,3-3,3H10c1.66,0,3-1.34,3-3c0-1.15,0-16.94,0-23c0-1.1,0.9-2,2-2H33z" data-animdata="
					{
						'steps':[
							{
								'duration':'1',
								'position':'0',
								'vars':{
									'morphSVG':{'shape':'M37,25h18.3c1.1,0,1.86,0.88,1.67,1.97C56.1,32.26,53.44,44.44,53,46c-0.48,1.71-1.34,3-3,3H10c1.66,0,2.54-1.41,3-3c0.34-1.19,3.08-13.67,3.97-19.03C17.15,25.88,18.2,25,19.3,25H37z','shapeIndex':'auto'},
									'ease':'Power3.easeInOut'
								}
							}
						]
					}
				"/>
			</g>

			<g class="lievo-lineicon">
				<path class="lievo-altstroke lievo-savelinecap" fill="none" stroke="#34495E" stroke-width="2" stroke-linecap="butt" stroke-miterlimit="2" d="M47,21v-4c0-1.1-0.9-2-2-2H25l-1.55-3.11C23.2,11.4,22.55,11,22,11h-8c-0.55,0-1.2,0.4-1.45,0.89L11,15H9c-1.1,0-2,0.9-2,2c0,6.64,0,27.61,0,29c0,1.66,1.34,3,3,3h1" data-animdata="
					{
						'steps':[
							{
								'duration':'1',
								'position':'0',
								'vars':{
									'morphSVG':{'shape':'M43.79,25l-0.54-4.02C43.11,19.89,42.1,19,41,19H21l-2.4-3.2C18.27,15.36,17.55,15,17,15H9c-0.55,0-1.11,0.43-1.24,0.97L7,19H5c-1.1,0-1.88,0.89-1.74,1.98C4.09,27.31,6.65,44.68,7,46c0.42,1.6,1.34,3,3,3h1','shapeIndex':'auto'},
									'ease':'Power3.easeInOut'
								}
							}
						]
					}
				"/>
				
				<path fill="none" stroke="#34495E" stroke-width="2" stroke-miterlimit="2" d="M33,21h18c1.1,0,2,0.9,2,2v23c0,1.66-1.34,3-3,3H10c1.66,0,3-1.34,3-3c0-1.15,0-16.94,0-23c0-1.1,0.9-2,2-2H33z" data-animdata="
					{
						'steps':[
							{
								'duration':'1',
								'position':'0',
								'vars':{
									'morphSVG':{'shape':'M37,25h18.3c1.1,0,1.86,0.88,1.67,1.97C56.1,32.26,53.44,44.44,53,46c-0.48,1.71-1.34,3-3,3H10c1.66,0,2.54-1.41,3-3c0.34-1.19,3.08-13.67,3.97-19.03C17.15,25.88,18.2,25,19.3,25H37z','shapeIndex':'auto'},
									'ease':'Power3.easeInOut'
								}
							}
						]
					}
				"/>
			</g>

			<g class="lievo-solidicon">
				<path fill="none" stroke="#34495E" stroke-width="2" stroke-linecap="square" stroke-miterlimit="2" d="M47,21v-4c0-1.1-0.9-2-2-2H25l-1.55-3.11C23.2,11.4,22.55,11,22,11h-8c-0.55,0-1.2,0.4-1.45,0.89L11,15H9c-1.1,0-2,0.9-2,2c0,6.64,0,27.61,0,29c0,1.66,1.34,3,3,3h1" data-animdata="
					{
						'steps':[
							{
								'duration':'1',
								'position':'0',
								'vars':{
									'morphSVG':{'shape':'M43.79,25l-0.54-4.02C43.11,19.89,42.1,19,41,19H21l-2.4-3.2C18.27,15.36,17.55,15,17,15H9c-0.55,0-1.11,0.43-1.24,0.97L7,19H5c-1.1,0-1.88,0.89-1.74,1.98C4.09,27.31,6.65,44.68,7,46c0.42,1.6,1.34,3,3,3h1','shapeIndex':'auto'},
									'ease':'Power3.easeInOut'
								}
							}
						]
					}
				"/>
				
				<path fill="#34495E" stroke="#34495E" stroke-width="2" stroke-miterlimit="2" d="M33,21h18c1.1,0,2,0.9,2,2v23c0,1.66-1.34,3-3,3H10c1.66,0,3-1.34,3-3c0-1.15,0-16.94,0-23c0-1.1,0.9-2,2-2H33z" data-animdata="
					{
						'steps':[
							{
								'duration':'1',
								'position':'0',
								'vars':{
									'morphSVG':{'shape':'M37,25h18.3c1.1,0,1.86,0.88,1.67,1.97C56.1,32.26,53.44,44.44,53,46c-0.48,1.71-1.34,3-3,3H10c1.66,0,2.54-1.41,3-3c0.34-1.19,3.08-13.67,3.97-19.03C17.15,25.88,18.2,25,19.3,25H37z','shapeIndex':'auto'},
									'ease':'Power3.easeInOut'
								}
							}
						]
					}
				"/>
			</g>
		</g>

		<g class="lievo-morphendstate">
			<g class="lievo-filledicon">
				<path fill="#fff78c" stroke="#deb94a" stroke-width="2" stroke-linecap="square" stroke-miterlimit="2" d="M24,19h-3l-2.4-3.2C18.27,15.36,17.55,15,17,15H9c-0.55,0-1.11,0.43-1.24,0.97L7,19H5c-1.1,0-1.88,0.89-1.74,1.98C4.09,27.31,6.65,44.68,7,46c0.42,1.6,1.34,3,3,3h37l-3.75-28.02C43.11,19.89,42.1,19,41,19H24z" data-animdata="
					{
						'steps':[
							{
								'duration':'1',
								'position':'0',
								'vars':{
									'morphSVG':{'shape':'M28,15h-3l-1.55-3.11C23.2,11.4,22.55,11,22,11h-8c-0.55,0-1.2,0.4-1.45,0.89L11,15H9c-1.1,0-2,0.9-2,2c0,6.64,0,27.61,0,29c0,1.66,1.34,3,3,3h37V17c0-1.1-0.9-2-2-2H28z','shapeIndex':'auto'},
									'ease':'Power3.easeInOut'
								}
							}
						]
					}
				"/>
				<path fill="#fff78c" stroke="#deb94a" stroke-width="2" stroke-linecap="square" stroke-miterlimit="2" d="M37,25h18.3c1.1,0,1.86,0.88,1.67,1.97C56.1,32.26,53.44,44.44,53,46c-0.48,1.71-1.34,3-3,3H10c1.66,0,2.54-1.41,3-3c0.34-1.19,3.08-13.67,3.97-19.03C17.15,25.88,18.2,25,19.3,25H37z" data-animdata="
					{
						'steps':[
							{
								'duration':'1',
								'position':'0',
								'vars':{
									'morphSVG':{'shape':'M33,21h18c1.1,0,2,0.9,2,2v23c0,1.66-1.34,3-3,3H10c1.66,0,3-1.34,3-3c0-1.15,0-16.94,0-23c0-1.1,0.9-2,2-2H33z','shapeIndex':'auto'},
									'ease':'Power3.easeInOut'
								}
							}
						]
					}
				"/>
			</g>

			<g class="lievo-lineicon">
				<path class="lievo-altstroke lievo-savelinecap" fill="none" stroke="#34495E" stroke-width="2" stroke-linecap="butt" stroke-miterlimit="2" d="M43.79,25l-0.54-4.02C43.11,19.89,42.1,19,41,19H21l-2.4-3.2C18.27,15.36,17.55,15,17,15H9c-0.55,0-1.11,0.43-1.24,0.97L7,19H5c-1.1,0-1.88,0.89-1.74,1.98C4.09,27.31,6.65,44.68,7,46c0.42,1.6,1.34,3,3,3h1" data-animdata="
					{
						'steps':[
							{
								'duration':'1',
								'position':'0',
								'vars':{
									'morphSVG':{'shape':'M47,21v-4c0-1.1-0.9-2-2-2H25l-1.55-3.11C23.2,11.4,22.55,11,22,11h-8c-0.55,0-1.2,0.4-1.45,0.89L11,15H9c-1.1,0-2,0.9-2,2c0,6.64,0,27.61,0,29c0,1.66,1.34,3,3,3h1','shapeIndex':'auto'},
									'ease':'Power3.easeInOut'
								}
							}
						]
					}
				"/>
				
				<path fill="none" stroke="#34495E" stroke-width="2" stroke-miterlimit="2" d="M37,25h18.3c1.1,0,1.86,0.88,1.67,1.97C56.1,32.26,53.44,44.44,53,46c-0.48,1.71-1.34,3-3,3H10c1.66,0,2.54-1.41,3-3c0.34-1.19,3.08-13.67,3.97-19.03C17.15,25.88,18.2,25,19.3,25H37z" data-animdata="
					{
						'steps':[
							{
								'duration':'1',
								'position':'0',
								'vars':{
									'morphSVG':{'shape':'M33,21h18c1.1,0,2,0.9,2,2v23c0,1.66-1.34,3-3,3H10c1.66,0,3-1.34,3-3c0-1.15,0-16.94,0-23c0-1.1,0.9-2,2-2H33z','shapeIndex':'auto'},
									'ease':'Power3.easeInOut'
								}
							}
						]
					}
				"/>
			</g>

			<g class="lievo-solidicon">
				<path fill="none" stroke="#34495E" stroke-width="2" stroke-linecap="square" stroke-miterlimit="2" d="M43.79,25l-0.54-4.02C43.11,19.89,42.1,19,41,19H21l-2.4-3.2C18.27,15.36,17.55,15,17,15H9c-0.55,0-1.11,0.43-1.24,0.97L7,19H5c-1.1,0-1.88,0.89-1.74,1.98C4.09,27.31,6.65,44.68,7,46c0.42,1.6,1.34,3,3,3h1" data-animdata="
					{
						'steps':[
							{
								'duration':'1',
								'position':'0',
								'vars':{
									'morphSVG':{'shape':'M47,21v-4c0-1.1-0.9-2-2-2H25l-1.55-3.11C23.2,11.4,22.55,11,22,11h-8c-0.55,0-1.2,0.4-1.45,0.89L11,15H9c-1.1,0-2,0.9-2,2c0,6.64,0,27.61,0,29c0,1.66,1.34,3,3,3h1','shapeIndex':'auto'},
									'ease':'Power3.easeInOut'
								}
							}
						]
					}
				"/>
				
				<path fill="#34495E" stroke="#34495E" stroke-width="2" stroke-miterlimit="2" d="M37,25h18.3c1.1,0,1.86,0.88,1.67,1.97C56.1,32.26,53.44,44.44,53,46c-0.48,1.71-1.34,3-3,3H10c1.66,0,2.54-1.41,3-3c0.34-1.19,3.08-13.67,3.97-19.03C17.15,25.88,18.2,25,19.3,25H37z" data-animdata="
					{
						'steps':[
							{
								'duration':'1',
								'position':'0',
								'vars':{
									'morphSVG':{'shape':'M33,21h18c1.1,0,2,0.9,2,2v23c0,1.66-1.34,3-3,3H10c1.66,0,3-1.34,3-3c0-1.15,0-16.94,0-23c0-1.1,0.9-2,2-2H33z','shapeIndex':'auto'},
									'ease':'Power3.easeInOut'
								}
							}
						]
					}
				"/>
			</g>
		</g>
	</g>
</svg>