<svg version="1.1" xmlns="http://www.w3.org/2000/svg" xmlns:xlink="http://www.w3.org/1999/xlink" viewBox="0 0 60 60" xml:space="preserve" data-animoptions="{'duration':'0.3'}">
	<g class="lievo-main">
		<g class="lievo-morphstartstate">
			<g class="lievo-filledicon lievo-lineicon">
				<defs>
					<clipPath id="livicon_morph_preview_s">
						<path class="lievo-donotdraw lievo-nohovercolor lievo-nohoverstroke" d="M30,90.81L-30.81,30L30-30.81L90.81,30L30,90.81z M62.53,3.13l-5.66-5.66l-59.4,59.4l5.66,5.66L62.53,3.13z" data-animdata="
							{
								'steps':[
									{
										'duration':'1',
										'position':'0',
										'vars':{
											'path':'M30,90.81L-30.81,30L30-30.81L90.81,30L30,90.81z M32.83,32.83l-5.66-5.66l0,0L32.83,32.83L32.83,32.83z',
											'ease':'Power1.easeInOut'
										}
									}
								]
							}
						"/>
					</clipPath>
				</defs>
				<g clip-path="url(#livicon_morph_preview_s)">
					<path fill="#F5F7FF" stroke="#34495E" stroke-width="2" stroke-linecap="square" stroke-miterlimit="2" d="M51,30c0,0-9.27,11-21,11c-9.16,0-17.48-6.44-21-11c3.95-5.12,12.4-11,21-11C41.73,19,51,30,51,30z"/>
					<circle fill="#2C3E50" stroke="#34495E" stroke-width="2" stroke-linecap="square" stroke-miterlimit="2" cx="30" cy="30" r="7"/>
					<path class="lievo-savelinecap lievo-altstroke" fill="none" stroke="#F5F7FF" stroke-width="2" stroke-linecap="round" stroke-miterlimit="2" d="M29,27c2.28-0.27,4.33,1.34,4,4" opacity="0" data-animdata="
						{
							'steps':[
								{
									'duration':'0',
									'position':'1',
									'vars':{
										'opacity':'1'
									}
								}
							]
						}
					"/>
				</g>
				<path class="lievo-altstroke" fill="none" stroke="#34495E" stroke-width="2" stroke-linecap="square" stroke-miterlimit="2" d="M50,10L10,50" opacity="1" data-animdata="
					{
						'steps':[
							{
								'duration':'1',
								'position':'0',
								'vars':{
									'path':'M30,30L30,30',
									'ease':'Power1.easeInOut'
								}
							},
							{
								'duration':'0',
								'vars':{
									'opacity':'0'
								}
							}
						]
					}
				"/>
			</g>

			<g class="lievo-solidicon">
				<defs>
					<clipPath id="livicon_morph_preview_s">
						<path class="lievo-donotdraw lievo-nohovercolor lievo-nohoverstroke" d="M30,90.81L-30.81,30L30-30.81L90.81,30L30,90.81z M62.53,3.13l-5.66-5.66l-59.4,59.4l5.66,5.66L62.53,3.13z" data-animdata="
							{
								'steps':[
									{
										'duration':'1',
										'position':'0',
										'vars':{
											'path':'M30,90.81L-30.81,30L30-30.81L90.81,30L30,90.81z M32.83,32.83l-5.66-5.66l0,0L32.83,32.83L32.83,32.83z',
											'ease':'Power1.easeInOut'
										}
									}
								]
							}
						"/>
					</clipPath>
				</defs>
				<g clip-path="url(#livicon_morph_preview_s)">
					<path fill="#F5F7FF" stroke="#34495E" stroke-width="2" stroke-linecap="square" stroke-miterlimit="2" d="M51,30c0,0-9.27,11-21,11c-9.16,0-17.48-6.44-21-11c3.95-5.12,12.4-11,21-11C41.73,19,51,30,51,30z"/>
					<circle class="lievo-solidbg" fill="none" stroke="#34495E" stroke-width="2" stroke-linecap="square" stroke-miterlimit="2" cx="30" cy="30" r="7"/>
					<path class="lievo-savelinecap lievo-solidbg" fill="none" stroke="#F5F7FF" stroke-width="2" stroke-linecap="round" stroke-miterlimit="2" d="M29,27c2.28-0.27,4.33,1.34,4,4" opacity="0" data-animdata="
						{
							'steps':[
								{
									'duration':'0',
									'position':'1',
									'vars':{
										'opacity':'1'
									}
								}
							]
						}
					"/>
				</g>
				<path fill="none" stroke="#34495E" stroke-width="2" stroke-linecap="square" stroke-miterlimit="2" d="M50,10L10,50" opacity="1" data-animdata="
					{
						'steps':[
							{
								'duration':'1',
								'position':'0',
								'vars':{
									'path':'M30,30L30,30',
									'ease':'Power1.easeInOut'
								}
							},
							{
								'duration':'0',
								'vars':{
									'opacity':'0'
								}
							}
						]
					}
				"/>
			</g>
		</g>

		<g class="lievo-morphendstate">
			<g class="lievo-filledicon lievo-lineicon">
				<defs>
					<clipPath id="livicon_morph_preview_e">
						<path class="lievo-donotdraw lievo-nohovercolor lievo-nohoverstroke" d="M30,90.81L-30.81,30L30-30.81L90.81,30L30,90.81z M32.83,32.83l-5.66-5.66l0,0L32.83,32.83L32.83,32.83z" data-animdata="
							{
								'steps':[
									{
										'duration':'1',
										'position':'0',
										'vars':{
											'path':'M30,90.81L-30.81,30L30-30.81L90.81,30L30,90.81z M62.53,3.13l-5.66-5.66l-59.4,59.4l5.66,5.66L62.53,3.13z',
											'ease':'Power1.easeInOut'
										}
									}
								]
							}
						"/>
					</clipPath>
				</defs>
				<g clip-path="url(#livicon_morph_preview_e)">
					<path fill="#F5F7FF" stroke="#34495E" stroke-width="2" stroke-linecap="square" stroke-miterlimit="2" d="M51,30c0,0-9.27,11-21,11c-9.16,0-17.48-6.44-21-11c3.95-5.12,12.4-11,21-11C41.73,19,51,30,51,30z"/>
					<circle fill="#2C3E50" stroke="#34495E" stroke-width="2" stroke-linecap="square" stroke-miterlimit="2" cx="30" cy="30" r="7"/>
					<path class="lievo-savelinecap lievo-altstroke" fill="none" stroke="#F5F7FF" stroke-width="2" stroke-linecap="round" stroke-miterlimit="2" d="M29,27c2.28-0.27,4.33,1.34,4,4" opacity="1" data-animdata="
						{
							'steps':[
								{
									'duration':'0',
									'position':'0',
									'vars':{
										'opacity':'0'
									}
								}
							]
						}
					"/>
				</g>
				<path class="lievo-altstroke" fill="none" stroke="#34495E" stroke-width="2" stroke-linecap="square" stroke-miterlimit="2" d="M30,30L30,30" opacity="0" data-animdata="
					{
						'steps':[
							{
								'duration':'0',
								'position':'0',
								'vars':{
									'opacity':'1'
								}
							},
							{
								'duration':'1',
								'vars':{
									'path':'M50,10L10,50',
									'ease':'Power1.easeInOut'
								}
							}
						]
					}
				"/>
			</g>

			<g class="lievo-solidicon">
				<defs>
					<clipPath id="livicon_morph_preview_e">
						<path class="lievo-donotdraw lievo-nohovercolor lievo-nohoverstroke" d="M30,90.81L-30.81,30L30-30.81L90.81,30L30,90.81z M32.83,32.83l-5.66-5.66l0,0L32.83,32.83L32.83,32.83z" data-animdata="
							{
								'steps':[
									{
										'duration':'1',
										'position':'0',
										'vars':{
											'path':'M30,90.81L-30.81,30L30-30.81L90.81,30L30,90.81z M62.53,3.13l-5.66-5.66l-59.4,59.4l5.66,5.66L62.53,3.13z',
											'ease':'Power1.easeInOut'
										}
									}
								]
							}
						"/>
					</clipPath>
				</defs>
				<g clip-path="url(#livicon_morph_preview_e)">
					<path fill="#F5F7FF" stroke="#34495E" stroke-width="2" stroke-linecap="square" stroke-miterlimit="2" d="M51,30c0,0-9.27,11-21,11c-9.16,0-17.48-6.44-21-11c3.95-5.12,12.4-11,21-11C41.73,19,51,30,51,30z"/>
					<circle class="lievo-solidbg" fill="none" stroke="#34495E" stroke-width="2" stroke-linecap="square" stroke-miterlimit="2" cx="30" cy="30" r="7"/>
					<path class="lievo-savelinecap lievo-solidbg" fill="none" stroke="#F5F7FF" stroke-width="2" stroke-linecap="round" stroke-miterlimit="2" d="M29,27c2.28-0.27,4.33,1.34,4,4" opacity="1" data-animdata="
						{
							'steps':[
								{
									'duration':'0',
									'position':'0',
									'vars':{
										'opacity':'0'
									}
								}
							]
						}
					"/>
				</g>
				<path fill="none" stroke="#34495E" stroke-width="2" stroke-linecap="square" stroke-miterlimit="2" d="M30,30L30,30" opacity="0" data-animdata="
					{
						'steps':[
							{
								'duration':'0',
								'position':'0',
								'vars':{
									'opacity':'1'
								}
							},
							{
								'duration':'1',
								'vars':{
									'path':'M50,10L10,50',
									'ease':'Power1.easeInOut'
								}
							}
						]
					}
				"/>
			</g>
		</g>
	</g>
</svg>