<svg version="1.1" xmlns="http://www.w3.org/2000/svg" xmlns:xlink="http://www.w3.org/1999/xlink" viewBox="0 0 60 60" xml:space="preserve" data-animoptions="{'duration':'0.2'}">
	<g class="lievo-main">
		<g class="lievo-morphstartstate">
			<g class="lievo-common">
				<path class="lievo-morphimage lievo-altstroke" fill="#29C5FF" stroke="#1297E0" stroke-width="2" stroke-linecap="square" stroke-miterlimit="10" d="M30,5h10.36L55,19.64v20.71L40.36,55H19.64L5,40.36V19.64L19.64,5H30z" data-animdata="
					{
						'steps':[
							{
								'duration':'1',
								'position':'0',
								'vars':{
									'morphSVG':{
										'shape':'M30,4.86c0.29,0,0.57,0.08,0.79,0.25l2.02,1.56c0.44,0.34,1.21,0.46,1.73,0.27l2.4-0.86c0.52-0.19,1.19,0.03,1.5,0.49l1.44,2.11c0.31,0.46,1.01,0.81,1.56,0.8l2.55-0.08c0.55-0.02,1.13,0.4,1.28,0.93l0.71,2.45c0.15,0.53,0.71,1.09,1.24,1.24l2.45,0.71c0.53,0.15,0.95,0.73,0.93,1.28l-0.08,2.55c-0.02,0.55,0.34,1.25,0.8,1.56l2.11,1.44c0.46,0.31,0.67,0.98,0.49,1.5l-0.86,2.4c-0.19,0.52-0.06,1.3,0.27,1.73l1.56,2.02c0.34,0.44,0.34,1.15,0,1.58l-1.56,2.02c-0.34,0.44-0.46,1.21-0.27,1.73l0.86,2.4c0.19,0.52-0.03,1.19-0.49,1.5l-2.11,1.43c-0.46,0.31-0.81,1.01-0.8,1.56l0.08,2.55c0.02,0.55-0.4,1.13-0.93,1.28l-2.45,0.71c-0.53,0.15-1.09,0.71-1.24,1.24l-0.71,2.45c-0.15,0.53-0.73,0.95-1.28,0.93l-2.55-0.08c-0.55-0.02-1.25,0.34-1.56,0.8l-1.44,2.11c-0.31,0.46-0.99,0.67-1.5,0.49l-2.4-0.86c-0.52-0.19-1.3-0.06-1.73,0.27l-2.02,1.56c-0.44,0.34-1.15,0.34-1.58,0l-2.02-1.56c-0.44-0.34-1.21-0.46-1.73-0.27l-2.4,0.86c-0.52,0.19-1.19-0.03-1.5-0.49l-1.44-2.11c-0.31-0.46-1.01-0.81-1.56-0.8l-2.55,0.08c-0.55,0.02-1.13-0.4-1.28-0.93l-0.71-2.45c-0.15-0.53-0.71-1.09-1.24-1.24l-2.45-0.71c-0.53-0.15-0.95-0.73-0.93-1.28l0.08-2.55c0.02-0.55-0.34-1.25-0.8-1.56l-2.11-1.43c-0.46-0.31-0.68-0.99-0.49-1.5l0.86-2.4c0.19-0.52,0.06-1.3-0.27-1.73l-1.56-2.02c-0.34-0.44-0.34-1.15,0-1.58l1.56-2.02c0.34-0.44,0.46-1.21,0.27-1.73l-0.86-2.4c-0.19-0.52,0.03-1.19,0.49-1.5l2.11-1.44c0.46-0.31,0.81-1.01,0.8-1.56L9.4,16.01c-0.02-0.55,0.4-1.13,0.93-1.28l2.45-0.71c0.53-0.15,1.09-0.71,1.24-1.24l0.71-2.45c0.15-0.53,0.73-0.95,1.28-0.93l2.55,0.08c0.55,0.02,1.25-0.34,1.56-0.8l1.44-2.11c0.31-0.46,0.98-0.68,1.5-0.49l2.4,0.86c0.52,0.19,1.3,0.06,1.73-0.27l2.02-1.56C29.43,4.94,29.71,4.86,30,4.86z',
										'shapeIndex':'0'
									}
								}
							}
						]
					}
				"/>
			</g>
		</g>

		<g class="lievo-morphendstate">
			<g class="lievo-common">
				<path class="lievo-morphimage lievo-altstroke" fill="#29C5FF" stroke="#1297E0" stroke-width="2" stroke-linecap="square" stroke-miterlimit="10" d="M30,4.86c0.29,0,0.57,0.08,0.79,0.25l2.02,1.56c0.44,0.34,1.21,0.46,1.73,0.27l2.4-0.86c0.52-0.19,1.19,0.03,1.5,0.49l1.44,2.11c0.31,0.46,1.01,0.81,1.56,0.8l2.55-0.08c0.55-0.02,1.13,0.4,1.28,0.93l0.71,2.45c0.15,0.53,0.71,1.09,1.24,1.24l2.45,0.71c0.53,0.15,0.95,0.73,0.93,1.28l-0.08,2.55c-0.02,0.55,0.34,1.25,0.8,1.56l2.11,1.44c0.46,0.31,0.67,0.98,0.49,1.5l-0.86,2.4c-0.19,0.52-0.06,1.3,0.27,1.73l1.56,2.02c0.34,0.44,0.34,1.15,0,1.58l-1.56,2.02c-0.34,0.44-0.46,1.21-0.27,1.73l0.86,2.4c0.19,0.52-0.03,1.19-0.49,1.5l-2.11,1.43c-0.46,0.31-0.81,1.01-0.8,1.56l0.08,2.55c0.02,0.55-0.4,1.13-0.93,1.28l-2.45,0.71c-0.53,0.15-1.09,0.71-1.24,1.24l-0.71,2.45c-0.15,0.53-0.73,0.95-1.28,0.93l-2.55-0.08c-0.55-0.02-1.25,0.34-1.56,0.8l-1.44,2.11c-0.31,0.46-0.99,0.67-1.5,0.49l-2.4-0.86c-0.52-0.19-1.3-0.06-1.73,0.27l-2.02,1.56c-0.44,0.34-1.15,0.34-1.58,0l-2.02-1.56c-0.44-0.34-1.21-0.46-1.73-0.27l-2.4,0.86c-0.52,0.19-1.19-0.03-1.5-0.49l-1.44-2.11c-0.31-0.46-1.01-0.81-1.56-0.8l-2.55,0.08c-0.55,0.02-1.13-0.4-1.28-0.93l-0.71-2.45c-0.15-0.53-0.71-1.09-1.24-1.24l-2.45-0.71c-0.53-0.15-0.95-0.73-0.93-1.28l0.08-2.55c0.02-0.55-0.34-1.25-0.8-1.56l-2.11-1.43c-0.46-0.31-0.68-0.99-0.49-1.5l0.86-2.4c0.19-0.52,0.06-1.3-0.27-1.73l-1.56-2.02c-0.34-0.44-0.34-1.15,0-1.58l1.56-2.02c0.34-0.44,0.46-1.21,0.27-1.73l-0.86-2.4c-0.19-0.52,0.03-1.19,0.49-1.5l2.11-1.44c0.46-0.31,0.81-1.01,0.8-1.56L9.4,16.01c-0.02-0.55,0.4-1.13,0.93-1.28l2.45-0.71c0.53-0.15,1.09-0.71,1.24-1.24l0.71-2.45c0.15-0.53,0.73-0.95,1.28-0.93l2.55,0.08c0.55,0.02,1.25-0.34,1.56-0.8l1.44-2.11c0.31-0.46,0.98-0.68,1.5-0.49l2.4,0.86c0.52,0.19,1.3,0.06,1.73-0.27l2.02-1.56C29.43,4.94,29.71,4.86,30,4.86z" data-animdata="
					{
						'steps':[
							{
								'duration':'1',
								'position':'0',
								'vars':{
									'morphSVG':{
										'shape':'M30,5h10.36L55,19.64v20.71L40.36,55H19.64L5,40.36V19.64L19.64,5H30z',
										'shapeIndex':'0'
									}
								}
							}
						]
					}
				"/>
			</g>
		</g>
	</g>
</svg>