<svg version="1.1" xmlns="http://www.w3.org/2000/svg" xmlns:xlink="http://www.w3.org/1999/xlink" viewBox="0 0 60 60" xml:space="preserve" data-animoptions="{'duration':'0.2'}">
	<g class="lievo-main">
		<g class="lievo-morphstartstate">
			<g class="lievo-filledicon">
				<defs>
					<clipPath id="livicon_m_map_s">
						<path class="lievo-donotdraw lievo-nohovercolor lievo-nohoverstroke" d="M30,13l7-4l14,8v34l-14-8l-14,8L9,43V9l14,8L30,13" data-animdata="
							{
								'steps':[
									{
										'duration':'1',
										'position':'0',
										'vars':{
											'path':'M30,13h9h16v34H39H21H5V13h16H30'
										}
									}
								]
							}
						"/>
					</clipPath>
				</defs>
				<path fill="#FFDCB5" stroke="#FFA27B" stroke-width="2" stroke-linecap="square" stroke-miterlimit="10" d="M30,13l7-4l14,8v34l-14-8l-14,8L9,43V9l14,8L30,13" data-animdata="
					{
						'steps':[
							{
								'duration':'1',
								'position':'0',
								'vars':{
									'path':'M30,13h9h16v34H39H21H5V13h16H30'
								}
							}
						]
					}
				"/>
				
				<g clip-path="url(#livicon_m_map_s)">
					<path fill="none" stroke="#FFA27B" stroke-width="2" stroke-linecap="square" stroke-miterlimit="10" d="M23,17v34" data-animdata="
						{
							'steps':[
								{
									'duration':'1',
									'position':'0',
									'vars':{
										'path':'M21,13v34',
										'scaleX':'0',
										'transformOrigin':'center center'
									}
								}
							]
						}
					"/>
					<path fill="none" stroke="#FFA27B" stroke-width="2" stroke-linecap="square" stroke-miterlimit="10" d="M37,9v34" data-animdata="
						{
							'steps':[
								{
									'duration':'1',
									'position':'0',
									'vars':{
										'path':'M39,13v34',
										'scaleX':'0',
										'transformOrigin':'center center'
									}
								}
							]
						}
					"/>
					<path class="lievo-donotdraw" fill="none" stroke="#B3421B" stroke-width="2" stroke-linecap="square" stroke-miterlimit="10" opacity="0" d="M64,34c-0.73,0.06-1.45,0.07-2.15,0.05 M52.47,31.48c1.13,0.57,2.31,1.08,3.54,1.5 M47.51,28.56c-1.2-0.77-2.37-1.55-3.52-2.26 M39,23.75C37.7,23.28,36.37,23,35,23 M30,24.92c-1.08,0.9-2.03,2.03-2.96,3.21 M19.92,34.52c1.38-0.48,2.54-1.29,3.58-2.27 M14.59,35.31c-1.31,0.32-2.61,0.89-3.89,1.61 M5.98,40.31C5.01,41.14,4.1,42,3.26,42.85 M-0.7,47.31C-1.53,48.34-2,49-2,49" data-animdata="
						{
							'steps':[
								{
									'duration':'0.5',
									'position':'0.5',
									'vars':{
										'opacity':'1'
									}
								}
							]
						}
					"/>
				</g>
			</g>

			<g class="lievo-lineicon">
				<defs>
					<clipPath id="livicon_m_map_s">
						<path class="lievo-donotdraw lievo-nohovercolor lievo-nohoverstroke" d="M30,13l7-4l14,8v34l-14-8l-14,8L9,43V9l14,8L30,13" data-animdata="
							{
								'steps':[
									{
										'duration':'1',
										'position':'0',
										'vars':{
											'path':'M30,13h9h16v34H39H21H5V13h16H30'
										}
									}
								]
							}
						"/>
					</clipPath>
				</defs>
				<g clip-path="url(#livicon_m_map_s)">
					<path class="lievo-altstroke" fill="none" stroke="#34495E" stroke-width="2" stroke-linecap="square" stroke-miterlimit="10" d="M23,17v34" data-animdata="
						{
							'steps':[
								{
									'duration':'1',
									'position':'0',
									'vars':{
										'path':'M21,13v34',
										'scaleX':'0',
										'transformOrigin':'center center'
									}
								}
							]
						}
					"/>
					<path class="lievo-altstroke" fill="none" stroke="#34495E" stroke-width="2" stroke-linecap="square" stroke-miterlimit="10" d="M37,9v34" data-animdata="
						{
							'steps':[
								{
									'duration':'1',
									'position':'0',
									'vars':{
										'path':'M39,13v34',
										'scaleX':'0',
										'transformOrigin':'center center'
									}
								}
							]
						}
					"/>
					<path class="lievo-donotdraw lievo-altstroke" fill="none" stroke="#34495E" stroke-width="2" stroke-linecap="square" stroke-miterlimit="10" opacity="0" d="M64,34c-0.73,0.06-1.45,0.07-2.15,0.05 M52.47,31.48c1.13,0.57,2.31,1.08,3.54,1.5 M47.51,28.56c-1.2-0.77-2.37-1.55-3.52-2.26 M39,23.75C37.7,23.28,36.37,23,35,23 M30,24.92c-1.08,0.9-2.03,2.03-2.96,3.21 M19.92,34.52c1.38-0.48,2.54-1.29,3.58-2.27 M14.59,35.31c-1.31,0.32-2.61,0.89-3.89,1.61 M5.98,40.31C5.01,41.14,4.1,42,3.26,42.85 M-0.7,47.31C-1.53,48.34-2,49-2,49" data-animdata="
						{
							'steps':[
								{
									'duration':'0.5',
									'position':'0.5',
									'vars':{
										'opacity':'1'
									}
								}
							]
						}
					"/>
				</g>
				<path fill="none" stroke="#34495E" stroke-width="2" stroke-linecap="square" stroke-miterlimit="10" d="M30,13l7-4l14,8v34l-14-8l-14,8L9,43V9l14,8L30,13" data-animdata="
					{
						'steps':[
							{
								'duration':'1',
								'position':'0',
								'vars':{
									'path':'M30,13h9h16v34H39H21H5V13h16H30'
								}
							}
						]
					}
				"/>
			</g>

			<g class="lievo-solidicon">
				<defs>
					<clipPath id="livicon_m_map_s">
						<path class="lievo-donotdraw lievo-nohovercolor lievo-nohoverstroke" d="M57,13v34H3V13H57z"/>
					</clipPath>
				</defs>
				<path fill="#34495E" stroke="#34495E" stroke-width="2" stroke-linecap="square" stroke-miterlimit="10" d="M30,13l7-4l14,8v34l-14-8l-14,8L9,43V9l14,8L30,13" data-animdata="
					{
						'steps':[
							{
								'duration':'1',
								'position':'0',
								'vars':{
									'path':'M30,13h9h16v34H39H21H5V13h16H30'
								}
							}
						]
					}
				"/>
				<path class="lievo-solidbg" fill="none" stroke="#34495E" stroke-width="2" stroke-linecap="square" stroke-miterlimit="10" d="M23,14v38.5" data-animdata="
					{
						'steps':[
							{
								'duration':'1',
								'position':'0',
								'vars':{
									'path':'M21,12v36',
									'scaleX':'0',
									'transformOrigin':'center center'
								}
							}
						]
					}
				"/>
				<path class="lievo-solidbg" fill="none" stroke="#34495E" stroke-width="2" stroke-linecap="square" stroke-miterlimit="10" d="M37,7.5v38" data-animdata="
					{
						'steps':[
							{
								'duration':'1',
								'position':'0',
								'vars':{
									'path':'M39,12v36',
									'scaleX':'0',
									'transformOrigin':'center center'
								}
							}
						]
					}
				"/>
				<g clip-path="url(#livicon_m_map_s)">
					
					<path class="lievo-donotdraw lievo-solidbg" fill="none" stroke="#34495E" stroke-width="2" stroke-linecap="square" stroke-miterlimit="10" opacity="0" d="M64,34c-0.73,0.06-1.45,0.07-2.15,0.05 M52.47,31.48c1.13,0.57,2.31,1.08,3.54,1.5 M47.51,28.56c-1.2-0.77-2.37-1.55-3.52-2.26 M39,23.75C37.7,23.28,36.37,23,35,23 M30,24.92c-1.08,0.9-2.03,2.03-2.96,3.21 M19.92,34.52c1.38-0.48,2.54-1.29,3.58-2.27 M14.59,35.31c-1.31,0.32-2.61,0.89-3.89,1.61 M5.98,40.31C5.01,41.14,4.1,42,3.26,42.85 M-0.7,47.31C-1.53,48.34-2,49-2,49" data-animdata="
						{
							'steps':[
								{
									'duration':'0.5',
									'position':'0.5',
									'vars':{
										'opacity':'1'
									}
								}
							]
						}
					"/>
				</g>
			</g>
		</g>

		<g class="lievo-morphendstate">
			<g class="lievo-filledicon">
				<defs>
					<clipPath id="livicon_m_map_e">
						<path class="lievo-donotdraw lievo-nohovercolor lievo-nohoverstroke" d="M30,13h9h16v34H39H21H5V13h16H30" data-animdata="
							{
								'steps':[
									{
										'duration':'1',
										'position':'0',
										'vars':{
											'path':'M30,13l7-4l14,8v34l-14-8l-14,8L9,43V9l14,8L30,13'
										}
									}
								]
							}
						"/>
					</clipPath>
				</defs>
				<path fill="#FFDCB5" stroke="#FFA27B" stroke-width="2" stroke-linecap="square" stroke-miterlimit="10" d="M30,13h9h16v34H39H21H5V13h16H30" data-animdata="
					{
						'steps':[
							{
								'duration':'1',
								'position':'0',
								'vars':{
									'path':'M30,13l7-4l14,8v34l-14-8l-14,8L9,43V9l14,8L30,13'
								}
							}
						]
					}
				"/>
				
				<g clip-path="url(#livicon_m_map_e)">
					<path class="lievo-donotdraw" fill="none" stroke="#FFA27B" stroke-width="2" stroke-linecap="square" stroke-miterlimit="10" d="M21,13v34" transform="matrix(0, 0, 0, 1, 21, 0)" data-animdata="
						{
							'steps':[
								{
									'duration':'1',
									'position':'0',
									'vars':{
										'path':'M23,17v34',
										'scaleX':'1'
									}
								}
							]
						}
					"/>
					<path class="lievo-donotdraw" fill="none" stroke="#FFA27B" stroke-width="2" stroke-linecap="square" stroke-miterlimit="10" d="M39,13v34" transform="matrix(0, 0, 0, 1, 39, 0)" data-animdata="
						{
							'steps':[
								{
									'duration':'1',
									'position':'0',
									'vars':{
										'path':'M37,9v34',
										'scaleX':'1'
									}
								}
							]
						}
					"/>
					<path fill="none" stroke="#B3421B" stroke-width="2" stroke-linecap="square" stroke-miterlimit="10" opacity="1" d="M64,34c-0.73,0.06-1.45,0.07-2.15,0.05 M52.47,31.48c1.13,0.57,2.31,1.08,3.54,1.5 M47.51,28.56c-1.2-0.77-2.37-1.55-3.52-2.26 M39,23.75C37.7,23.28,36.37,23,35,23 M30,24.92c-1.08,0.9-2.03,2.03-2.96,3.21 M19.92,34.52c1.38-0.48,2.54-1.29,3.58-2.27 M14.59,35.31c-1.31,0.32-2.61,0.89-3.89,1.61 M5.98,40.31C5.01,41.14,4.1,42,3.26,42.85 M-0.7,47.31C-1.53,48.34-2,49-2,49" data-animdata="
						{
							'steps':[
								{
									'duration':'0.5',
									'position':'0',
									'vars':{
										'opacity':'0'
									}
								}
							]
						}
					"/>
				</g>
			</g>

			<g class="lievo-lineicon">
				<defs>
					<clipPath id="livicon_m_map_e">
						<path class="lievo-donotdraw lievo-nohovercolor lievo-nohoverstroke" d="M30,13h9h16v34H39H21H5V13h16H30" data-animdata="
							{
								'steps':[
									{
										'duration':'1',
										'position':'0',
										'vars':{
											'path':'M30,13l7-4l14,8v34l-14-8l-14,8L9,43V9l14,8L30,13'
										}
									}
								]
							}
						"/>
					</clipPath>
				</defs>
				<g clip-path="url(#livicon_m_map_e)">
					<path class="lievo-donotdraw lievo-altstroke" fill="none" stroke="#34495E" stroke-width="2" stroke-linecap="square" stroke-miterlimit="10" d="M21,13v34" transform="matrix(0, 0, 0, 1, 21, 0)" data-animdata="
						{
							'steps':[
								{
									'duration':'1',
									'position':'0',
									'vars':{
										'path':'M23,17v34',
										'scaleX':'1'
									}
								}
							]
						}
					"/>
					<path class="lievo-donotdraw lievo-altstroke" fill="none" stroke="#34495E" stroke-width="2" stroke-linecap="square" stroke-miterlimit="10" d="M39,13v34" transform="matrix(0, 0, 0, 1, 39, 0)" data-animdata="
						{
							'steps':[
								{
									'duration':'1',
									'position':'0',
									'vars':{
										'path':'M37,9v34',
										'scaleX':'1'
									}
								}
							]
						}
					"/>
					<path class="lievo-altstroke" fill="none" stroke="#34495E" stroke-width="2" stroke-linecap="square" stroke-miterlimit="10" opacity="1" d="M64,34c-0.73,0.06-1.45,0.07-2.15,0.05 M52.47,31.48c1.13,0.57,2.31,1.08,3.54,1.5 M47.51,28.56c-1.2-0.77-2.37-1.55-3.52-2.26 M39,23.75C37.7,23.28,36.37,23,35,23 M30,24.92c-1.08,0.9-2.03,2.03-2.96,3.21 M19.92,34.52c1.38-0.48,2.54-1.29,3.58-2.27 M14.59,35.31c-1.31,0.32-2.61,0.89-3.89,1.61 M5.98,40.31C5.01,41.14,4.1,42,3.26,42.85 M-0.7,47.31C-1.53,48.34-2,49-2,49" data-animdata="
						{
							'steps':[
								{
									'duration':'0.5',
									'position':'0',
									'vars':{
										'opacity':'0'
									}
								}
							]
						}
					"/>
				</g>
				<path fill="none" stroke="#34495E" stroke-width="2" stroke-linecap="square" stroke-miterlimit="10" d="M30,13h9h16v34H39H21H5V13h16H30" data-animdata="
					{
						'steps':[
							{
								'duration':'1',
								'position':'0',
								'vars':{
									'path':'M30,13l7-4l14,8v34l-14-8l-14,8L9,43V9l14,8L30,13'
								}
							}
						]
					}
				"/>
			</g>

			<g class="lievo-solidicon">
				<defs>
					<clipPath id="livicon_m_map_e">
						<path class="lievo-donotdraw lievo-nohovercolor lievo-nohoverstroke" d="M57,13v34H3V13H57z"/>
					</clipPath>
				</defs>
				<path fill="#34495E" stroke="#34495E" stroke-width="2" stroke-linecap="square" stroke-miterlimit="10" d="M30,13h9h16v34H39H21H5V13h16H30" data-animdata="
					{
						'steps':[
							{
								'duration':'1',
								'position':'0',
								'vars':{
									'path':'M30,13l7-4l14,8v34l-14-8l-14,8L9,43V9l14,8L30,13'
								}
							}
						]
					}
				"/>
				<path class="lievo-donotdraw lievo-solidbg" fill="none" stroke="#34495E" stroke-width="2" stroke-linecap="square" stroke-miterlimit="10" d="M21,12v36" transform="matrix(0, 0, 0, 1, 21, 0)" data-animdata="
					{
						'steps':[
							{
								'duration':'1',
								'position':'0',
								'vars':{
									'path':'M23,14v38.5',
									'scaleX':'1'
								}
							}
						]
					}
				"/>
				<path class="lievo-donotdraw lievo-solidbg" fill="none" stroke="#34495E" stroke-width="2" stroke-linecap="square" stroke-miterlimit="10" d="M39,12v36" transform="matrix(0, 0, 0, 1, 39, 0)" data-animdata="
					{
						'steps':[
							{
								'duration':'1',
								'position':'0',
								'vars':{
									'path':'M37,7.5v38',
									'scaleX':'1'
								}
							}
						]
					}
				"/>
				<g clip-path="url(#livicon_m_map_e)">
					
					<path class="lievo-solidbg" fill="none" stroke="#34495E" stroke-width="2" stroke-linecap="square" stroke-miterlimit="10" opacity="1" d="M64,34c-0.73,0.06-1.45,0.07-2.15,0.05 M52.47,31.48c1.13,0.57,2.31,1.08,3.54,1.5 M47.51,28.56c-1.2-0.77-2.37-1.55-3.52-2.26 M39,23.75C37.7,23.28,36.37,23,35,23 M30,24.92c-1.08,0.9-2.03,2.03-2.96,3.21 M19.92,34.52c1.38-0.48,2.54-1.29,3.58-2.27 M14.59,35.31c-1.31,0.32-2.61,0.89-3.89,1.61 M5.98,40.31C5.01,41.14,4.1,42,3.26,42.85 M-0.7,47.31C-1.53,48.34-2,49-2,49" data-animdata="
						{
							'steps':[
								{
									'duration':'0.5',
									'position':'0',
									'vars':{
										'opacity':'0'
									}
								}
							]
						}
					"/>
				</g>
			</g>
		</g>
	</g>
</svg>