<svg version="1.1" xmlns="http://www.w3.org/2000/svg" xmlns:xlink="http://www.w3.org/1999/xlink" viewBox="0 0 60 60" xml:space="preserve" data-shift="y" data-solidshift="y" data-animoptions="{'duration':'0.2'}">
	<g class="lievo-main">
		<g class="lievo-morphstartstate">
			<g class="lievo-filledicon lievo-lineicon">
				<path fill="none" stroke="#34495E" stroke-width="2" stroke-linecap="square" stroke-miterlimit="10" d="M23,13v-3c0-1.1,0.9-2,2-2h22c1.1,0,2,0.9,2,2v40c0,1.1-0.9,2-2,2H25c-1.1,0-2-0.9-2-2v-3"/>
				<path class="lievo-altstroke" fill="none" stroke="#34495E" stroke-width="2" stroke-linecap="square" stroke-miterlimit="10" d="M38.3,30H11" data-animdata="
					{
						'steps':[
							{
								'duration':'1',
								'position':'0',
								'vars':{
									'morphSVG':'M39,30H10.7'
								}
							}
						]
					}
				"/>
				<path class="lievo-altstroke" fill="none" stroke="#34495E" stroke-width="2" stroke-linecap="square" stroke-miterlimit="10" d="M30,20l10,10L30,40" data-animdata="
					{
						'steps':[
							{
								'duration':'1',
								'position':'0',
								'vars':{
									'morphSVG':'M19,20L9,30l10,10'
								}
							}
						]
					}
				"/>
			</g>

			<g class="lievo-solidicon">
				<path fill="none" stroke="#34495E" stroke-width="3" stroke-linecap="square" stroke-miterlimit="10" d="M23,13v-3c0-1.1,0.9-2,2-2h22c1.1,0,2,0.9,2,2v40c0,1.1-0.9,2-2,2H25c-1.1,0-2-0.9-2-2v-3"/>
				<path fill="none" stroke="#34495E" stroke-width="3" stroke-linecap="square" stroke-miterlimit="10" d="M38.3,30H11" data-animdata="
					{
						'steps':[
							{
								'duration':'1',
								'position':'0',
								'vars':{
									'morphSVG':'M39,30H10.7'
								}
							}
						]
					}
				"/>
				<path fill="none" stroke="#34495E" stroke-width="3" stroke-linecap="square" stroke-miterlimit="10" d="M30,20l10,10L30,40" data-animdata="
					{
						'steps':[
							{
								'duration':'1',
								'position':'0',
								'vars':{
									'morphSVG':'M19,20L9,30l10,10'
								}
							}
						]
					}
				"/>
			</g>
		</g>
		<g class="lievo-morphendstate">
			<g class="lievo-filledicon lievo-lineicon">
				<path fill="none" stroke="#34495E" stroke-width="2" stroke-linecap="square" stroke-miterlimit="10" d="M23,13v-3c0-1.1,0.9-2,2-2h22c1.1,0,2,0.9,2,2v40c0,1.1-0.9,2-2,2H25c-1.1,0-2-0.9-2-2v-3"/>
				<path class="lievo-altstroke" fill="none" stroke="#34495E" stroke-width="2" stroke-linecap="square" stroke-miterlimit="10" d="M39,30H10.7" data-animdata="
					{
						'steps':[
							{
								'duration':'1',
								'position':'0',
								'vars':{
									'morphSVG':'M38.3,30H11'
								}
							}
						]
					}
				"/>
				<path class="lievo-altstroke" fill="none" stroke="#34495E" stroke-width="2" stroke-linecap="square" stroke-miterlimit="10" d="M19,20L9,30l10,10" data-animdata="
					{
						'steps':[
							{
								'duration':'1',
								'position':'0',
								'vars':{
									'morphSVG':'M30,20l10,10L30,40'
								}
							}
						]
					}
				"/>
			</g>

			<g class="lievo-solidicon">
				<path fill="none" stroke="#34495E" stroke-width="3" stroke-linecap="square" stroke-miterlimit="10" d="M23,13v-3c0-1.1,0.9-2,2-2h22c1.1,0,2,0.9,2,2v40c0,1.1-0.9,2-2,2H25c-1.1,0-2-0.9-2-2v-3"/>
				<path fill="none" stroke="#34495E" stroke-width="3" stroke-linecap="square" stroke-miterlimit="10" d="M39,30H10.7" data-animdata="
					{
						'steps':[
							{
								'duration':'1',
								'position':'0',
								'vars':{
									'morphSVG':'M38.3,30H11'
								}
							}
						]
					}
				"/>
				<path fill="none" stroke="#34495E" stroke-width="3" stroke-linecap="square" stroke-miterlimit="10" d="M19,20L9,30l10,10" data-animdata="
					{
						'steps':[
							{
								'duration':'1',
								'position':'0',
								'vars':{
									'morphSVG':'M30,20l10,10L30,40'
								}
							}
						]
					}
				"/>
			</g>
		</g>
	</g>
</svg>