<svg version="1.1" xmlns="http://www.w3.org/2000/svg" xmlns:xlink="http://www.w3.org/1999/xlink" viewBox="0 0 60 60" xml:space="preserve" data-shift="x" data-animoptions="{'duration':'0.2'}">
	<g class="lievo-main">
		<g class="lievo-morphstartstate">
			<g class="lievo-common">
				<path fill="none" stroke="#34495E" stroke-width="2" stroke-linecap="square" stroke-miterlimit="10" d="M30,46v4c0,1.66-1.34,3-3,3s-3-1.34-3-3" data-animdata="
					{
						'steps':[
							{
								'duration':'1',
								'position':'0',
								'vars':{
									'morphSVG':{'shape':'M30,33v17c0,1.66-1.34,3-3,3s-3-1.34-3-3','shapeIndex':'auto'},
									'ease':'Power3.easeIn'
								}
							}
						]
					}
				"/>
				<line fill="none" stroke="#34495E" stroke-width="2" stroke-linecap="square" stroke-miterlimit="10" x1="30" y1="7" x2="30" y2="11"/>
				<path class="lievo-altstroke" fill="#8E44AD" stroke="#6E248D" stroke-width="2" stroke-linecap="square" stroke-miterlimit="2" d="M30,11c-1,0-8,23-10,35c0-2,1.5-3,2.5-3s2.5,1,2.5,3c0-2,1-3,2.5-3s2.5,1,2.5,3c0-2,1-3,2.5-3s2.5,1,2.5,3c0-2,1.5-3,2.5-3s2.5,1,2.5,3C38,34,31,11,30,11z" data-animdata="
					{
						'steps':[
							{
								'duration':'1',
								'position':'0',
								'vars':{
									'morphSVG':{'shape':'M30,11C17.85,11,8,20.85,8,33c0-3.04,2.46-5,5.5-5s5.5,1.96,5.5,5c0-3.04,2.46-5,5.5-5s5.5,1.96,5.5,5c0-3.04,2.46-5,5.5-5s5.5,1.96,5.5,5c0-3.04,2.46-5,5.5-5s5.5,1.96,5.5,5C52,20.85,42.15,11,30,11z','shapeIndex':'auto'},
									'ease':'Power3.easeIn'
								}
							}
						]
					}
				"/>
			</g>
		</g>

		<g class="lievo-morphendstate">
			<g class="lievo-common">
				<path fill="none" stroke="#34495E" stroke-width="2" stroke-linecap="square" stroke-miterlimit="10" d="M30,33v17c0,1.66-1.34,3-3,3s-3-1.34-3-3" data-animdata="
					{
						'steps':[
							{
								'duration':'1',
								'position':'0',
								'vars':{
									'morphSVG':{'shape':'M30,46v4c0,1.66-1.34,3-3,3s-3-1.34-3-3','shapeIndex':'auto'},
									'ease':'Power3.easeOut'
								}
							}
						]
					}
				"/>
				<line fill="none" stroke="#34495E" stroke-width="2" stroke-linecap="square" stroke-miterlimit="10" x1="30" y1="7" x2="30" y2="11"/>
				<path class="lievo-altstroke" fill="#8E44AD" stroke="#6E248D" stroke-width="2" stroke-linecap="square" stroke-miterlimit="2" d="M30,11C17.85,11,8,20.85,8,33c0-3.04,2.46-5,5.5-5s5.5,1.96,5.5,5c0-3.04,2.46-5,5.5-5s5.5,1.96,5.5,5c0-3.04,2.46-5,5.5-5s5.5,1.96,5.5,5c0-3.04,2.46-5,5.5-5s5.5,1.96,5.5,5C52,20.85,42.15,11,30,11z" data-animdata="
					{
						'steps':[
							{
								'duration':'1',
								'position':'0',
								'vars':{
									'morphSVG':{'shape':'M30,11c-1,0-8,23-10,35c0-2,1.5-3,2.5-3s2.5,1,2.5,3c0-2,1-3,2.5-3s2.5,1,2.5,3c0-2,1-3,2.5-3s2.5,1,2.5,3c0-2,1.5-3,2.5-3s2.5,1,2.5,3C38,34,31,11,30,11z','shapeIndex':'auto'},
									'ease':'Power3.easeOut'
								}
							}
						]
					}
				"/>
			</g>
		</g>
	</g>
</svg>