<svg version="1.1" xmlns="http://www.w3.org/2000/svg" xmlns:xlink="http://www.w3.org/1999/xlink" viewBox="0 0 60 60" xml:space="preserve" data-animoptions="{'duration':'0.3', 'repeat':'2', 'repeatDelay':'0'}">
	<g class="lievo-main">
		<g class="lievo-filledicon lievo-lineicon">
			<path class="lievo-altstroke" fill="none" stroke="#34495E" stroke-width="2" stroke-linecap="square" stroke-miterlimit="10" d="M38,27l-9.64,9c-1.76,1.76-4.61,1.76-6.36,0c-1.76-1.76-1.76-4.61,0-6.36L39,13c2.73-2.73,7.27-2.73,10,0c2.73,2.73,2.73,7.27,0,10L26,46c-3.91,3.9-10.09,3.91-14,0c-3.91-3.91-3.9-10.09,0-14s17-17,17-17" data-animdata="
				{
					'steps':[
						{
							'duration':'1',
							'vars':{
								'path':'M38,27l-9.64,9c-1.76,1.76-4.61,1.76-6.36,0c-1.76-1.76-1.76-4.61,0-6.36L39,13c2.73-2.73,7.27-2.73,10,0c2.73,2.73,2.73,7.27,0,10L26,46c-3.91,3.9-10.09,3.91-14,0c-3.91-3.91-2.62-9.14,0-14c7-13-6-22-6-22',
								'rotation':'-10',
								'svgOrigin':'30 30',
								'ease':'Power1.easyOut'
							},
							'position':'0'
						},
						{
							'duration':'1.5',
							'vars':{
								'path':'M38,27l-9.64,9c-1.76,1.76-4.61,1.76-6.36,0c-1.76-1.76-1.76-4.61,0-6.36L39,13c2.73-2.73,7.27-2.73,10,0c2.73,2.73,2.73,7.27,0,10L26,46c-3.91,3.9-10.09,3.91-14,0c-3.91-3.91-3.9-10.09,0-14s17-17,17-17',
								'rotation':'0',
								'svgOrigin':'30 30',
								'ease':'Back.easeOut.config(1.5)'
							}
						}
					]
				}
			"/>
		</g>

		<g class="lievo-solidicon">
			<path class="lievo-altstroke" fill="none" stroke="#34495E" stroke-width="3" stroke-linecap="square" stroke-miterlimit="10" d="M38,27l-9.64,9c-1.76,1.76-4.61,1.76-6.36,0c-1.76-1.76-1.76-4.61,0-6.36L39,13c2.73-2.73,7.27-2.73,10,0c2.73,2.73,2.73,7.27,0,10L26,46c-3.91,3.9-10.09,3.91-14,0c-3.91-3.91-3.9-10.09,0-14s17-17,17-17" data-animdata="
				{
					'steps':[
						{
							'duration':'1',
							'vars':{
								'path':'M38,27l-9.64,9c-1.76,1.76-4.61,1.76-6.36,0c-1.76-1.76-1.76-4.61,0-6.36L39,13c2.73-2.73,7.27-2.73,10,0c2.73,2.73,2.73,7.27,0,10L26,46c-3.91,3.9-10.09,3.91-14,0c-3.91-3.91-2.62-9.14,0-14c7-13-6-22-6-22',
								'rotation':'-10',
								'svgOrigin':'30 30',
								'ease':'Power1.easyOut'
							},
							'position':'0'
						},
						{
							'duration':'1.5',
							'vars':{
								'path':'M38,27l-9.64,9c-1.76,1.76-4.61,1.76-6.36,0c-1.76-1.76-1.76-4.61,0-6.36L39,13c2.73-2.73,7.27-2.73,10,0c2.73,2.73,2.73,7.27,0,10L26,46c-3.91,3.9-10.09,3.91-14,0c-3.91-3.91-3.9-10.09,0-14s17-17,17-17',
								'rotation':'0',
								'svgOrigin':'30 30',
								'ease':'Back.easeOut.config(1.5)'
							}
						}
					]
				}
			"/>
		</g>
	</g>
</svg>