<svg version="1.1" xmlns="http://www.w3.org/2000/svg" xmlns:xlink="http://www.w3.org/1999/xlink" viewBox="0 0 60 60" xml:space="preserve" data-animoptions="{'duration':'2.5', 'repeat':'0', 'repeatDelay':'1'}">
	<g class="lievo-main">
		<g class="lievo-common">
			<path class="lievo-donotdraw" fill="none" stroke="#34495E" stroke-width="2" stroke-linecap="square" stroke-miterlimit="10" d="M7,51L30,8L53,51z" opacity="0" data-animdata="
				{
					'steps':[
						{
							'duration':'0',
							'position':'0',
							'vars':{
								'drawSVG':'0%',
								'opacity':'1'
							}
						},
						{
							'duration':'1',
							'vars':{
								'drawSVG':'33.33333%'
							},
							'position':'0.5'
						},
						{
							'duration':'1',
							'vars':{
								'drawSVG':'66.66667%'
							},
							'position':'2'
						},
						{
							'duration':'1',
							'vars':{
								'drawSVG':'100%'
							},
							'position':'3.5'
						},
						{
							'duration':'0.5',
							'vars':{
								'opacity':'0'
							}
						}
					]
				}
			"/>
		</g>

		<g class="lievo-filledicon" data-animdata="
			{
				'steps':[
					{
						'duration':'0.5',
						'vars':{
							'rotation':'75',
							'x':'-=5',
							'y':'+=4',
							'svgOrigin':'12 48'
						},
						'position':'0'
					},
					{
						'duration':'1',
						'vars':{
							'x':'+=23',
							'y':'-=43'
						}
					},
					{
						'duration':'0.5',
						'vars':{
							'rotation':'195',
							'svgOrigin':'30 8'
						}
					},
					{
						'duration':'1',
						'vars':{
							'x':'+=23',
							'y':'+=43'
						}
					},
					{
						'duration':'0.5',
						'vars':{
							'rotation':'315',
							'svgOrigin':'53 51'
						}
					},
					{
						'duration':'1',
						'vars':{
							'x':'-=46',
							'rotation':'360'
						}
					},
					{
						'duration':'0.5',
						'vars':{
							'x':'0',
							'y':'0'
						}
					}
				]
			}
		">
			<path fill="#E9E7D0" stroke="#E9E7D0" stroke-width="0" d="M50.41,18.07c0.78-0.78,0.78-2.05,0-2.83l-5.66-5.66c-0.78-0.78-2.05-0.78-2.83,0L15.06,36.46l-1.41,5.66l4.24,4.24l5.66-1.41L50.41,18.07z"/>
			<path fill="#F1C40F" stroke="#F1C40F" stroke-width="0" d="M21.78,38.22c-1.36,1.36-3.64,0.6-6.36-2.12l22.98-22.98l8.49,8.49L23.9,44.59C21.17,41.86,20.41,39.58,21.78,38.22z"/>
			<polygon fill="#34495E" stroke="#34495E" stroke-width="0" points="12.23,47.77 16.83,46.71 13.29,43.17"/>
			<path fill="none" stroke="#34495E" stroke-width="2" stroke-linecap="square" stroke-miterlimit="10" d="M47.64,12.47l2.77,2.77c0.78,0.78,0.78,2.05,0,2.83L23.54,44.94l-11.31,2.83l2.83-11.31L41.93,9.59c0.78-0.78,2.05-0.78,2.83,0L47.64,12.47"/>
			<line class="lievo-savelinecap" fill="none" stroke="#34495E" stroke-width="2" stroke-linecap="square" stroke-miterlimit="10" x1="42.28" y1="17.72" x2="21.78" y2="38.22"/>
			<line class="lievo-savelinecap" fill="none" stroke="#34495E" stroke-width="2" stroke-miterlimit="10" x1="38.39" y1="13.12" x2="46.88" y2="21.61"/>
			<line class="lievo-savelinecap" fill="none" stroke="#34495E" stroke-width="2" stroke-miterlimit="10" x1="13.29" y1="43.17" x2="16.83" y2="46.71"/>
			<path class="lievo-savelinecap" fill="none" stroke="#34495E" stroke-width="2" stroke-miterlimit="10" d="M21.78,38.22c-1.36,1.36-0.6,3.64,2.12,6.36"/>
			<path class="lievo-savelinecap" fill="none" stroke="#34495E" stroke-width="2" stroke-miterlimit="10" d="M21.78,38.22c-1.36,1.36-3.64,0.6-6.36-2.12"/>
		</g>
		
		<g class="lievo-lineicon" data-animdata="
			{
				'steps':[
					{
						'duration':'0.5',
						'vars':{
							'rotation':'75',
							'x':'-=5',
							'y':'+=4',
							'svgOrigin':'12 48'
						},
						'position':'0'
					},
					{
						'duration':'1',
						'vars':{
							'x':'+=23',
							'y':'-=43'
						}
					},
					{
						'duration':'0.5',
						'vars':{
							'rotation':'195',
							'svgOrigin':'30 8'
						}
					},
					{
						'duration':'1',
						'vars':{
							'x':'+=23',
							'y':'+=43'
						}
					},
					{
						'duration':'0.5',
						'vars':{
							'rotation':'315',
							'svgOrigin':'53 51'
						}
					},
					{
						'duration':'1',
						'vars':{
							'x':'-=46',
							'rotation':'360'
						}
					},
					{
						'duration':'0.5',
						'vars':{
							'x':'0',
							'y':'0'
						}
					}
				]
			}
		">
			<line class="lievo-savelinecap" fill="none" stroke="#34495E" stroke-width="2" stroke-miterlimit="10" x1="13.64" y1="42.11" x2="17.89" y2="46.36"/>
			<line class="lievo-savelinecap lievo-altstroke" fill="none" stroke="#F39C12" stroke-width="2" stroke-linecap="square" stroke-miterlimit="10" x1="42.28" y1="17.72" x2="21.78" y2="38.22"/>
			<line class="lievo-savelinecap lievo-altstroke" fill="none" stroke="#F39C12" stroke-width="2" stroke-miterlimit="10" x1="38.39" y1="13.12" x2="46.88" y2="21.61"/>
			<path class="lievo-savelinecap lievo-altstroke" fill="none" stroke="#F39C12" stroke-width="2" stroke-miterlimit="10" d="M21.78,38.22c-1.36,1.36-0.6,3.64,2.12,6.36"/>
			<path class="lievo-savelinecap lievo-altstroke" fill="none" stroke="#F39C12" stroke-width="2" stroke-miterlimit="10" d="M21.78,38.22c-1.36,1.36-3.64,0.6-6.36-2.12"/>
			<path fill="none" stroke="#34495E" stroke-width="2" stroke-linecap="square" stroke-miterlimit="10" d="M47.59,12.41l2.83,2.83c0.78,0.78,0.78,2.05,0,2.83L23.54,44.94l-11.31,2.83l2.83-11.31L41.93,9.59c0.78-0.78,2.05-0.78,2.83,0L47.59,12.41"/>
		</g>

		<g class="lievo-solidicon" data-animdata="
			{
				'steps':[
					{
						'duration':'0.5',
						'vars':{
							'rotation':'75',
							'x':'-=5',
							'y':'+=4',
							'svgOrigin':'12 48'
						},
						'position':'0'
					},
					{
						'duration':'1',
						'vars':{
							'x':'+=23',
							'y':'-=43'
						}
					},
					{
						'duration':'0.5',
						'vars':{
							'rotation':'195',
							'svgOrigin':'30 8'
						}
					},
					{
						'duration':'1',
						'vars':{
							'x':'+=23',
							'y':'+=43'
						}
					},
					{
						'duration':'0.5',
						'vars':{
							'rotation':'315',
							'svgOrigin':'53 51'
						}
					},
					{
						'duration':'1',
						'vars':{
							'x':'-=46',
							'rotation':'360'
						}
					},
					{
						'duration':'0.5',
						'vars':{
							'x':'0',
							'y':'0'
						}
					}
				]
			}
		">
			<path fill="#34495E" stroke="#34495E" stroke-width="2" stroke-linecap="square" stroke-miterlimit="10" d="M12.23,47.77l2.83-11.31L41.93,9.59c0.78-0.78,2.05-0.78,2.83,0l5.66,5.66c0.78,0.78,0.78,2.05,0,2.83L23.54,44.94L12.23,47.77z"/>
			<line class="lievo-savelinecap lievo-solidbg" fill="none" stroke="#FFFFFF" stroke-width="2" stroke-linecap="square" stroke-miterlimit="10" x1="42.28" y1="17.72" x2="21.78" y2="38.22"/>
			<line class="lievo-savelinecap lievo-solidbg" fill="none" stroke="#FFFFFF" stroke-width="2" stroke-linecap="square" stroke-miterlimit="10" x1="38.04" y1="12.77" x2="47.23" y2="21.96"/>
			<path class="lievo-savelinecap lievo-solidbg" fill="none" stroke="#FFFFFF" stroke-width="2" stroke-linecap="square" stroke-miterlimit="10" d="M21.78,38.22c-1.36,1.36-0.39,3.85,2.33,6.58"/>
			<path class="lievo-savelinecap lievo-solidbg" fill="none" stroke="#FFFFFF" stroke-width="2" stroke-linecap="square" stroke-miterlimit="10" d="M21.78,38.22c-1.36,1.36-3.85,0.39-6.58-2.33"/>
			<line class="lievo-savelinecap lievo-solidbg lievo-donotdraw" fill="none" stroke="#FFFFFF" stroke-width="2" stroke-linecap="square" stroke-miterlimit="10" x1="11.52" y1="41.41" x2="18.59" y2="48.48"/>
		</g>
	</g>
</svg>