<svg xmlns="http://www.w3.org/2000/svg" xmlns:xlink="http://www.w3.org/1999/xlink" version="1.1" viewBox="0 0 60 60" xml:space="preserve" data-animoptions="{'duration':'2', 'repeat':'0', 'repeatDelay':'0.7'}">
	<g class="lievo-main">
		<g class="lievo-common">
			<defs>
				<clipPath id="livicon_print_image">
					<path class="lievo-donotdraw lievo-nohovercolor lievo-nohoverstroke" d="M51,39h-6v-4H15l0,4H9c-1.1,0-2-0.9-2-2V21c0-1.1,0.9-2,2-2h42c1.1,0,2,0.9,2,2v16C53,38.1,52.1,39,51,39z M72-12h-84v84h84V-12z"/>
				</clipPath>
			</defs>
			<g clip-path="url(#livicon_print_image)">
				<g data-animdata="
					{
						'steps':[
							{
								'duration':'1',
								'position':'0',
								'vars':{
									'opacity':'0'
								}
							},
							{
								'duration':'0',
								'vars':{
									'y':'-=70'
								}
							},
							{
								'duration':'0',
								'vars':{
									'opacity':'1'
								}
							},
							{
								'duration':'3',
								'vars':{
									'y':'+=56'
								}
							},
							{
								'duration':'5',
								'position':'+=2',
								'vars':{
									'y':'0'
								}
							}
						]
					}
				">
					<polyline class="lievo-savelinecap" fill="none" stroke="#34495E" stroke-width="2" stroke-miterlimit="10" points="39,9 39,15 45,15"/>
					<polygon fill="none" stroke="#34495E" stroke-width="2" stroke-linecap="square" stroke-miterlimit="10" points="39,9 15,9 15,53 45,53 45,15"/>
					<g data-animdata="
						{
							'steps':[
								{
									'duration':'0',
									'position':'1',
									'vars':{
										'opacity':'0'
									}
								},
								{
									'duration':'0',
									'position':'5',
									'vars':{
										'opacity':'1'
									}
								}
							]
						}
					">
						<polygon class="lievo-altstroke" fill="#1ABC9C" stroke="#08a284" stroke-width="2" stroke-linecap="square" stroke-miterlimit="10" points="19,49 19,48.9 25,35 29,43 33,38 41,48.9 41,49"/>
						<circle class="lievo-altstroke" fill="#FFCF4B" stroke="#F9BF3B" stroke-width="2" stroke-linecap="square" stroke-miterlimit="10" cx="39" cy="37" r="2"/>
					</g>
				</g>
			</g>
			<line class="lievo-donotdraw" fill="none" stroke="#34495E" stroke-width="2" stroke-linecap="square" stroke-miterlimit="10" x1="15" y1="39" x2="45" y2="39" opacity="0" data-animdata="
				{
					'steps':[
						{
							'duration':'1',
							'position':'0',
							'vars':{
								'opacity':'1'
							}
						},
						{
							'duration':'0',
							'position':'5',
							'vars':{
								'opacity':'0'
							}
						}
					]
				}
			"/>
			<path fill="#336E7B" stroke="#34495E" stroke-width="2" stroke-linecap="square" stroke-miterlimit="10" d="M30,19h21c1.1,0,2,0.9,2,2v16c0,1.1-0.9,2-2,2h-6v-4H15l0,4H9c-1.1,0-2-0.9-2-2V21c0-1.1,0.9-2,2-2H30z"/>
			<circle class="lievo-solidbg" fill="#E67E22" stroke="#E67E22" stroke-width="2" stroke-linecap="square" stroke-miterlimit="10" cx="48" cy="24" r="1" data-animdata="
				{
					'steps':[
						{
							'duration':'1',
							'position':'4',
							'vars':{
								'opacity':'0',
								'repeat':'7',
								'repeatDelay':'0',
								'yoyo':'true'
							}
						}
					]
				}
			"/>
		</g>
	</g>
</svg>