<svg xmlns="http://www.w3.org/2000/svg" xmlns:xlink="http://www.w3.org/1999/xlink" version="1.1" viewBox="0 0 60 60" xml:space="preserve" data-animoptions="{'duration':'2', 'repeat':'0', 'repeatDelay':'0.7'}">
	<g class="lievo-main">
		<g class="lievo-common">
			<defs>
				<clipPath id="livicon_print_doc">
					<path class="lievo-donotdraw lievo-nohovercolor lievo-nohoverstroke" d="M51,41h-6v-4H15l0,4H9c-1.1,0-2-0.9-2-2V23c0-1.1,0.9-2,2-2h42c1.1,0,2,0.9,2,2v16C53,40.1,52.1,41,51,41z M72-12h-84v84h84V-12z"/>
				</clipPath>
			</defs>
			<g clip-path="url(#livicon_print_doc)">
				<g data-animdata="
					{
						'steps':[
							{
								'duration':'1',
								'position':'0',
								'vars':{
									'opacity':'0'
								}
							},
							{
								'duration':'0',
								'vars':{
									'y':'-=70'
								}
							},
							{
								'duration':'0',
								'vars':{
									'opacity':'1'
								}
							},
							{
								'duration':'3',
								'vars':{
									'y':'+=58'
								}
							},
							{
								'duration':'1',
								'position':'+=2',
								'vars':{
									'y':'+=4'
								}
							},
							{
								'duration':'1',
								'position':'+=1',
								'vars':{
									'y':'+=4'
								}
							},
							{
								'duration':'1',
								'position':'+=1',
								'vars':{
									'y':'0'
								}
							}
						]
					}
				">
					<polyline class="lievo-savelinecap" fill="none" stroke="#34495E" stroke-width="2" stroke-miterlimit="10" points="39,9 39,15 45,15"/>
					<polygon fill="none" stroke="#34495E" stroke-width="2" stroke-linecap="square" stroke-miterlimit="10" points="39,9 15,9 15,53 45,53 45,15"/>
					
					<line class="lievo-altstroke" fill="none" stroke="#34495E" stroke-width="2" stroke-linecap="square" stroke-miterlimit="10" x1="19" y1="41" x2="41" y2="41" data-animdata="
						{
							'steps':[
								{
									'duration':'0',
									'position':'1',
									'vars':{
										'opacity':'0'
									}
								},
								{
									'duration':'0',
									'position':'9',
									'vars':{
										'opacity':'1'
									}
								}
							]
						}
					"/>
					
					<line class="lievo-altstroke" fill="none" stroke="#34495E" stroke-width="2" stroke-linecap="square" stroke-miterlimit="10" x1="19" y1="45" x2="41" y2="45" data-animdata="
						{
							'steps':[
								{
									'duration':'0',
									'position':'1',
									'vars':{
										'opacity':'0'
									}
								},
								{
									'duration':'0',
									'position':'7',
									'vars':{
										'opacity':'1'
									}
								}
							]
						}
					"/>
					
					<line class="lievo-altstroke" fill="none" stroke="#34495E" stroke-width="2" stroke-linecap="square" stroke-miterlimit="10" x1="19" y1="49" x2="35" y2="49" data-animdata="
						{
							'steps':[
								{
									'duration':'0',
									'position':'1',
									'vars':{
										'opacity':'0'
									}
								},
								{
									'duration':'0',
									'position':'5',
									'vars':{
										'opacity':'1'
									}
								}
							]
						}
					"/>
				</g>
			</g>
			<line class="lievo-donotdraw" fill="none" stroke="#34495E" stroke-width="2" stroke-linecap="square" stroke-miterlimit="10" x1="15" y1="41" x2="45" y2="41" opacity="0" data-animdata="
				{
					'steps':[
						{
							'duration':'1',
							'position':'0',
							'vars':{
								'opacity':'1'
							}
						},
						{
							'duration':'0',
							'position':'5',
							'vars':{
								'opacity':'0'
							}
						}
					]
				}
			"/>
			<path fill="#336E7B" stroke="#34495E" stroke-width="2" stroke-linecap="square" stroke-miterlimit="10" d="M30,21h21c1.1,0,2,0.9,2,2v16c0,1.1-0.9,2-2,2h-6v-4H15l0,4H9c-1.1,0-2-0.9-2-2V23c0-1.1,0.9-2,2-2H30z"/>
			<circle class="lievo-solidbg" fill="#E67E22" stroke="#E67E22" stroke-width="2" stroke-linecap="square" stroke-miterlimit="10" cx="48" cy="26" r="1" data-animdata="
				{
					'steps':[
						{
							'duration':'1',
							'position':'4',
							'vars':{
								'opacity':'0',
								'repeat':'7',
								'repeatDelay':'0',
								'yoyo':'true'
							}
						}
					]
				}
			"/>			
		</g>
	</g>
</svg>