<svg version="1.1" xmlns="http://www.w3.org/2000/svg" xmlns:xlink="http://www.w3.org/1999/xlink" viewBox="0 0 60 60" xml:space="preserve" data-solidshift="xy" data-animoptions="{'duration':'0.6', 'repeat':'1', 'repeatDelay':'0.2'}">
	<g class="lievo-main">
		<g class="lievo-filledicon lievo-lineicon">
			<rect class="lievo-likestroke lievo-altstroke" x="29" y="44.99" fill="#34495E" stroke="#34495E" stroke-width="2" stroke-linecap="square" stroke-miterlimit="10" width="0.01" height="0.01"/>
			<path fill="none" stroke="#34495E" stroke-width="2" stroke-linecap="square" stroke-miterlimit="10" d="M29,39v-2.29c0.1-1.51,0.53-2.81,2.29-4.57C33.57,29.86,37,26.43,37,23c0-5.05-3.43-8-8-8c-4.57,0-8,3.33-8,7.9l0,0.1"/>
			<g opacity="0" data-animdata="
				{
					'steps':[
						{
							'duration':'0',
							'vars':{
								'opacity':'1',
								'scale':'1'
							}
						},
						{
							'duration':'1',
							'vars':{
								'scale':'1.38',
								'transformOrigin':'center center'
							}
						},
						{
							'duration':'1',
							'vars':{
								'opacity':'0',
								'scale':'1.62'
							}
						}
					]
				}
			">
				<rect class="lievo-likestroke lievo-altstroke" x="29" y="44.99" fill="#34495E" stroke="#34495E" stroke-width="2" stroke-linecap="square" stroke-miterlimit="10" width="0.01" height="0.01"/>
				<path fill="none" stroke="#34495E" stroke-width="2" stroke-linecap="square" stroke-miterlimit="10" d="M29,39v-2.29c0.1-1.51,0.53-2.81,2.29-4.57C33.57,29.86,37,26.43,37,23c0-5.05-3.43-8-8-8c-4.57,0-8,3.33-8,7.9l0,0.1"/>
			</g>
		</g>
		<g class="lievo-solidicon">
			<rect class="lievo-likestroke" x="29" y="44.99" fill="#34495E" stroke="#34495E" stroke-width="3" stroke-linecap="square" stroke-miterlimit="10" width="0.01" height="0.01"/>
			<path fill="none" stroke="#34495E" stroke-width="3" stroke-linecap="square" stroke-miterlimit="10" d="M29,39v-2.29c0.1-1.51,0.53-2.81,2.29-4.57C33.57,29.86,37,26.43,37,23c0-5.05-3.43-8-8-8c-4.57,0-8,3.33-8,7.9l0,0.1"/>
			<g opacity="0" data-animdata="
				{
					'steps':[
						{
							'duration':'0',
							'vars':{
								'opacity':'1',
								'scale':'1'
							}
						},
						{
							'duration':'1',
							'vars':{
								'scale':'1.38',
								'transformOrigin':'center center'
							}
						},
						{
							'duration':'1',
							'vars':{
								'opacity':'0',
								'scale':'1.62'
							}
						}
					]
				}
			">
				<rect class="lievo-likestroke" x="29" y="44.99" fill="#34495E" stroke="#34495E" stroke-width="3" stroke-linecap="square" stroke-miterlimit="10" width="0.01" height="0.01"/>
				<path fill="none" stroke="#34495E" stroke-width="3" stroke-linecap="square" stroke-miterlimit="10" d="M29,39v-2.29c0.1-1.51,0.53-2.81,2.29-4.57C33.57,29.86,37,26.43,37,23c0-5.05-3.43-8-8-8c-4.57,0-8,3.33-8,7.9l0,0.1"/>
			</g>
		</g>
	</g>
</svg>