<svg version="1.1" xmlns="http://www.w3.org/2000/svg" xmlns:xlink="http://www.w3.org/1999/xlink" viewBox="0 0 60 60" xml:space="preserve" data-animoptions="{'duration':'1.1', 'repeat':'1', 'repeatDelay':'0'}">
	<g class="lievo-main">
		
		<g class="lievo-filledicon">
			<path fill="#9B59B6" stroke="#7E349D" stroke-width="2" stroke-linecap="square" stroke-miterlimit="10" d="M30,7c12.7,0,23,10.3,23,23c0,12.7-10.3,23-23,23C17.3,53,7,42.7,7,30C7,17.3,17.3,7,30,7z"/>
			<path class="lievo-altstroke" fill="#FFCF4B" stroke="#F39C12" stroke-width="2" stroke-linecap="square" stroke-miterlimit="10" d="M30,27c1.66,0,3,1.34,3,3c0,1.66-1.34,3-3,3c-1.66,0-3-1.34-3-3C27,28.34,28.34,27,30,27z"/>
			<path fill="#FFCF4B" stroke="#F39C12" stroke-width="2" stroke-linecap="square" stroke-miterlimit="10" d="M46.15,20C47.96,22.9,49,26.33,49,30c0,0,0,0,0,0l-12,0l0,0c0-2.59-1.41-4.85-3.5-6.06l6-10.38C42.21,15.13,44.49,17.34,46.15,20z"/>
			<path fill="#FFCF4B" stroke="#F39C12" stroke-width="2" stroke-linecap="square" stroke-miterlimit="10" d="M13.85,20C12.04,22.9,11,26.33,11,30h12c0-2.59,1.41-4.85,3.5-6.06l-6-10.38C17.8,15.13,15.5,17.35,13.85,20z"/>
			<path fill="#FFCF4B" stroke="#F39C12" stroke-width="2" stroke-linecap="square" stroke-miterlimit="10" d="M30,49c-3.46,0-6.7-0.94-9.49-2.56l6-10.38C27.53,36.65,28.72,37,30,37s2.47-0.35,3.5-0.94l6,10.38C36.7,48.06,33.46,49,30,49z"/>
		</g>

		<g class="lievo-solidicon">
			<path fill="#7E349D" stroke="#7E349D" stroke-width="2" stroke-linecap="square" stroke-miterlimit="10" d="M30,7
			c12.7,0,23,10.3,23,23c0,12.7-10.3,23-23,23C17.3,53,7,42.7,7,30C7,17.3,17.3,7,30,7z"/>
			<g>
				<path class="lievo-solidbg" fill="#FFFFFF" stroke="none" d="M30,26c2.21,0,4,1.79,4,4c0,2.21-1.79,4-4,4c-2.21,0-4-1.79-4-4C26,27.79,27.79,26,30,26z"/>
				<path class="lievo-solidbg" fill="#FFFFFF" stroke="none" d="M46.15,20C47.96,22.9,49,26.33,49,30c0,0,0,0,0,0l-12,0l0,0c0-2.59-1.41-4.85-3.5-6.06l6-10.38C42.21,15.13,44.49,17.34,46.15,20z"/>
				<path class="lievo-solidbg" fill="#FFFFFF" stroke="none" d="M13.85,20C12.04,22.9,11,26.33,11,30h12c0-2.59,1.41-4.85,3.5-6.06l-6-10.38C17.8,15.13,15.5,17.35,13.85,20z"/>
				<path class="lievo-solidbg" fill="#FFFFFF" stroke="none" d="M30,49c-3.46,0-6.7-0.94-9.49-2.56l6-10.38C27.53,36.65,28.72,37,30,37s2.47-0.35,3.5-0.94l6,10.38C36.7,48.06,33.46,49,30,49z"/>
			</g>
		</g>

		<g class="lievo-common">
			<defs>
				<clipPath id="livicon_radiation_c">
					<path class="lievo-donotdraw lievo-nohovercolor lievo-nohoverstroke" fill="none" stroke="none" d="M49,30C49,30,49,30,49,30H37l0,0c0-2.59-1.41-4.85-3.5-6.06l6-10.38C45.29,16.91,49,23.11,49,30z M11,30h12c0-2.59,1.41-4.85,3.5-6.06l-6-10.38C14.74,16.9,11,23.07,11,30z M39.49,46.44l-6-10.38C32.47,36.65,31.28,37,30,37s-2.47-0.35-3.5-0.94l-6,10.38C26.41,49.86,33.61,49.85,39.49,46.44z"/>
				</clipPath>
			</defs>
			<g clip-path="url(#livicon_radiation_c)">
				<circle class="lievo-donotdraw lievo-altstroke" fill="none" stroke="#F39C12" stroke-width="2" stroke-linecap="square" stroke-miterlimit="10" cx="30" cy="30" r="5" data-animdata="
					{
						'steps':[
							{
								'duration':'1',
								'position':'0',
								'vars':{
									'attr':{'r':'22'}
								}
							},
							{
								'duration':'0',
								'vars':{
									'attr':{'r':'5'}
								}
							}
						]
					}
				"/>
				<circle class="lievo-donotdraw lievo-altstroke" fill="none" stroke="#F39C12" stroke-width="2" stroke-linecap="square" stroke-miterlimit="10" cx="30" cy="30" r="5" data-animdata="
					{
						'steps':[
							{
								'duration':'1',
								'position':'0.3',
								'vars':{
									'attr':{'r':'22'}
								}
							},
							{
								'duration':'0',
								'vars':{
									'attr':{'r':'5'}
								}
							}
						]
					}
				"/>
			</g>
		</g>

		<g class="lievo-lineicon">
			<path fill="#9B59B6" stroke="#7E349D" stroke-width="2" stroke-linecap="square" stroke-miterlimit="10" d="M30,7c12.7,0,23,10.3,23,23c0,12.7-10.3,23-23,23C17.3,53,7,42.7,7,30C7,17.3,17.3,7,30,7z"/>
			<path class="lievo-altstroke" fill="#FFCF4B" stroke="#F39C12" stroke-width="2" stroke-linecap="square" stroke-miterlimit="10" d="M30,27c1.66,0,3,1.34,3,3c0,1.66-1.34,3-3,3c-1.66,0-3-1.34-3-3C27,28.34,28.34,27,30,27z"/>
			<path fill="#FFCF4B" stroke="#F39C12" stroke-width="2" stroke-linecap="square" stroke-miterlimit="10" d="M46.15,20C47.96,22.9,49,26.33,49,30c0,0,0,0,0,0l-12,0l0,0c0-2.59-1.41-4.85-3.5-6.06l6-10.38C42.21,15.13,44.49,17.34,46.15,20z"/>
			<path fill="#FFCF4B" stroke="#F39C12" stroke-width="2" stroke-linecap="square" stroke-miterlimit="10" d="M13.85,20C12.04,22.9,11,26.33,11,30h12c0-2.59,1.41-4.85,3.5-6.06l-6-10.38C17.8,15.13,15.5,17.35,13.85,20z"/>
			<path fill="#FFCF4B" stroke="#F39C12" stroke-width="2" stroke-linecap="square" stroke-miterlimit="10" d="M30,49c-3.46,0-6.7-0.94-9.49-2.56l6-10.38C27.53,36.65,28.72,37,30,37s2.47-0.35,3.5-0.94l6,10.38C36.7,48.06,33.46,49,30,49z"/>
		</g>
	</g>
</svg>