<svg version="1.1" xmlns="http://www.w3.org/2000/svg" xmlns:xlink="http://www.w3.org/1999/xlink" viewBox="0 0 60 60" xml:space="preserve" data-solidshift="xy" data-animoptions="{'duration':'0.6', 'repeat':'0', 'repeatDelay':'0'}">
	<g class="lievo-main">
		<g class="lievo-lineicon lievo-filledicon">
			<defs>
				<clipPath id="livicon_redo_fl">
					<polyline class="lievo-donotdraw lievo-nohovercolor lievo-nohoverstroke" points="0,0 49,0 49,27 30,27 30,60 0,60"/>
				</clipPath>
			</defs>
			<g data-animdata="
				{
					'steps':[
						{
							'duration':'2',
							'vars':{
								'rotation':'360',
								'svgOrigin':'29.5 35.5',
								'force3D':'true',
								'ease':'none'
							},
							'position':'0'
						}
					]
				}
			">
				<g clip-path="url(#livicon_redo_fl)">
					<path fill="none" stroke="#34495E" stroke-width="2" stroke-linecap="square" stroke-miterlimit="10" d="M11.89,46C10.06,42.93,9,39.34,9,35.5C9,24.18,18.18,15,29.5,15c8.09,0,15.09,4.69,18.42,11.5" data-animdata="
						{
							'steps':[
								{
									'duration':'1',
									'vars':{
										'drawSVG':'100% 100%'
									},
									'position':'0'
								},
								{
									'duration':'1',
									'vars':{
										'drawSVG':'0% 100%'
									}
								}
							]
						}
					"/>
				</g>
				<polyline class="lievo-altstroke" fill="none" stroke="#34495E" stroke-width="2" stroke-linecap="square" stroke-miterlimit="10" points="41,27 49,27 49,19"/>
			</g>
		</g>

		<g class="lievo-solidicon">
			<defs>
				<clipPath id="livicon_redo_s">
					<polyline class="lievo-donotdraw lievo-nohovercolor lievo-nohoverstroke" points="0,0 60,0 60,27 30,27 30,60 0,60 0,0.67"/>
				</clipPath>
			</defs>
			<g data-animdata="
				{
					'steps':[
						{
							'duration':'2',
							'vars':{
								'rotation':'360',
								'svgOrigin':'29.5 35.5',
								'force3D':'true',
								'ease':'none'
							},
							'position':'0'
						}
					]
				}
			">
				<g clip-path="url(#livicon_redo_s)">
					<path fill="none" stroke="#34495E" stroke-width="3" stroke-linecap="square" stroke-miterlimit="10" d="M11.89,46C10.06,42.93,9,39.34,9,35.5C9,24.18,18.18,15,29.5,15c8.09,0,15.09,4.69,18.42,11.5" data-animdata="
						{
							'steps':[
								{
									'duration':'1',
									'vars':{
										'drawSVG':'100% 100%'
									},
									'position':'0'
								},
								{
									'duration':'1',
									'vars':{
										'drawSVG':'0% 100%'
									}
								}
							]
						}
					"/>
				</g>
				<polyline fill="none" stroke="#34495E" stroke-width="3" stroke-linecap="square" stroke-miterlimit="10" points="41,27 49,27 49,19"/>
			</g>
		</g>
	</g>
</svg>