<svg version="1.1" xmlns="http://www.w3.org/2000/svg" xmlns:xlink="http://www.w3.org/1999/xlink" viewBox="0 0 60 60" xml:space="preserve" data-solidshift="xy" data-animoptions="{'duration':'1', 'repeat':'0', 'repeatDelay':'0'}">
	<g class="lievo-main">
		<g data-animdata="
			{
				'steps':[
					{
						'duration':'1',
						'vars':{
							'rotation':'360',
							'svgOrigin':'30 30',
							'force3D':'true',
							'ease':'none'
						},
						'position':'0'
					}
				]
			}
		">
			<g class="lievo-lineicon lievo-filledicon">
				<path fill="none" stroke="#34495E" stroke-width="2" stroke-linecap="square" stroke-miterlimit="10" d="M51.1,34.3c-2,9.8-10.71,17.2-21.1,17.2C18.13,51.5,8.5,41.87,8.5,30C8.5,18.13,18.13,8.5,30,8.5c6.38,0,11.87,2.79,15.8,7.2"/>
				<polyline class="lievo-altstroke" fill="none" stroke="#34495E" stroke-width="2" stroke-linecap="square" stroke-miterlimit="10" points="39,17 47,17 47,9"/>
			</g>
			<g class="lievo-solidicon">
				<path fill="none" stroke="#34495E" stroke-width="3" stroke-linecap="square" stroke-miterlimit="10" d="M51.1,34.3c-2,9.8-10.71,17.2-21.1,17.2C18.13,51.5,8.5,41.87,8.5,30C8.5,18.13,18.13,8.5,30,8.5c6.38,0,11.87,2.79,15.8,7.2"/>
				<polyline class="lievo-altstroke" fill="none" stroke="#34495E" stroke-width="3" stroke-linecap="square" stroke-miterlimit="10" points="39,17 47,17 47,9"/>
			</g>
		</g>
	</g>
</svg>