<svg version="1.1" xmlns="http://www.w3.org/2000/svg" xmlns:xlink="http://www.w3.org/1999/xlink" viewBox="0 0 60 60" xml:space="preserve" data-solidshift="xy" data-animoptions="{'duration':'1', 'repeat':'0', 'repeatDelay':'0'}">
	<g class="lievo-main">
		<g data-animdata="
			{
				'steps':[
					{
						'duration':'1',
						'vars':{
							'rotation':'-360',
							'svgOrigin':'30 30',
							'force3D':'true',
							'ease':'none'
						},
						'position':'0'
					}
				]
			}
		">
			<g class="lievo-lineicon lievo-filledicon">
				<path fill="none" stroke="#34495E" stroke-width="2" stroke-linecap="square" stroke-miterlimit="10" d="M8.9,34.3c2,9.8,10.71,17.2,21.1,17.2c11.87,0,21.5-9.63,21.5-21.5c0-11.87-9.63-21.5-21.5-21.5c-6.38,0-11.87,2.79-15.8,7.2"/>
				<polyline class="lievo-altstroke" fill="none" stroke="#34495E" stroke-width="2" stroke-linecap="square" stroke-miterlimit="10" points="21,17 13,17 13,9"/>
			</g>
			<g class="lievo-solidicon">
				<path fill="none" stroke="#34495E" stroke-width="3" stroke-linecap="square" stroke-miterlimit="10" d="M8.9,34.3c2,9.8,10.71,17.2,21.1,17.2c11.87,0,21.5-9.63,21.5-21.5c0-11.87-9.63-21.5-21.5-21.5c-6.38,0-11.87,2.79-15.8,7.2"/>
				<polyline class="lievo-altstroke" fill="none" stroke="#34495E" stroke-width="3" stroke-linecap="square" stroke-miterlimit="10" points="21,17 13,17 13,9"/>
			</g>
		</g>
	</g>
</svg>