<svg version="1.1" xmlns="http://www.w3.org/2000/svg" xmlns:xlink="http://www.w3.org/1999/xlink" viewBox="0 0 60 60" xml:space="preserve" data-animoptions="{'duration':'1', 'repeat':'0', 'repeatDelay':'0.5'}">
	<g class="lievo-main">
		<g class="lievo-common">
			<path fill="#ECF0F1" stroke="#7F8C8D" stroke-width="2" stroke-linecap="square" stroke-miterlimit="10" d="M30,7h17c1.1,0,2,0.9,2,2v42c0,1.1-0.9,2-2,2H13c-1.1,0-2-0.9-2-2V9c0-1.1,0.9-2,2-2H30z"/>
			<line class="lievo-altstroke lievo-solidbg lievo-savelinecap" fill="none" stroke="#7F8C8D" stroke-width="2" stroke-linecap="round" stroke-miterlimit="10" x1="30" y1="21" x2="25" y2="17" data-animdata="
				{
					'steps':[
						{
							'duration':'1',
							'position':'0',
							'vars':{
								'rotation':'90',
								'svgOrigin':'30 21',
								'force3D':'true',
								'ease':'none',
								'repeat':'1',
								'repeatDelay':'1',
								'yoyo':'true'
							}
						}
					]
				}
			"/>
			<path class="lievo-solidbg" fill="none" stroke="#95A5A6" stroke-width="2" stroke-linecap="square" stroke-miterlimit="10" d="M30,11c5.52,0,10,4.48,10,10c-4,0-16,0-20,0C20,15.48,24.48,11,30,11z"/>
			<path class="lievo-solidbg lievo-savelinecap" fill="none" stroke="#95A5A6" stroke-width="2" stroke-linecap="round" stroke-miterlimit="10" d="M45,27v20c0,1.1-0.9,2-2,2H17c-1.1,0-2-0.9-2-2V27" data-animdata="
				{
					'steps':[
						{
							'duration':'1',
							'position':'0',
							'vars':{
								'path':'M43,29v16c0,1.1-0.9,2-2,2H19c-1.1,0-2-0.9-2-2V29'
							}
						},
						{
							'duration':'1',
							'position':'2',
							'vars':{
								'path':'M45,27v20c0,1.1-0.9,2-2,2H17c-1.1,0-2-0.9-2-2V27'
							}
						}
					]
				}
			"/>
		</g>
	</g>
</svg>