<svg version="1.1" xmlns="http://www.w3.org/2000/svg" xmlns:xlink="http://www.w3.org/1999/xlink" viewBox="0 0 60 60" xml:space="preserve" data-shift="xy" data-solidshift="xy" data-animoptions="{'duration':'2', 'repeat':'0', 'repeatDelay':'0.7'}">
	<g class="lievo-main">
		<g class="lievo-common">
			<g opacity="0" data-animdata="
				{
					'steps':[
						{
							'duration':'0.5',
							'position':'3.5',
							'vars':{
								'opacity':'1'
							}
						},
						{
							'duration':'0.5',
							'position':'+=1.5',
							'vars':{
								'opacity':'0'
							}
						}
					]
				}
			">
				<defs>
					<clipPath id="livicon_screenshot_all">
						<path class="lievo-donotdraw lievo-nohovercolor lievo-savefill" d="M53,47c0,1.1-0.9,2-2,2H9c-1.1,0-2-0.9-2-2V13c0-1.1,0.9-2,2-2h42c1.1,0,2,0.9,2,2V47z"/>
					</clipPath>
					<clipPath id="livicon_screenshot_small">
						<polygon class="lievo-donotdraw lievo-nohovercolor lievo-savefill" points="21,23 47,49 53,49 53,23"/>
					</clipPath>
					<clipPath id="livicon_screenshot_sun">
						<polygon class="lievo-donotdraw lievo-nohovercolor lievo-savefill" points="21,23 37,39 45,31 53,39 53,11 21,11"/>
					</clipPath>
				</defs>
				<g clip-path="url(#livicon_screenshot_all)">
					<g clip-path="url(#livicon_screenshot_small)">
						<path class="lievo-donotdraw" fill="#1EBC61" stroke="#009C41" stroke-width="2" stroke-linecap="square" stroke-miterlimit="10" d="M45,31l8,8v8c0,1.1-0.9,2-2,2H37V39L45,31z"/>
					</g>
					<path class="lievo-donotdraw" fill="#2ECC71" stroke="#0EAC51" stroke-width="2" stroke-linecap="square" stroke-miterlimit="10" d="M21,23L7,37v10c0,1.1,0.9,2,2,2h38L21,23z"/>
					<g clip-path="url(#livicon_screenshot_sun)">
						<circle class="lievo-altstroke lievo-donotdraw" fill="#FFCF4B" stroke="#F9B32F" stroke-width="2" stroke-miterlimit="10" cx="38" cy="22" r="5"/>
					</g>
				</g>
				<path class="lievo-donotdraw" fill="none" stroke="#657576" stroke-width="2" stroke-linecap="square" stroke-miterlimit="10" d="M30,11h21c1.1,0,2,0.9,2,2v34c0,1.1-0.9,2-2,2H9c-1.1,0-2-0.9-2-2V13c0-1.1,0.9-2,2-2H30z"/>
			</g>
		</g>

		<g class="lievo-filledicon lievo-lineicon">
			<g data-animdata="
				{
					'steps':[
						{
							'duration':'2',
							'position':'0',
							'vars':{
								'scale':'0.62',
								'transformOrigin':'center center',
								'ease':'Power3.easeOut'
							}
						},
						{
							'duration':'0.5',
							'position':'+=1',
							'vars':{
								'opacity':'0'
							}
						},
						{
							'duration':'0',
							'position':'+=3',
							'vars':{
								'scale':'1'
							}
						},
						{
							'duration':'1',
							'vars':{
								'opacity':'1'
							}
						}
					]
				}
			">
				<line class="lievo-altstroke" fill="none" stroke="#34495E" stroke-width="2" stroke-linecap="square" stroke-miterlimit="10" x1="30" y1="7" x2="30" y2="19"/>
				<line class="lievo-altstroke" fill="none" stroke="#34495E" stroke-width="2" stroke-linecap="square" stroke-miterlimit="10" x1="53" y1="30" x2="41" y2="30"/>
				<line class="lievo-altstroke" fill="none" stroke="#34495E" stroke-width="2" stroke-linecap="square" stroke-miterlimit="10" x1="30" y1="53" x2="30" y2="41"/>
				<line class="lievo-altstroke" fill="none" stroke="#34495E" stroke-width="2" stroke-linecap="square" stroke-miterlimit="10" x1="7" y1="30" x2="19" y2="30"/>
				<circle transform="rotate(-90, 30, 30)" fill="none" stroke="#34495E" stroke-width="2" stroke-linecap="square" stroke-miterlimit="10" cx="30" cy="30" r="16"/>
			</g>
		</g>

		<g class="lievo-solidicon">
			<g data-animdata="
				{
					'steps':[
						{
							'duration':'2',
							'position':'0',
							'vars':{
								'scale':'0.62',
								'transformOrigin':'center center',
								'ease':'Power3.easeOut'
							}
						},
						{
							'duration':'0.5',
							'position':'+=1',
							'vars':{
								'opacity':'0'
							}
						},
						{
							'duration':'0',
							'position':'+=3',
							'vars':{
								'scale':'1'
							}
						},
						{
							'duration':'1',
							'vars':{
								'opacity':'1'
							}
						}
					]
				}
			">
				<line fill="none" stroke="#34495E" stroke-width="3" stroke-linecap="square" stroke-miterlimit="10" x1="30" y1="7" x2="30" y2="19"/>
				<line fill="none" stroke="#34495E" stroke-width="3" stroke-linecap="square" stroke-miterlimit="10" x1="53" y1="30" x2="41" y2="30"/>
				<line fill="none" stroke="#34495E" stroke-width="3" stroke-linecap="square" stroke-miterlimit="10" x1="30" y1="53" x2="30" y2="41"/>
				<line fill="none" stroke="#34495E" stroke-width="3" stroke-linecap="square" stroke-miterlimit="10" x1="7" y1="30" x2="19" y2="30"/>
				<circle transform="rotate(-90, 30, 30)" fill="none" stroke="#34495E" stroke-width="3" stroke-linecap="square" stroke-miterlimit="10" cx="30" cy="30" r="16"/>
			</g>
		</g>

		<g class="lievo-common">
			<polygon class="lievo-donotdraw lievo-likestroke lievo-altstroke" fill="#34495E" points="30,29.52 30.15,29.84 30.5,29.89 30.25,30.13 30.31,30.48 30,30.31 29.69,30.48 29.75,30.13 29.5,29.89 29.85,29.84" opacity="0" data-animdata="
				{
					'steps':[
						{
							'duration':'0',
							'position':'3',
							'vars':{
								'opacity':'1'
							}
						},
						{
							'duration':'0.5',
							'vars':{
								'scale':'60',
								'opacity':'0',
								'transformOrigin':'center center'
							}
						},
						{
							'duration':'0',
							'vars':{
								'scale':'1'
							}
						}
					]
				}
			"/>
		</g>
	</g>
</svg>
