<svg version="1.1" xmlns="http://www.w3.org/2000/svg" xmlns:xlink="http://www.w3.org/1999/xlink" viewBox="0 0 60 60" xml:space="preserve" data-shift="x" data-solidshift="xy" data-animoptions="{'duration':'1.2', 'repeat':'0', 'repeatDelay':'0.5'}">
	<g class="lievo-main">
		<g data-animdata="
			{
				'steps':[
					{
						'duration':'1',
						'vars':{
							'y':'-=60'
						},
						'position':'1.5'
					},
					{
						'duration':'0',
						'vars':{
							'y':'0'
						},
						'position':'+=1'
					},
					{
						'duration':'0',
						'vars':{
							'scale':'0.001',
							'svgOrigin':'30 30'
						}
					},
					{
						'duration':'1',
						'vars':{
							'scale':'1',
							'ease':'Back.easeOut'
						},
						'position':'+=0.5'
					}
				]
			}
		">
			<g class="lievo-filledicon lievo-lineicon">
				<path fill="none" stroke="#34495E" stroke-width="2" stroke-linecap="square" stroke-miterlimit="10" d="M36,21h8c1.1,0,2,0.9,2,2v26c0,1.1-0.9,2-2,2H16c-1.1,0-2-0.9-2-2V23c0-1.1,0.9-2,2-2h8" data-animdata="
					{
						'steps':[
							{
								'duration':'0.8',
								'vars':{
									'scale':'0.62',
									'svgOrigin':'30 36',
									'repeat':'1',
									'repeatDelay':'1',
									'yoyo':'true',
									'ease':'none'
								},
								'position':'0'
							}
						]
					}
				"/>
				<line class="lievo-altstroke" fill="none" stroke="#34495E" stroke-width="2" stroke-linecap="square" stroke-miterlimit="10" x1="30" y1="8.7" x2="30" y2="35"/>
				<polyline class="lievo-altstroke" fill="none" stroke="#34495E" stroke-width="2" stroke-linecap="square" stroke-miterlimit="10" points="22,15 30,7 38,15"/>
			</g>

			<g class="lievo-solidicon">
				<g>
					<path fill="none" stroke="#34495E" stroke-width="3" stroke-linecap="square" stroke-miterlimit="10" d="M37,21h7c1.1,0,2,0.9,2,2v26c0,1.1-0.9,2-2,2H16c-1.1,0-2-0.9-2-2V23c0-1.1,0.9-2,2-2h7" data-animdata="
						{
							'steps':[
								{
									'duration':'0.8',
									'vars':{
										'scale':'0.62',
										'svgOrigin':'30 36',
										'repeat':'1',
										'repeatDelay':'1',
										'yoyo':'true',
										'ease':'none'
									},
									'position':'0'
								}
							]
						}
					"/>
					<line fill="none" stroke="#34495E" stroke-width="3" stroke-linecap="square" stroke-miterlimit="10" x1="30" y1="8.7" x2="30" y2="35"/>
					<polyline fill="none" stroke="#34495E" stroke-width="3" stroke-linecap="square" stroke-miterlimit="10" points="22,15 30,7 38,15"/>
				</g>
			</g>
		</g>
	</g>
</svg>