<svg version="1.1" xmlns="http://www.w3.org/2000/svg" xmlns:xlink="http://www.w3.org/1999/xlink" viewBox="0 0 60 60" xml:space="preserve" data-animoptions="{'duration':'3', 'repeat':'0', 'repeatDelay':'1'}">
	<g class="lievo-main">
		<g class="lievo-common">
			<polyline class="lievo-savelinecap" fill="#64B5F6" stroke="#1E88E5" stroke-width="2" stroke-linecap="round" stroke-miterlimit="10" points="30,49 23,49 30,40 37,49 30,49"/>
			<polyline fill="#64B5F6" stroke="#1E88E5" stroke-width="2" stroke-miterlimit="10" points="30,49 41,49 41,53 19,53 19,49 30,49"/>
			<path class="lievo-altstroke" fill="none" stroke="#C5D3E2" stroke-width="2" stroke-linecap="round" stroke-miterlimit="10" d="M42,13c1.66,0,3,1.34,3,3" opacity="0" data-animdata="
				{
					'steps':[
						{
							'duration':'1',
							'position':'0',
							'vars':{
								'path':'M42,9c3.87,0,7,3.13,7,7',
								'opacity':'1'
							}
						},
						{
							'duration':'1',
							'vars':{
								'path':'M42,5c6.08,0,11,4.92,11,11'
							}
						},
						{
							'duration':'1',
							'vars':{
								'path':'M42,1c8.28,0,15,6.71,15,15',
								'opacity':'0'
							}
						}
					]
				}
			"/>
			<path class="lievo-altstroke" fill="none" stroke="#C5D3E2" stroke-width="2" stroke-linecap="round" stroke-miterlimit="10" d="M42,13c1.66,0,3,1.34,3,3" opacity="0" data-animdata="
				{
					'steps':[
						{
							'duration':'1',
							'position':'1',
							'vars':{
								'path':'M42,9c3.87,0,7,3.13,7,7',
								'opacity':'1'
							}
						},
						{
							'duration':'1',
							'vars':{
								'path':'M42,5c6.08,0,11,4.92,11,11'
							}
						},
						{
							'duration':'1',
							'vars':{
								'path':'M42,1c8.28,0,15,6.71,15,15',
								'opacity':'0'
							}
						}
					]
				}
			"/>
			<path class="lievo-altstroke" fill="none" stroke="#C5D3E2" stroke-width="2" stroke-linecap="round" stroke-miterlimit="10" d="M42,13c1.66,0,3,1.34,3,3" opacity="0" data-animdata="
				{
					'steps':[
						{
							'duration':'1',
							'position':'2',
							'vars':{
								'path':'M42,9c3.87,0,7,3.13,7,7',
								'opacity':'1'
							}
						},
						{
							'duration':'1',
							'vars':{
								'path':'M42,5c6.08,0,11,4.92,11,11'
							}
						},
						{
							'duration':'1',
							'vars':{
								'path':'M42,1c8.28,0,15,6.71,15,15',
								'opacity':'0'
							}
						}
					]
				}
			"/>
			
			<path class="lievo-altstroke" fill="none" stroke="#C5D3E2" stroke-width="2" stroke-linecap="round" stroke-miterlimit="10" d="M8,1c0,3.87-3.13,7-7,7" opacity="0" data-animdata="
				{
					'steps':[
						{
							'duration':'1',
							'position':'8',
							'vars':{
								'path':'M12,1c0,6.08-4.92,11-11,11',
								'opacity':'1'
							}
						},
						{
							'duration':'1',
							'vars':{
								'path':'M16,1c0,8.28-6.71,15-15,15'
							}
						},
						{
							'duration':'1',
							'vars':{
								'path':'M20,1c0,10.49-8.51,19-19,19',
								'opacity':'0'
							}
						}
					]
				}
			"/>
			<path class="lievo-altstroke" fill="none" stroke="#C5D3E2" stroke-width="2" stroke-linecap="round" stroke-miterlimit="10" d="M8,1c0,3.87-3.13,7-7,7" opacity="0" data-animdata="
				{
					'steps':[
						{
							'duration':'1',
							'position':'9',
							'vars':{
								'path':'M12,1c0,6.08-4.92,11-11,11',
								'opacity':'1'
							}
						},
						{
							'duration':'1',
							'vars':{
								'path':'M16,1c0,8.28-6.71,15-15,15'
							}
						},
						{
							'duration':'1',
							'vars':{
								'path':'M20,1c0,10.49-8.51,19-19,19',
								'opacity':'0'
							}
						}
					]
				}
			"/>
			<path class="lievo-altstroke" fill="none" stroke="#C5D3E2" stroke-width="2" stroke-linecap="round" stroke-miterlimit="10" d="M8,1c0,3.87-3.13,7-7,7" opacity="0" data-animdata="
				{
					'steps':[
						{
							'duration':'1',
							'position':'10',
							'vars':{
								'path':'M12,1c0,6.08-4.92,11-11,11',
								'opacity':'1'
							}
						},
						{
							'duration':'1',
							'vars':{
								'path':'M16,1c0,8.28-6.71,15-15,15'
							}
						},
						{
							'duration':'1',
							'vars':{
								'path':'M20,1c0,10.49-8.51,19-19,19',
								'opacity':'0'
							}
						}
					]
				}
			"/>
		</g>

		<g class="lievo-filledicon lievo-lineicon">
			<g data-animdata="
				{
					'steps':[
						{
							'duration':'3',
							'position':'5',
							'vars':{
								'rotation':'-=90',
								'x':'-=5',
								'repeat':'1',
								'repeatDelay':'5',
								'yoyo':'true',
								'transformOrigin':'center center',
								'ease':'Power1.easeInOut'
							}
						}
					]
				}
			">
				<line class="lievo-altstroke lievo-savelinecap" fill="none" stroke="#546E7A" stroke-width="2" stroke-linecap="round" stroke-miterlimit="10" x1="41.37" y1="18.07" x2="38.54" y2="26.56"/>
				<line class="lievo-altstroke lievo-savelinecap" fill="none" stroke="#546E7A" stroke-width="2" stroke-linecap="round" stroke-miterlimit="10" x1="31.46" y1="19.49" x2="39.95" y2="16.66"/>
				<path class="lievo-altstroke" fill="none" stroke="#546E7A" stroke-width="2" stroke-miterlimit="10" d="M43.41,14.59c0.78,0.78,0.78,2.05,0,2.83c-0.78,0.78-2.05,0.78-2.83,0c-0.78-0.78-0.78-2.05,0-2.83S42.63,13.8,43.41,14.59z"/>
				<path fill="#BBDEFB" stroke="#64B5F6" stroke-width="2" stroke-miterlimit="10" d="M35,23.02l12.02,12.02c-6.64,6.64-17.4,6.64-24.04,0c-6.64-6.64-6.64-17.4,0-24.04L35,23.02"/>
			</g>
		</g>

		<g class="lievo-solidicon">
			<g data-animdata="
				{
					'steps':[
						{
							'duration':'3',
							'position':'5',
							'vars':{
								'rotation':'-=90',
								'x':'-=5',
								'repeat':'1',
								'repeatDelay':'5',
								'yoyo':'true',
								'transformOrigin':'center center',
								'ease':'Power1.easeInOut'
							}
						}
					]
				}
			">
				<line class="lievo-savelinecap" fill="#34495E" stroke="#34495E" stroke-width="2" stroke-linecap="round" stroke-miterlimit="10" x1="41.37" y1="18.07" x2="38.54" y2="26.56"/>
				<line class="lievo-savelinecap" fill="#34495E" stroke="#34495E" stroke-width="2" stroke-linecap="round" stroke-miterlimit="10" x1="31.46" y1="19.49" x2="39.95" y2="16.66"/>
				<path fill="#34495E" stroke="#34495E" stroke-width="2" stroke-miterlimit="10" d="M43.41,14.59c0.78,0.78,0.78,2.05,0,2.83c-0.78,0.78-2.05,0.78-2.83,0c-0.78-0.78-0.78-2.05,0-2.83S42.63,13.8,43.41,14.59z"/>
				<path fill="#34495E" stroke="#34495E" stroke-width="2" stroke-miterlimit="10" d="M35,23.02l12.02,12.02c-6.64,6.64-17.4,6.64-24.04,0c-6.64-6.64-6.64-17.4,0-24.04L35,23.02"/>
			</g>
		</g>
	</g>
</svg>