<svg version="1.1" xmlns="http://www.w3.org/2000/svg" xmlns:xlink="http://www.w3.org/1999/xlink" viewBox="0 0 60 60" xml:space="preserve" data-animoptions="{'duration':'1.5', 'repeat':'0', 'repeatDelay':'0.7'}">
	<g class="lievo-main">
		<g class="lievo-common">
			<defs>
				<clipPath id="livicon_touch">
					<path class="lievo-donotdraw lievo-nohovercolor lievo-nohoverstroke" d="M34.33,48.29c-2.92-3.86-6.16-3.47-9.37-5.55c-2.01-1.31-4.43-1.93-6.26-4.11c-1.13-1.35-2.22-3.39-3.77-4.99c-1.25-1.29-2.54-2.87-2.14-3.6c1.71-3.03,5.99,0.36,11.39,5.67c0.09,0.09,0.24-0.1,0.17-0.22c-1-1.73-11-19.05-11-19.05c-2.76-4.78,2.49-7.46,5.2-3l6.9,11.95c0.25,0.41,0.07,0.2,0.1,0.17c0.2-0.13-1.7-4.16,1.28-5.04c3.13-0.92,3.8,3.14,4.02,3.05c0.23-0.1-1.39-3.15,1.92-3.92c1.95-0.45,2.96,1.91,3.17,1.88c0.13-0.02-0.11-2.32,2.01-2.31c2.79,0.01,5.55,5.22,8.29,10.18c1.17,2.11,1.11,6.5,3.61,9.92L34.33,48.29z M73-13h-86v86h86V-13z"/>
				</clipPath>
			</defs>
			<g clip-path="url(#livicon_touch)">
				<circle class="lievo-altstroke" fill="none" stroke="#34495E" stroke-width="2" stroke-linecap="square" stroke-miterlimit="10" cx="15" cy="13" r="6" data-animdata="
					{
						'steps':[
							{
								'duration':'0',
								'position':'0',
								'vars':{
									'scale':'0.001',
									'svgOrigin':'15 13'

								}
							},
							{
								'duration':'0.5',
								'position':'4.3',
								'vars':{
									'scale':'1',
									'y':'0',
									'ease':'Power1.easeOut'
								}
							},
							{
								'duration':'1',
								'vars':{
									'scale':'2',
									'opacity':'0'
								}
							}
							,
							{
								'duration':'0',
								'vars':{
									'scale':'1'
								}
							},
							{
								'duration':'2',
								'position':'+=2',
								'vars':{
									'opacity':'1'
								}
							}
						]
					}
				"/>
			</g>
		</g>

		<g class="lievo-filledicon lievo-lineicon" data-animdata="
			{
				'steps':[
					{
						'duration':'0',
						'position':'0',
						'vars':{
							'x':'+=60',
							'y':'+=60'

						}
					},
					{
						'duration':'4',
						'vars':{
							'x':'0',
							'y':'0',
							'ease':'Power1.easeOut'
						}
					}
				]
			}
		">
			<path fill="#ffd0bc" stroke="#e9b995" stroke-width="2" stroke-linecap="square" stroke-miterlimit="10" d="M34.33,48.29c-2.92-3.86-6.16-3.47-9.37-5.55c-2.01-1.31-4.43-1.93-6.26-4.11c-1.13-1.35-2.22-3.39-3.77-4.99c-1.25-1.29-2.54-2.87-2.14-3.6c1.71-3.03,5.99,0.36,11.39,5.67c0.09,0.09,0.24-0.1,0.17-0.22c-1-1.73-11-19.05-11-19.05c-2.76-4.78,2.49-7.46,5.2-3l6.9,11.95c0.25,0.41,0.07,0.2,0.1,0.17c0.2-0.13-1.7-4.16,1.28-5.04c3.13-0.92,3.8,3.14,4.02,3.05c0.23-0.1-1.39-3.15,1.92-3.92c1.95-0.45,2.96,1.91,3.17,1.88c0.13-0.02-0.11-2.32,2.01-2.31c2.79,0.01,5.55,5.22,8.29,10.18c1.17,2.11,1.11,6.5,3.61,9.92L34.33,48.29z" data-animdata="
				{
					'steps':[
						{
							'duration':'0.3',
							'position':'4',
							'vars':{
								'path':'M34.33,48.29c-2.92-3.86-6.16-3.47-9.37-5.55c-2.01-1.31-4.43-1.93-6.26-4.11c-1.13-1.35-2.22-3.39-3.77-4.99c-1.25-1.29-2.54-2.87-2.14-3.6c1.71-3.03,5.99,0.36,11.39,5.67c0.09,0.09,0.24-0.1,0.17-0.22c-1-1.73-10.11-17.5-10.11-17.5c-2.76-4.78,2.49-7.46,5.2-3l6.01,10.4c0.25,0.41,0.07,0.2,0.1,0.17c0.2-0.13-1.7-4.16,1.28-5.04c3.13-0.92,3.8,3.14,4.02,3.05c0.23-0.1-1.39-3.15,1.92-3.92c1.95-0.45,2.96,1.91,3.17,1.88c0.13-0.02-0.11-2.32,2.01-2.31c2.79,0.01,5.55,5.22,8.29,10.18c1.17,2.11,1.11,6.5,3.61,9.92L34.33,48.29z'

							}
						},
						{
							'duration':'0.5',
							'vars':{
								'path':'M34.33,48.29c-2.92-3.86-6.16-3.47-9.37-5.55c-2.01-1.31-4.43-1.93-6.26-4.11c-1.13-1.35-2.22-3.39-3.77-4.99c-1.25-1.29-2.54-2.87-2.14-3.6c1.71-3.03,5.99,0.36,11.39,5.67c0.09,0.09,0.24-0.1,0.17-0.22c-1-1.73-11-19.05-11-19.05c-2.76-4.78,2.49-7.46,5.2-3l6.9,11.95c0.25,0.41,0.07,0.2,0.1,0.17c0.2-0.13-1.7-4.16,1.28-5.04c3.13-0.92,3.8,3.14,4.02,3.05c0.23-0.1-1.39-3.15,1.92-3.92c1.95-0.45,2.96,1.91,3.17,1.88c0.13-0.02-0.11-2.32,2.01-2.31c2.79,0.01,5.55,5.22,8.29,10.18c1.17,2.11,1.11,6.5,3.61,9.92L34.33,48.29z'
							}
						}
					]
				}
			"/>
			<rect x="40.89" y="34.66" transform="matrix(-0.5 -0.866 0.866 -0.5 24.789 105.6386)" fill="#3498DB" stroke="#2980B9" stroke-width="2" stroke-linecap="square" stroke-miterlimit="10" width="4" height="22"/>
		</g>

		<g class="lievo-solidicon" data-animdata="
			{
				'steps':[
					{
						'duration':'0',
						'position':'0',
						'vars':{
							'x':'+=60',
							'y':'+=60'

						}
					},
					{
						'duration':'4',
						'vars':{
							'x':'0',
							'y':'0',
							'ease':'Power1.easeOut'
						}
					}
				]
			}
		">
			<path fill="#34495E" stroke="#34495E" stroke-width="1" stroke-linecap="square" stroke-miterlimit="10" d="M32.6,45.76c-1.5-1.09-4.83-1.07-7.63-3.02c-1.97-1.37-4.43-1.93-6.26-4.11c-1.13-1.35-2.22-3.39-3.77-4.99c-1.25-1.29-2.54-2.87-2.14-3.6c1.71-3.03,5.99,0.36,11.39,5.67c0.09,0.09,0.24-0.1,0.17-0.22c-1-1.73-11-19.05-11-19.05c-2.76-4.78,2.49-7.46,5.2-3l6.9,11.95c0.25,0.41,0.07,0.2,0.1,0.17c0.2-0.13-1.7-4.16,1.28-5.04c3.13-0.92,3.79,3.13,4.02,3.05c0.1-0.03-1.39-3.15,1.92-3.92c1.95-0.45,2.96,1.91,3.17,1.88c0.13-0.02-0.11-2.32,2.01-2.31c2.79,0.01,5.55,5.22,8.29,10.18c1.17,2.11,1.11,4.44,1.95,7.35L32.6,45.76z" data-animdata="
				{
					'steps':[
						{
							'duration':'0.3',
							'position':'4',
							'vars':{
								'path':'M32.6,45.76c-1.5-1.09-4.83-1.07-7.63-3.02c-1.97-1.37-4.43-1.93-6.26-4.11c-1.13-1.35-2.22-3.39-3.77-4.99c-1.25-1.29-2.54-2.87-2.14-3.6c1.71-3.03,5.99,0.36,11.39,5.67c0.09,0.09,0.24-0.1,0.17-0.22c-1-1.73-9.92-17.2-9.92-17.2c-2.76-4.78,2.49-7.46,5.2-3l5.82,10.09c0.25,0.41,0.07,0.2,0.1,0.17c0.2-0.13-1.7-4.16,1.28-5.04c3.13-0.92,3.79,3.13,4.02,3.05c0.1-0.03-1.39-3.15,1.92-3.92c1.95-0.45,2.96,1.91,3.17,1.88c0.13-0.02-0.11-2.32,2.01-2.31c2.79,0.01,5.55,5.22,8.29,10.18c1.17,2.11,1.11,4.44,1.95,7.35L32.6,45.76z'

							}
						},
						{
							'duration':'0.5',
							'vars':{
								'path':'M32.6,45.76c-1.5-1.09-4.83-1.07-7.63-3.02c-1.97-1.37-4.43-1.93-6.26-4.11c-1.13-1.35-2.22-3.39-3.77-4.99c-1.25-1.29-2.54-2.87-2.14-3.6c1.71-3.03,5.99,0.36,11.39,5.67c0.09,0.09,0.24-0.1,0.17-0.22c-1-1.73-11-19.05-11-19.05c-2.76-4.78,2.49-7.46,5.2-3l6.9,11.95c0.25,0.41,0.07,0.2,0.1,0.17c0.2-0.13-1.7-4.16,1.28-5.04c3.13-0.92,3.79,3.13,4.02,3.05c0.1-0.03-1.39-3.15,1.92-3.92c1.95-0.45,2.96,1.91,3.17,1.88c0.13-0.02-0.11-2.32,2.01-2.31c2.79,0.01,5.55,5.22,8.29,10.18c1.17,2.11,1.11,4.44,1.95,7.35L32.6,45.76z'
							}
						}
					]
				}
			"/>
			<rect x="40.89" y="34.59" transform="matrix(-0.4999 -0.8661 0.8661 -0.4999 24.8453 105.5295)" display="inline" fill="#34495E" stroke="#34495E" stroke-width="1" stroke-linecap="square" stroke-miterlimit="10" width="4" height="22"/>
		</g>
	</g>
</svg>