<svg version="1.1" xmlns="http://www.w3.org/2000/svg" xmlns:xlink="http://www.w3.org/1999/xlink" viewBox="0 0 60 60" xml:space="preserve" data-animoptions="{'duration':'2', 'repeat':'0', 'repeatDelay':'0.7'}">
	<g class="lievo-main">
		<g class="lievo-common">
			<path class="lievo-donotdraw lievo-likestroke" opacity="0" fill="#34495E" d="M10.67,42.77c0.02-0.05,0.03-0.11,0.03-0.17c0-0.3-0.22-0.55-0.5-0.55c-0.13,0-0.25,0.06-0.34,0.15c-0.1-0.09-0.24-0.15-0.41-0.15c-0.3,0-0.55,0.2-0.55,0.45c0,0.13,0.07,0.24,0.17,0.32C9.03,42.89,9,42.97,9,43.05c0,0.26,0.23,0.47,0.51,0.49c0.02,0.23,0.21,0.41,0.44,0.41c0.21,0,0.37-0.14,0.43-0.33c0.06,0.02,0.11,0.03,0.17,0.03c0.3,0,0.55-0.2,0.55-0.45C11.1,42.99,10.91,42.82,10.67,42.77z" data-animdata="
				{
					'steps':[
						{
							'duration':'0',
							'position':'1',
							'vars':{
								'opacity':'1'
							}
						},
						{
							'duration':'1',
							'vars':{
								'scale':'10',
								'opacity':'0',
								'transformOrigin':'center center'
							}
						},
						{
							'duration':'0',
							'vars':{
								'scale':'1'
							}
						}
					]
				}
			"/>
			<path class="lievo-donotdraw lievo-likestroke" opacity="0" fill="#34495E" d="M30.67,42.77c0.02-0.05,0.03-0.11,0.03-0.17c0-0.3-0.22-0.55-0.5-0.55c-0.13,0-0.25,0.06-0.34,0.15c-0.1-0.09-0.24-0.15-0.41-0.15c-0.3,0-0.55,0.2-0.55,0.45c0,0.13,0.07,0.24,0.17,0.32C29.03,42.89,29,42.97,29,43.05c0,0.26,0.23,0.47,0.51,0.49c0.02,0.23,0.21,0.41,0.44,0.41c0.21,0,0.37-0.14,0.43-0.33c0.06,0.02,0.11,0.03,0.17,0.03c0.3,0,0.55-0.2,0.55-0.45C31.1,42.99,30.91,42.82,30.67,42.77z" data-animdata="
				{
					'steps':[
						{
							'duration':'0',
							'position':'2.3',
							'vars':{
								'opacity':'1'
							}
						},
						{
							'duration':'1',
							'vars':{
								'scale':'10',
								'opacity':'0',
								'transformOrigin':'center center'
							}
						},
						{
							'duration':'0',
							'vars':{
								'scale':'1'
							}
						}
					]
				}
			"/>
			<path class="lievo-donotdraw lievo-likestroke" opacity="0" fill="#34495E" d="M50.67,42.77c0.02-0.05,0.03-0.11,0.03-0.17c0-0.3-0.22-0.55-0.5-0.55c-0.13,0-0.25,0.06-0.34,0.15c-0.1-0.09-0.24-0.15-0.41-0.15c-0.3,0-0.55,0.2-0.55,0.45c0,0.13,0.07,0.24,0.17,0.32C49.03,42.89,49,42.97,49,43.05c0,0.26,0.23,0.47,0.51,0.49c0.02,0.23,0.21,0.41,0.44,0.41c0.21,0,0.37-0.14,0.43-0.33c0.06,0.02,0.11,0.03,0.17,0.03c0.3,0,0.55-0.2,0.55-0.45C51.1,42.99,50.91,42.82,50.67,42.77z" data-animdata="
				{
					'steps':[
						{
							'duration':'0',
							'position':'3.1',
							'vars':{
								'opacity':'1'
							}
						},
						{
							'duration':'1',
							'vars':{
								'scale':'10',
								'opacity':'0',
								'transformOrigin':'center center'
							}
						},
						{
							'duration':'0',
							'vars':{
								'scale':'1'
							}
						}
					]
				}
			"/>
		</g>
		<g class="lievo-lineicon lievo-filledicon">
			<g data-animdata="
				{
					'steps':[
						{
							'duration':'4',
							'position':'0',
							'vars':{
								'x':'+=70',
								'ease':'Power1.easeIn'
							}
						},
						{
							'duration':'0',
							'vars':{
								'opacity':'0'
							}
						},
						{
							'duration':'0',
							'vars':{
								'x':'-=140'
							}
						},
						{
							'duration':'0',
							'vars':{
								'opacity':'1'
							}
						},
						{
							'duration':'2',
							'position':'+=1',
							'vars':{
								'x':'0',
								'ease':'Power1.easeOut'
							}
						}
					]
				}
			">
				<circle fill="none" stroke="#000000" stroke-width="2" stroke-linecap="square" stroke-miterlimit="10" cx="16" cy="43" r="4"/>
				<circle fill="none" stroke="#000000" stroke-width="2" stroke-linecap="square" stroke-miterlimit="10" cx="44" cy="43" r="4"/>
				<path fill="#27AE60" stroke="#34495E" stroke-width="2" stroke-linecap="square" stroke-miterlimit="10" d="M45,19h3c0.55,0,1.17,0.42,1.37,0.93l3.26,8.14C52.83,28.58,53,29.45,53,30v10c0,0.55-0.45,1-1,1h-1.29c-0.86-2.89-3.54-5-6.71-5c-1.96,0-5,0-5,0V19H45z M45,23h-2v8h6v-2l-2-6H45z"/>
				<line fill="none" stroke="#34495E" stroke-width="2" stroke-linecap="square" stroke-miterlimit="10" x1="23" y1="43" x2="37" y2="43"/>
				<path class="lievo-altstroke" fill="#27AE60" stroke="#34495E" stroke-width="2" stroke-linecap="square" stroke-miterlimit="10" d="M21,13H7v26h3.26c1.27-1.81,3.36-3,5.74-3s4.47,1.19,5.74,3H35V13H21z"/>
				<line fill="none" stroke="#34495E" stroke-width="2" stroke-linecap="square" stroke-miterlimit="10" x1="8" y1="43" x2="9" y2="43"/>
			</g>
		</g>

		<g class="lievo-solidicon">
			<g data-animdata="
				{
					'steps':[
						{
							'duration':'4',
							'position':'0',
							'vars':{
								'x':'+=70',
								'ease':'Power1.easeIn'
							}
						},
						{
							'duration':'0',
							'vars':{
								'opacity':'0'
							}
						},
						{
							'duration':'0',
							'vars':{
								'x':'-=140'
							}
						},
						{
							'duration':'0',
							'vars':{
								'opacity':'1'
							}
						},
						{
							'duration':'2',
							'position':'+=1',
							'vars':{
								'x':'0',
								'ease':'Power1.easeOut'
							}
						}
					]
				}
			">
				<circle fill="#34495E" stroke="#34495E" stroke-width="2" stroke-linecap="square" stroke-miterlimit="10" cx="16" cy="43" r="4"/>
				<circle fill="#34495E" stroke="#34495E" stroke-width="2" stroke-linecap="square" stroke-miterlimit="10" cx="44" cy="43" r="4"/>
				<path fill="#34495E" stroke="#34495E" stroke-width="2" stroke-linecap="square" stroke-miterlimit="10" d="M45,19h3c0.55,0,1.17,0.42,1.37,0.93l3.26,8.14C52.83,28.58,53,29.45,53,30v10c0,0.55-0.45,1-1,1h-1.29c-0.86-2.89-3.54-5-6.71-5c-1.96,0-5,0-5,0V19H45z"/>
				<polyline class="lievo-solidbg" fill="#FFFFFF" stroke="#FFFFFF" stroke-width="2" stroke-linecap="square" stroke-miterlimit="10" points="45,22 43,22 43,31 50,31 50,29 47,22 45,22"/>
				<line fill="none" stroke="#34495E" stroke-width="2" stroke-linecap="square" stroke-miterlimit="10" x1="23" y1="43" x2="37" y2="43"/>
				<path fill="#34495E" stroke="#34495E" stroke-width="2" stroke-linecap="square" stroke-miterlimit="10" d="M21,13H7v26h3.26c1.27-1.81,3.36-3,5.74-3s4.47,1.19,5.74,3H35V13H21z"/>
				<line fill="none" stroke="#34495E" stroke-width="2" stroke-linecap="square" stroke-miterlimit="10" x1="8" y1="43" x2="9" y2="43"/>
			</g>
		</g>
	</g>
</svg>