<svg version="1.1" xmlns="http://www.w3.org/2000/svg" xmlns:xlink="http://www.w3.org/1999/xlink" viewBox="0 0 60 60" xml:space="preserve" data-shift="x" data-animoptions="{'duration':'2', 'repeat':'0', 'repeatDelay':'0.7'}">
	<g class="lievo-main">
		<g class="lievo-common">
			<defs>
				<clipPath id="livicon_umbrella">
					<path class="lievo-donotdraw lievo-nohovercolor lievo-nohoverstroke" d="M8,33c0-12.15,9.85-22,22-22s22,9.85,22,22h20v-45h-84v45H8z"/>
				</clipPath>
			</defs>
			<g clip-path="url(#livicon_umbrella)">
				<path class="lievo-donotdraw lievo-likestroke" fill="#aaedff" stroke="#aaedff" stroke-width="0" d="M56.06-14.32l2-6c0.42-1.25,2.31-0.62,1.9,0.63l-2,6C57.54-12.42,55.64-13.06,56.06-14.32zM42.06-14.32l2-6c0.42-1.25,2.32-0.62,1.9,0.63l-2,6C43.54-12.42,41.64-13.06,42.06-14.32zM28.06-14.32l2-6c0.42-1.25,2.31-0.62,1.9,0.63l-2,6C29.54-12.43,27.64-13.07,28.06-14.32zM64.06-16.32l2-6c0.42-1.25,2.32-0.62,1.9,0.63l-2,6C65.54-14.42,63.64-15.06,64.06-16.32zM50.06-16.32l2-6c0.42-1.26,2.31-0.62,1.9,0.63l-2,6C51.54-14.42,49.64-15.06,50.06-16.32zM36.06-16.32l2-6c0.42-1.25,2.32-0.62,1.9,0.63l-2,6C37.54-14.43,35.64-15.07,36.06-16.32zM60.04-26.32l2-6c0.42-1.26,2.31-0.62,1.9,0.63l-2,6C61.52-24.42,59.62-25.06,60.04-26.32zM46.04-26.32l2-6c0.42-1.25,2.32-0.62,1.9,0.63l-2,6C47.52-24.42,45.62-25.06,46.04-26.32zM32.04-26.32l2-6c0.42-1.26,2.32-0.62,1.9,0.63l-2,6C33.52-24.43,31.63-25.06,32.04-26.32zM68.04-28.32l2-6c0.42-1.25,2.32-0.62,1.9,0.63l-2,6C69.52-26.42,67.62-27.06,68.04-28.32zM54.04-28.32l2-6c0.42-1.26,2.31-0.62,1.9,0.63l-2,6C55.52-26.42,53.62-27.06,54.04-28.32zM40.04-28.32l2-6c0.42-1.25,2.32-0.62,1.9,0.63l-2,6C41.52-26.43,39.63-27.06,40.04-28.32zM64.04-38.31l2-6c0.42-1.26,2.31-0.62,1.9,0.63l-2,6C65.51-36.42,63.62-37.06,64.04-38.31zM50.04-38.31l2-6c0.42-1.25,2.32-0.62,1.9,0.63l-2,6C51.51-36.42,49.62-37.06,50.04-38.31zM36.03-38.31l2-6c0.42-1.26,2.32-0.62,1.9,0.63l-2,6C37.51-36.43,35.62-37.06,36.03-38.31zM72.04-40.31l2-6c0.42-1.25,2.32-0.62,1.9,0.63l-2,6C73.51-38.42,71.62-39.06,72.04-40.31zM58.04-40.31l2-6c0.42-1.26,2.31-0.62,1.9,0.63l-2,6C59.51-38.42,57.62-39.06,58.04-40.31zM44.04-40.31l2-6c0.42-1.26,2.32-0.62,1.9,0.63l-2,6C45.51-38.43,43.62-39.06,44.04-40.31zM68.04-50.32l2-6c0.42-1.26,2.31-0.62,1.9,0.63l-2,6C69.52-48.42,67.62-49.06,68.04-50.32zM54.04-50.32l2-6c0.42-1.25,2.32-0.62,1.9,0.63l-2,6C55.52-48.42,53.62-49.06,54.04-50.32zM40.04-50.32l2-6c0.42-1.26,2.32-0.62,1.9,0.63l-2,6C41.52-48.43,39.63-49.06,40.04-50.32zM76.04-52.32l2-6c0.42-1.25,2.32-0.62,1.9,0.63l-2,6C77.52-50.42,75.62-51.06,76.04-52.32zM62.04-52.32l2-6c0.42-1.26,2.31-0.62,1.9,0.63l-2,6C63.52-50.42,61.62-51.06,62.04-52.32zM48.04-52.32l2-6c0.42-1.25,2.32-0.62,1.9,0.63l-2,6C49.52-50.43,47.63-51.06,48.04-52.32z" data-animdata="
					{
						'steps':[
							{
								'duration':'12',
								'position':'1',
								'vars':{
									'y':'+=85',
									'x':'-=33'
								}
							},
							{
								'duration':'0',
								'vars':{
									'opacity':'0'
								}
							},
							{
								'duration':'0',
								'vars':{
									'y':'0',
									'x':'0'
								}
							},
							{
								'duration':'0',
								'vars':{
									'opacity':'1'
								}
							}
						]
					}
				"/>
			</g>
			
			<path fill="none" stroke="#34495E" stroke-width="2" stroke-linecap="square" stroke-miterlimit="10" d="M30,33v17c0,1.66-1.34,3-3,3s-3-1.34-3-3" data-animdata="
				{
					'steps':[
						{
							'duration':'0',
							'position':'0',
							'vars':{
								'morphSVG':'M30,46v4c0,1.66-1.34,3-3,3s-3-1.34-3-3'
							}
						},
						{
							'duration':'2',
							'position':'0.5',
							'vars':{
								'morphSVG':'M30,33v17c0,1.66-1.34,3-3,3s-3-1.34-3-3',
								'ease':'Power3.easeIn'
							}
						}
					]
				}
			"/>
		
			<line fill="none" stroke="#34495E" stroke-width="2" stroke-linecap="square" stroke-miterlimit="10" x1="30" y1="7" x2="30" y2="11"/>
			
			<path class="lievo-altstroke" fill="#8E44AD" stroke="#6E248D" stroke-width="2" stroke-linecap="square" stroke-miterlimit="2" d="M30,11C17.85,11,8,20.85,8,33c0-3.04,2.46-5,5.5-5s5.5,1.96,5.5,5c0-3.04,2.46-5,5.5-5s5.5,1.96,5.5,5c0-3.04,2.46-5,5.5-5s5.5,1.96,5.5,5c0-3.04,2.46-5,5.5-5s5.5,1.96,5.5,5C52,20.85,42.15,11,30,11z" data-animdata="
				{
					'steps':[
						{
							'duration':'0',
							'position':'0',
							'vars':{
								'morphSVG':'M30,11c-1,0-8,23-10,35c0-2,1.5-3,2.5-3s2.5,1,2.5,3c0-2,1-3,2.5-3s2.5,1,2.5,3c0-2,1-3,2.5-3s2.5,1,2.5,3c0-2,1.5-3,2.5-3s2.5,1,2.5,3C38,34,31,11,30,11z'
							}
						},
						{
							'duration':'2',
							'position':'0.5',
							'vars':{
								'morphSVG':'M30,11C17.85,11,8,20.85,8,33c0-3.04,2.46-5,5.5-5s5.5,1.96,5.5,5c0-3.04,2.46-5,5.5-5s5.5,1.96,5.5,5c0-3.04,2.46-5,5.5-5s5.5,1.96,5.5,5c0-3.04,2.46-5,5.5-5s5.5,1.96,5.5,5C52,20.85,42.15,11,30,11z',
								'ease':'Power3.easeIn'
							}
						}
					]
				}
			"/>
		</g>
	</g>
</svg>