<svg version="1.1" xmlns="http://www.w3.org/2000/svg" xmlns:xlink="http://www.w3.org/1999/xlink" viewBox="0 0 60 60" xml:space="preserve" data-animoptions="{'duration':'1', 'repeat':'0', 'repeatDelay':'0.5'}">
	<g class="lievo-main">
		<g class="lievo-filledicon lievo-lineicon">
			<g data-animdata="
				{
					'steps':[
						{
							'duration':'0',
							'vars':{
								'opacity':'0',
								'repeat':'1',
								'repeatDelay':'2',
								'yoyo':'true'
							},
							'position':'0'
						}
					]
				}
			">
				<path fill="none" stroke="#34495E" stroke-width="2" stroke-linecap="square" stroke-miterlimit="10" d="M29.9,19.1L39.1,9.9c1.17-1.17,3.07-1.17,4.24,0l6.78,6.78c1.17,1.17,1.17,3.07,0,4.24l-9.19,9.19"/>
				<path fill="none" stroke="#34495E" stroke-width="2" stroke-linecap="square" stroke-miterlimit="10" d="M30.12,40.9l-9.19,9.19c-1.17,1.17-3.07,1.17-4.24,0L9.9,43.31c-1.17-1.17-1.17-3.07,0-4.24l9.19-9.19"/>
				<line class="lievo-altstroke" fill="none" stroke="#34495E" stroke-linecap="square" stroke-width="1" stroke-miterlimit="10" x1="42.5" y1="36.5" x2="49.5" y2="36.5"/>
				<line class="lievo-altstroke" fill="none" stroke="#34495E" stroke-linecap="square" stroke-width="1" stroke-miterlimit="10" x1="36.5" y1="42.5" x2="36.5" y2="49.5"/>
				<line class="lievo-altstroke" fill="none" stroke="#34495E" stroke-linecap="square" stroke-width="1" stroke-miterlimit="10" x1="41" y1="41" x2="46" y2="46"/>
				<line class="lievo-altstroke" fill="none" stroke="#34495E" stroke-linecap="square" stroke-width="1" stroke-miterlimit="10" x1="17.5" y1="23.5" x2="10.5" y2="23.5"/>
				<line class="lievo-altstroke" fill="none" stroke="#34495E" stroke-linecap="square" stroke-width="1" stroke-miterlimit="10" x1="23.5" y1="17.5" x2="23.5" y2="10.5"/>
				<line class="lievo-altstroke" fill="none" stroke="#34495E" stroke-linecap="square" stroke-width="1" stroke-miterlimit="10" x1="19" y1="19" x2="14" y2="14"/>
			</g>

			<g opacity="0" data-animdata="
				{
					'steps':[
						{
							'duration':'0',
							'vars':{
								'opacity':'1',
								'repeat':'1',
								'repeatDelay':'2',
								'yoyo':'true'
							},
							'position':'0'
						}
					]
				}
			">
				<path fill="none" stroke="#34495E" stroke-width="2" stroke-linecap="square" stroke-miterlimit="10" d="M30,23.44l-0.1-0.1c-1.17-1.17-1.17-3.07,0-4.24L39.1,9.9c1.17-1.17,3.07-1.17,4.24,0l6.78,6.78c1.17,1.17,1.17,3.07,0,4.24l-9.19,9.19c-1.17,1.17-3.07,1.17-4.24,0l-0.1-0.1" data-animdata="
					{
						'steps':[
							{
								'duration':'1',
								'vars':{
									'x':'-=3',
									'y':'+=3'
								},
								'position':'0'
							},
							{
								'duration':'2',
								'vars':{
									'x':'0',
									'y':'0',
									'ease':'Back.easeOut.config(4)'
								}
							}
						]
					}
				"/>
				<path fill="none" stroke="#34495E" stroke-width="2" stroke-linecap="square" stroke-miterlimit="10" d="M30.02,36.56l0.1,0.1c1.17,1.17,1.17,3.07,0,4.24l-9.19,9.19c-1.17,1.17-3.07,1.17-4.24,0L9.9,43.31c-1.17-1.17-1.17-3.07,0-4.24l9.19-9.19c1.17-1.17,2.97-1.27,4.14-0.1l0.1,0.1" data-animdata="
					{
						'steps':[
							{
								'duration':'1',
								'vars':{
									'x':'+=3',
									'y':'-=3'
								},
								'position':'0'
							},
							{
								'duration':'2',
								'vars':{
									'x':'0',
									'y':'0',
									'ease':'Back.easeOut.config(4)'
								}
							}
						]
					}
				"/>
				<line class="lievo-savelinecap lievo-altstroke" fill="none" stroke="#34495E" stroke-width="2" stroke-linecap="round" stroke-linejoin="round" stroke-miterlimit="10" x1="36.72" y1="23.28" x2="23.28" y2="36.72" data-animdata="
					{
						'steps':[
							{
								'duration':'1',
								'vars':{
									'rotation':'+=7',
									'svgOrigin':'30 30'
								},
								'position':'0'
							},
							{
								'duration':'2',
								'vars':{
									'rotation':'0',
									'ease':'Back.easeOut.config(4)'
								}
							}
						]
					}
				"/>
			</g>
		</g>

		<g class="lievo-solidicon">
			<g data-animdata="
				{
					'steps':[
						{
							'duration':'0',
							'vars':{
								'opacity':'0',
								'repeat':'1',
								'repeatDelay':'2',
								'yoyo':'true'
							},
							'position':'0'
						}
					]
				}
			">
				<path fill="none" stroke="#34495E" stroke-width="3" stroke-linecap="square" stroke-miterlimit="10" d="M29.9,19.1L39.1,9.9c1.17-1.17,3.07-1.17,4.24,0l6.78,6.78c1.17,1.17,1.17,3.07,0,4.24l-9.19,9.19"/>
				<path fill="none" stroke="#34495E" stroke-width="3" stroke-linecap="square" stroke-miterlimit="10" d="M30.12,40.9l-9.19,9.19c-1.17,1.17-3.07,1.17-4.24,0L9.9,43.31c-1.17-1.17-1.17-3.07,0-4.24l9.19-9.19"/>
				<line class="lievo-altstroke" fill="none" stroke="#34495E" stroke-linecap="square" stroke-width="1.5" stroke-miterlimit="10" x1="42.5" y1="36.5" x2="49.5" y2="36.5"/>
				<line class="lievo-altstroke" fill="none" stroke="#34495E" stroke-linecap="square" stroke-width="1.5" stroke-miterlimit="10" x1="36.5" y1="42.5" x2="36.5" y2="49.5"/>
				<line class="lievo-altstroke" fill="none" stroke="#34495E" stroke-linecap="square" stroke-width="1.5" stroke-miterlimit="10" x1="41" y1="41" x2="46" y2="46"/>
				<line class="lievo-altstroke" fill="none" stroke="#34495E" stroke-linecap="square" stroke-width="1.5" stroke-miterlimit="10" x1="17.5" y1="23.5" x2="10.5" y2="23.5"/>
				<line class="lievo-altstroke" fill="none" stroke="#34495E" stroke-linecap="square" stroke-width="1.5" stroke-miterlimit="10" x1="23.5" y1="17.5" x2="23.5" y2="10.5"/>
				<line class="lievo-altstroke" fill="none" stroke="#34495E" stroke-linecap="square" stroke-width="1.5" stroke-miterlimit="10" x1="19" y1="19" x2="14" y2="14"/>
			</g>

			<g opacity="0" data-animdata="
				{
					'steps':[
						{
							'duration':'0',
							'vars':{
								'opacity':'1',
								'repeat':'1',
								'repeatDelay':'2',
								'yoyo':'true'
							},
							'position':'0'
						}
					]
				}
			">
				<path fill="none" stroke="#34495E" stroke-width="3" stroke-linecap="square" stroke-miterlimit="10" d="M30,23.44l-0.1-0.1c-1.17-1.17-1.17-3.07,0-4.24L39.1,9.9c1.17-1.17,3.07-1.17,4.24,0l6.78,6.78c1.17,1.17,1.17,3.07,0,4.24l-9.19,9.19c-1.17,1.17-3.07,1.17-4.24,0l-0.1-0.1" data-animdata="
					{
						'steps':[
							{
								'duration':'1',
								'vars':{
									'x':'-=3',
									'y':'+=3'
								},
								'position':'0'
							},
							{
								'duration':'2',
								'vars':{
									'x':'0',
									'y':'0',
									'ease':'Back.easeOut.config(4)'
								}
							}
						]
					}
				"/>
				<path fill="none" stroke="#34495E" stroke-width="3" stroke-linecap="square" stroke-miterlimit="10" d="M30.02,36.56l0.1,0.1c1.17,1.17,1.17,3.07,0,4.24l-9.19,9.19c-1.17,1.17-3.07,1.17-4.24,0L9.9,43.31c-1.17-1.17-1.17-3.07,0-4.24l9.19-9.19c1.17-1.17,2.97-1.27,4.14-0.1l0.1,0.1" data-animdata="
					{
						'steps':[
							{
								'duration':'1',
								'vars':{
									'x':'+=3',
									'y':'-=3'
								},
								'position':'0'
							},
							{
								'duration':'2',
								'vars':{
									'x':'0',
									'y':'0',
									'ease':'Back.easeOut.config(4)'
								}
							}
						]
					}
				"/>
				<line class="lievo-savelinecap lievo-altstroke" fill="none" stroke="#34495E" stroke-width="3" stroke-linecap="round" stroke-linejoin="round" stroke-miterlimit="10" x1="36.72" y1="23.28" x2="23.28" y2="36.72" data-animdata="
					{
						'steps':[
							{
								'duration':'1',
								'vars':{
									'rotation':'+=7',
									'svgOrigin':'30 30'
								},
								'position':'0'
							},
							{
								'duration':'2',
								'vars':{
									'rotation':'0',
									'ease':'Back.easeOut.config(4)'
								}
							}
						]
					}
				"/>
			</g>
		</g>
	</g>
</svg>