<svg version="1.1" xmlns="http://www.w3.org/2000/svg" xmlns:xlink="http://www.w3.org/1999/xlink" viewBox="0 0 60 60" xml:space="preserve" data-animoptions="{'duration':'2', 'repeat':'0', 'repeatDelay':'0.5'}">
	<g class="lievo-main">
		<g class="lievo-common" data-animdata="
			{
				'steps':[
					{
						'duration':'1',
						'position':'0',
						'vars':{
							'x':'+=72',
							'rotation':'+=144',
							'transformOrigin':'center center',
							'ease':'Power1.easeIn'
						}
					},
					{
						'duration':'0',
						'vars':{
							'x':'-=72',
							'y':'-=72',
							'rotation':'0'
						}
					},
					{
						'duration':'1.4',
						'position':'+=0.6',
						'vars':{
							'y':'+=72',
							'ease':'Bounce.easeOut'
						}
					}
				]
			}
		">
			<path fill="#1ABC9C" stroke="#16A085" stroke-width="2" stroke-linecap="round" stroke-miterlimit="10" d="M29,7c12.7,0,23,10.3,23,23c0,12.7-10.3,23-23,23C16.3,53,6,42.7,6,30C6,17.3,16.3,7,29,7z"/>
			<path class="lievo-altstroke lievo-solidbg" fill="none" stroke="#ffffff" stroke-width="2" stroke-linecap="round" stroke-miterlimit="10" d="M29,21v-6 M29,39v6M23,35.4v0.9c0,1.49,1.79,2.7,4,2.7h4c2.21,0,4-1.61,4-3.6v-1.8c0-1.99-1.79-3.6-4-3.6h-4c-2.21,0-4-1.61-4-3.6v-1.8c0-1.99,1.79-3.6,4-3.6h4c2.21,0,4,1.21,4,2.7v0.9"/>
		</g>
	</g>
</svg>