<svg version="1.1" xmlns="http://www.w3.org/2000/svg" xmlns:xlink="http://www.w3.org/1999/xlink" viewBox="0 0 60 60" xml:space="preserve" data-animoptions="{'duration':'1', 'repeat':'0', 'repeatDelay':'0.5'}">
	<g class="lievo-main">
		<g class="lievo-common">
			<path class="lievo-altstroke" fill="#f0c7b1" stroke="#daa488" stroke-width="2" stroke-miterlimit="10" d="M30,7c-2.15,0.04-4.17,0.25-4.8,2c-2.63-0.06-3.25,1.44-4.2,3.58s-0.39,7.72,0.3,9.73c-1.54,0.94-1.04,5.44,1.2,5.58c0.26,1.17,0.48,4.22,2.4,5.3v3.9C24.83,40.5,12.76,43.16,11,45s-2.08,3.75-2,6h42c0.08-2.25-0.24-4.16-2-6s-13.58-4.5-13.8-7.9v-3.9c1.92-1.08,2.25-4.33,2.5-5.5c2.24-0.25,2.64-4.55,1.1-5.48c0.69-2.02,1.45-7.49,0.5-9.63S36,7,30,7z" data-animdata="
				{
					'steps':[
						{
							'duration':'0',
							'vars':{
								'x':'-=70',
								'path':'M25.14,7.4c-2.11,0.41-4.07,0.97-4.38,2.8c-2.6,0.39-2.95,1.98-3.51,4.26s0.95,7.67,1.98,9.53c-1.36,1.19-0.08,5.53,2.15,5.29c0.46,1.1,1.21,4.07,3.28,4.8l0.24,3.02C24.83,40.5,12.76,43.16,11,45s-2.08,3.75-2,6h42c0.08-2.25-0.24-4.16-2-6s-13.58-4.5-13.8-7.9l-0.39-4.8c1.7-1.4,1.46-4.66,1.51-5.85c2.16-0.63,1.81-4.94,0.13-5.59c0.33-2.11,0.13-7.63-1.18-9.57C33.96,9.34,31.04,6.35,25.14,7.4z'
							},
							'position':'0'
						},
						{
							'duration':'4',
							'vars':{
								'x':'0',
								'ease':'Power1.easeOut'
							},
							'position':'1'
						},
						{
							'duration':'2',
							'vars':{
								'path':'M30,7c-2.15,0.04-4.17,0.25-4.8,2c-2.63-0.06-3.25,1.44-4.2,3.58s-0.39,7.72,0.3,9.73c-1.54,0.94-1.04,5.44,1.2,5.58c0.26,1.17,0.48,4.22,2.4,5.3v3.9C24.83,40.5,12.76,43.16,11,45s-2.08,3.75-2,6h42c0.08-2.25-0.24-4.16-2-6s-13.58-4.5-13.8-7.9v-3.9c1.92-1.08,2.25-4.33,2.5-5.5c2.24-0.25,2.64-4.55,1.1-5.48c0.69-2.02,1.45-7.49,0.5-9.63S36,7,30,7z',
								'ease':'Back.easeOut'
							}
						}
					]
				}
			"/>
		</g>
	</g>
</svg>