<svg version="1.1" xmlns="http://www.w3.org/2000/svg" xmlns:xlink="http://www.w3.org/1999/xlink" viewBox="0 0 60 60" xml:space="preserve" data-animoptions="{'duration':'1.5', 'repeat':'1', 'repeatDelay':'0'}">
	<g class="lievo-main">
		<g class="lievo-common">
			<defs>
				<clipPath id="livicon_weather_rain">
					<path class="lievo-donotdraw lievo-nohovercolor lievo-nohoverstroke" d="M71,55.9V30H53.96C53.45,36.7,47.83,42,41,42H17c-5.73,0-10.45-4.4-10.96-10H-13v23.9H71z"/>
				</clipPath>
			</defs>
			<g clip-path="url(#livicon_weather_rain)">
				<path class="lievo-likestroke lievo-altstroke" fill="#C5D3E2" stroke="#C5D3E2" stroke-width="0" d="M11,54c-0.15,0-0.3-0.03-0.45-0.11c-0.49-0.25-0.69-0.85-0.45-1.34l4-8c0.25-0.49,0.85-0.69,1.34-0.45c0.49,0.25,0.69,0.85,0.45,1.34l-4,8C11.72,53.8,11.36,54,11,54z M21.89,51.45l4-8c0.25-0.49,0.05-1.09-0.45-1.34c-0.49-0.25-1.09-0.05-1.34,0.45l-4,8c-0.25,0.49-0.05,1.09,0.45,1.34C20.69,51.97,20.85,52,21,52C21.36,52,21.72,51.8,21.89,51.45z M29.89,53.45l4-8c0.25-0.49,0.05-1.09-0.45-1.34c-0.5-0.25-1.09-0.05-1.34,0.45l-4,8c-0.25,0.49-0.05,1.09,0.45,1.34C28.69,53.97,28.85,54,29,54C29.36,54,29.72,53.8,29.89,53.45z M39.89,51.45l4-8c0.25-0.49,0.05-1.09-0.45-1.34c-0.49-0.25-1.09-0.05-1.34,0.45l-4,8c-0.25,0.49-0.05,1.09,0.45,1.34C38.7,51.97,38.85,52,39,52C39.37,52,39.72,51.8,39.89,51.45z" data-animdata="
					{
						'steps':[
							{
								'duration':'1',
								'position':'0',
								'vars':{
									'y':'+=14',
									'x':'-=7'
								}
							},
							{
								'duration':'0',
								'vars':{
									'opacity':'0'
								}
							},
							{
								'duration':'0',
								'vars':{
									'y':'-=28',
									'x':'+=14'
								}
							},
							{
								'duration':'0',
								'vars':{
									'opacity':'1'
								}
							},
							{
								'duration':'1',
								'vars':{
									'y':'0',
									'x':'0'
								}
							}
						]
					}
				"/>

				<path class="lievo-donotdraw lievo-likestroke lievo-altstroke" fill="#C5D3E2" stroke="#C5D3E2" stroke-width="0" d="M18,40c-0.15,0-0.3-0.03-0.45-0.11c-0.49-0.25-0.69-0.85-0.45-1.34l4-8c0.25-0.49,0.85-0.69,1.34-0.45c0.49,0.25,0.69,0.85,0.45,1.34l-4,8C18.72,39.8,18.36,40,18,40z M28.89,37.45l4-8c0.25-0.49,0.05-1.09-0.45-1.34c-0.5-0.25-1.1-0.05-1.34,0.45l-4,8c-0.25,0.49-0.05,1.09,0.45,1.34C27.7,37.97,27.85,38,28,38C28.37,38,28.72,37.8,28.89,37.45z M36.89,39.45l4-8c0.25-0.49,0.05-1.09-0.45-1.34c-0.5-0.25-1.09-0.05-1.34,0.45l-4,8c-0.25,0.49-0.05,1.09,0.45,1.34C35.7,39.97,35.85,40,36,40C36.37,40,36.72,39.8,36.89,39.45z M46.89,37.45l4-8c0.25-0.49,0.05-1.09-0.45-1.34c-0.49-0.25-1.1-0.05-1.34,0.45l-4,8c-0.25,0.49-0.05,1.09,0.45,1.34C45.7,37.97,45.85,38,46,38C46.37,38,46.72,37.8,46.89,37.45z" data-animdata="
					{
						'steps':[
							{
								'duration':'2',
								'position':'0',
								'vars':{
									'y':'+=28',
									'x':'-=14'
								}
							},
							{
								'duration':'0',
								'vars':{
									'opacity':'0'
								}
							},
							{
								'duration':'0',
								'vars':{
									'y':'0',
									'x':'0'
								}
							},
							{
								'duration':'0',
								'vars':{
									'opacity':'1'
								}
							}
						]
					}
				"/>
			</g>
			<path fill="#C5D3E2" stroke="#ACBAC9" stroke-width="2" stroke-linecap="square" stroke-miterlimit="10" d="M29,7c6.38,0,11.74,4.26,13.44,10.09C48.39,17.81,53,22.86,53,29c0,6.63-5.37,12-12,12c-4.48,0-19.8,0-24,0c-5.52,0-10-4.48-10-10c0-4.84,3.44-8.88,8.01-9.8c0-0.07-0.01-0.13-0.01-0.2C15,13.27,21.27,7,29,7z"/>
		</g>
	</g>
</svg>