<svg version="1.1" xmlns="http://www.w3.org/2000/svg" xmlns:xlink="http://www.w3.org/1999/xlink" viewBox="0 0 60 60" xml:space="preserve" data-animoptions="{'duration':'1.5', 'repeat':'1', 'repeatDelay':'0'}">
	<g class="lievo-main">
		<g class="lievo-common">
			<defs>
				<clipPath id="livicon_weather_rain_thunder">
					<path class="lievo-donotdraw lievo-nohovercolor lievo-nohoverstroke" d="M71,55.9V30H53.96C53.45,36.7,47.83,42,41,42H17c-5.73,0-10.45-4.4-10.96-10H-13v23.9H71z"/>
				</clipPath>
			</defs>
			<g clip-path="url(#livicon_weather_rain_thunder)">
				<path class="lievo-likestroke" fill="#C5D3E2" stroke="#C5D3E2" stroke-width="0" d="M15.9,53.45l4-8c0.25-0.49,0.05-1.09-0.45-1.34s-1.09-0.05-1.34,0.45l-4,8c-0.25,0.49-0.05,1.09,0.45,1.34C14.7,53.97,14.85,54,15,54C15.37,54,15.72,53.8,15.9,53.45z M37.89,53.45l4-8c0.25-0.49,0.05-1.09-0.45-1.34c-0.49-0.25-1.09-0.05-1.34,0.45l-4,8c-0.25,0.49-0.05,1.09,0.45,1.34C36.7,53.97,36.85,54,37,54C37.37,54,37.72,53.8,37.89,53.45z" data-animdata="
					{
						'steps':[
							{
								'duration':'1.1',
								'position':'0',
								'vars':{
									'y':'+=14',
									'x':'-=7'
								}
							},
							{
								'duration':'0',
								'vars':{
									'opacity':'0'
								}
							},
							{
								'duration':'0',
								'vars':{
									'y':'-=28',
									'x':'+=14'
								}
							},
							{
								'duration':'0',
								'vars':{
									'opacity':'1'
								}
							},
							{
								'duration':'1.1',
								'vars':{
									'y':'0',
									'x':'0'
								}
							}
						]
					}
				"/>

				<path class="lievo-donotdraw lievo-likestroke" fill="#C5D3E2" stroke="#C5D3E2" stroke-width="0" d="M22.89,39.45l4-8c0.25-0.49,0.05-1.09-0.45-1.34s-1.09-0.05-1.34,0.45l-4,8c-0.25,0.49-0.05,1.1,0.45,1.34C21.7,39.97,21.85,40,22,40C22.37,40,22.72,39.8,22.89,39.45zM44.89,39.45l4-8c0.25-0.49,0.05-1.09-0.45-1.34c-0.49-0.25-1.09-0.05-1.34,0.45l-4,8c-0.25,0.49-0.05,1.1,0.45,1.34C43.7,39.97,43.85,40,44,40C44.37,40,44.72,39.8,44.89,39.45z" data-animdata="
					{
						'steps':[
							{
								'duration':'2.2',
								'position':'0',
								'vars':{
									'y':'+=28',
									'x':'-=14'
								}
							},
							{
								'duration':'0',
								'vars':{
									'opacity':'0'
								}
							},
							{
								'duration':'0',
								'vars':{
									'y':'0',
									'x':'0'
								}
							},
							{
								'duration':'0',
								'vars':{
									'opacity':'1'
								}
							}
						]
					}
				"/>
				<path class="lievo-likestroke lievo-altstroke" fill="#F9B32F" stroke="#F9B32F" stroke-width="0" d="M27,54c-0.26,0-0.51-0.1-0.71-0.29c-0.39-0.39-0.39-1.02,0-1.41L28.59,50H25c-0.4,0-0.77-0.24-0.92-0.62s-0.07-0.8,0.22-1.09l4-4c0.39-0.39,1.02-0.39,1.41,0s0.39,1.02,0,1.41L27.41,48H31c0.4,0,0.77,0.24,0.92,0.62c0.16,0.37,0.07,0.8-0.22,1.09l-4,4C27.51,53.9,27.26,54,27,54z" data-animdata="
					{
						'steps':[
							{
								'duration':'0.1',
								'position':'0',
								'vars':{
									'opacity':'0',
									'repeat':'7',
									'repeatDelay':'0.2',
									'yoyo':'true'
								}
							}
						]
					}
				"/>
			</g>
			<path fill="#ACBAC9" stroke="#8C9AA9" stroke-width="2" stroke-linecap="square" stroke-miterlimit="10" d="M29,7c6.38,0,11.74,4.26,13.44,10.09C48.39,17.81,53,22.86,53,29c0,6.63-5.37,12-12,12c-4.48,0-19.8,0-24,0c-5.52,0-10-4.48-10-10c0-4.84,3.44-8.88,8.01-9.8c0-0.07-0.01-0.13-0.01-0.2C15,13.27,21.27,7,29,7z"/>
		</g>
	</g>
</svg>