<svg version="1.1" xmlns="http://www.w3.org/2000/svg" xmlns:xlink="http://www.w3.org/1999/xlink" viewBox="0 0 60 60" xml:space="preserve" data-shift="x" data-animoptions="{'duration':'3', 'repeat':'0', 'repeatDelay':'0'}">
	<g class="lievo-main">
		<g class="lievo-common">
			<defs>
				<clipPath id="livicon_weather_snow">
					<path class="lievo-donotdraw lievo-nohovercolor lievo-nohoverstroke" d="M71,55.9V30H53.96C53.45,36.7,47.83,42,41,42H17c-5.73,0-10.45-4.4-10.96-10H-13v23.9H71z"/>
				</clipPath>
			</defs>
			<g clip-path="url(#livicon_weather_snow)">
				<path class="lievo-likestroke lievo-altstroke" fill="#C5D3E2" stroke="#C5D3E2" stroke-width="0" d="M15,45c0,0.55-0.45,1-1,1s-1-0.45-1-1s0.45-1,1-1S15,44.45,15,45z M18,48c-0.55,0-1,0.45-1,1s0.45,1,1,1s1-0.45,1-1S18.55,48,18,48z M14,52c-0.55,0-1,0.45-1,1s0.45,1,1,1s1-0.45,1-1S14.55,52,14,52z M22,44c-0.55,0-1,0.45-1,1s0.45,1,1,1s1-0.45,1-1S22.55,44,22,44z M26,48c-0.55,0-1,0.45-1,1s0.45,1,1,1s1-0.45,1-1S26.55,48,26,48zM22,52c-0.55,0-1,0.45-1,1s0.45,1,1,1s1-0.45,1-1S22.55,52,22,52z M30,44c-0.55,0-1,0.45-1,1s0.45,1,1,1s1-0.45,1-1S30.55,44,30,44z M34,48c-0.55,0-1,0.45-1,1s0.45,1,1,1s1-0.45,1-1S34.55,48,34,48z M30,52c-0.55,0-1,0.45-1,1s0.45,1,1,1s1-0.45,1-1S30.55,52,30,52z M38,44c-0.55,0-1,0.45-1,1s0.45,1,1,1s1-0.45,1-1S38.55,44,38,44z M42,48c-0.55,0-1,0.45-1,1s0.45,1,1,1s1-0.45,1-1S42.55,48,42,48z M38,52c-0.55,0-1,0.45-1,1s0.45,1,1,1s1-0.45,1-1S38.55,52,38,52z M46,44c-0.55,0-1,0.45-1,1s0.45,1,1,1s1-0.45,1-1S46.55,44,46,44z M46,52c-0.55,0-1,0.45-1,1s0.45,1,1,1s1-0.45,1-1S46.55,52,46,52zM18,40c-0.55,0-1,0.45-1,1s0.45,1,1,1s1-0.45,1-1S18.55,40,18,40z M26,40c-0.55,0-1,0.45-1,1s0.45,1,1,1s1-0.45,1-1S26.55,40,26,40z M34,40c-0.55,0-1,0.45-1,1s0.45,1,1,1s1-0.45,1-1S34.55,40,34,40z M42,40c-0.55,0-1,0.45-1,1s0.45,1,1,1s1-0.45,1-1S42.55,40,42,40z" data-animdata="
					{
						'steps':[
							{
								'duration':'1',
								'position':'0',
								'vars':{
									'y':'+=16'
								}
							},
							{
								'duration':'0',
								'vars':{
									'opacity':'0'
								}
							},
							{
								'duration':'0',
								'vars':{
									'y':'-=32'
								}
							},
							{
								'duration':'0',
								'vars':{
									'opacity':'1'
								}
							},
							{
								'duration':'1',
								'vars':{
									'y':'0'
								}
							}
						]
					}
				"/>

				<path class="lievo-donotdraw lievo-likestroke lievo-altstroke" fill="#C5D3E2" stroke="#C5D3E2" stroke-width="0" d="M15,29c0,0.55-0.45,1-1,1s-1-0.45-1-1s0.45-1,1-1S15,28.45,15,29z M18,32c-0.55,0-1,0.45-1,1s0.45,1,1,1s1-0.45,1-1S18.55,32,18,32z M14,36c-0.55,0-1,0.45-1,1s0.45,1,1,1s1-0.45,1-1S14.55,36,14,36z M22,28c-0.55,0-1,0.45-1,1s0.45,1,1,1s1-0.45,1-1S22.55,28,22,28z M26,32c-0.55,0-1,0.45-1,1s0.45,1,1,1s1-0.45,1-1S26.55,32,26,32zM22,36c-0.55,0-1,0.45-1,1s0.45,1,1,1s1-0.45,1-1S22.55,36,22,36z M30,28c-0.55,0-1,0.45-1,1s0.45,1,1,1s1-0.45,1-1S30.55,28,30,28z M34,32c-0.55,0-1,0.45-1,1s0.45,1,1,1s1-0.45,1-1S34.55,32,34,32z M30,36c-0.55,0-1,0.45-1,1s0.45,1,1,1s1-0.45,1-1S30.55,36,30,36z M38,28c-0.55,0-1,0.45-1,1s0.45,1,1,1s1-0.45,1-1S38.55,28,38,28z M42,32c-0.55,0-1,0.45-1,1s0.45,1,1,1s1-0.45,1-1S42.55,32,42,32z M38,36c-0.55,0-1,0.45-1,1s0.45,1,1,1s1-0.45,1-1S38.55,36,38,36z M46,28c-0.55,0-1,0.45-1,1s0.45,1,1,1s1-0.45,1-1S46.55,28,46,28z M46,36c-0.55,0-1,0.45-1,1s0.45,1,1,1s1-0.45,1-1S46.55,36,46,36zM18,24c-0.55,0-1,0.45-1,1s0.45,1,1,1s1-0.45,1-1S18.55,24,18,24z M26,24c-0.55,0-1,0.45-1,1s0.45,1,1,1s1-0.45,1-1S26.55,24,26,24z M34,24c-0.55,0-1,0.45-1,1s0.45,1,1,1s1-0.45,1-1S34.55,24,34,24z M42,24c-0.55,0-1,0.45-1,1s0.45,1,1,1s1-0.45,1-1S42.55,24,42,24z" data-animdata="
					{
						'steps':[
							{
								'duration':'2',
								'position':'0',
								'vars':{
									'y':'+=32'
								}
							},
							{
								'duration':'0',
								'vars':{
									'opacity':'0'
								}
							},
							{
								'duration':'0',
								'vars':{
									'y':'0'
								}
							},
							{
								'duration':'0',
								'vars':{
									'opacity':'1'
								}
							}
						]
					}
				"/>
			</g>
			<path fill="#C5D3E2" stroke="#ACBAC9" stroke-width="2" stroke-linecap="square" stroke-miterlimit="10" d="M29,7c6.38,0,11.74,4.26,13.44,10.09C48.39,17.81,53,22.86,53,29c0,6.63-5.37,12-12,12c-4.48,0-19.8,0-24,0c-5.52,0-10-4.48-10-10c0-4.84,3.44-8.88,8.01-9.8c0-0.07-0.01-0.13-0.01-0.2C15,13.27,21.27,7,29,7z"/>
		</g>
	</g>
</svg>