<svg version="1.1" xmlns="http://www.w3.org/2000/svg" xmlns:xlink="http://www.w3.org/1999/xlink" viewBox="0 0 60 60" xml:space="preserve" data-animoptions="{'duration':'2', 'repeat':'0', 'repeatDelay':'0.5'}">
	<g class="lievo-main">
		<g class="lievo-common">
			<path class="lievo-donotdraw lievo-likestroke" fill="#95A5A6" d="M42.16,17.84L41,13.34L44.35,10l4.5,1.16l1.16,4.5L46.65,19L42.16,17.84z M46.91,13.09c-0.78-0.78-2.05-0.78-2.83,0c-0.78,0.78-0.78,2.05,0,2.83c0.78,0.78,2.05,0.78,2.83,0S47.7,13.87,46.91,13.09z" opacity="0" data-animdata="
				{
					'steps':[
						{
							'duration':'1',
							'position':'0',
							'vars':{
								'opacity':'1'
							}
						},
						{
							'duration':'2',
							'vars':{
								'rotation':'+=30',
								'svgOrigin':'45.5 14.5',
								'force3D':'true'
							}
						},
						{
							'duration':'4',
							'position':'+=7',
							'vars':{
								'rotation':'+=60'
							}
						},
						{
							'duration':'2',
							'position':'+=7',
							'vars':{
								'rotation':'+=30'
							}
						},
						{
							'duration':'1',
							'position':'+=1',
							'vars':{
								'opacity':'0'
							}
						}
					]
				}
			"/>
			<g data-animdata="
				{
					'steps':[
						{
							'duration':'2',
							'position':'1',
							'vars':{
								'rotation':'+=30',
								'svgOrigin':'45.5 14.5',
								'force3D':'true'
							}
						},
						{
							'duration':'1',
							'position':'+=1',
							'vars':{
								'scale':'1.2'
							}
						},
						{
							'duration':'1',
							'position':'+=1',
							'vars':{
								'rotation':'-=60'
							}
						},
						{
							'duration':'1',
							'position':'+=1',
							'vars':{
								'scale':'1'
							}
						},
						{
							'duration':'4',
							'position':'+=1',
							'vars':{
								'rotation':'+=60'
							}
						},
						{
							'duration':'1',
							'position':'+=1',
							'vars':{
								'scale':'1.2'
							}
						},
						{
							'duration':'1',
							'position':'+=1',
							'vars':{
								'rotation':'-=60'
							}
						},
						{
							'duration':'1',
							'position':'+=1',
							'vars':{
								'scale':'1'
							}
						},
						{
							'duration':'2',
							'position':'+=1',
							'vars':{
								'rotation':'0'
							}
						}
					]
				}
			">
				<path class="lievo-savelinecap" fill="#C5D5D6" stroke="#95A5A6" stroke-width="2" stroke-miterlimit="10" d="M38.42,25.8L16.55,50.36c-0.73,0.83-1.96,0.86-2.74,0.08l-4.24-4.24c-0.78-0.78-0.75-2.01,0.08-2.74l24.53-21.89"/>
				<path class="lievo-altstroke" fill="#C5D5D6" stroke="#95A5A6" stroke-width="2" stroke-linecap="square" stroke-miterlimit="10" d="M40,20l6.9,2.1l4.7-4.71c0.78-0.78,1.5-0.52,1.39,0.58c-0.23,2.2-1.19,4.34-2.87,6.03c-3.9,3.91-10.24,3.91-14.14,0c-3.9-3.91-3.9-10.24,0-14.14c1.68-1.68,3.81-2.62,6.01-2.85c1.1-0.11,1.36,0.62,0.58,1.4l-4.66,4.66L40,20z"/>
			</g>
		</g>
	</g>
</svg>